<svg version="1.1" xmlns="http://www.w3.org/2000/svg" viewBox="0 0 1243 665" width="621.5" height="332.5">
  <!-- svg-source:excalidraw -->
  
  <defs>
    <style>
      @font-face {
        font-family: "Virgil";
        src: url("https://excalidraw.com/Virgil.woff2");
      }
      @font-face {
        font-family: "Cascadia";
        src: url("https://excalidraw.com/Cascadia.woff2");
      }
    </style>
  </defs>
  <rect x="0" y="0" width="1243" height="665" fill="#ffffff"></rect><g transform="translate(12.787220648507628 326.34397379583515) rotate(0 23 12.5)"><text x="0" y="18" font-family="Virgil, Segoe UI Emoji" font-size="20px" fill="#000000" text-anchor="start" style="white-space: pre;" direction="ltr">User</text></g><g stroke-linecap="round"><g transform="translate(10 316.6910477858564) rotate(0 25.7872206485074 -21.777916348211846)" fill-rule="evenodd"><path d="M13.47 -38.64 C13.47 -38.64, 13.47 -38.64, 13.47 -38.64 M13.47 -38.64 C13.47 -38.64, 13.47 -38.64, 13.47 -38.64 M7.04 -19.05 C11.97 -24.72, 16.89 -30.39, 26.72 -41.69 M7.04 -19.05 C14.22 -27.32, 21.41 -35.58, 26.72 -41.69 M0.61 0.53 C12.02 -12.59, 23.43 -25.71, 35.39 -39.47 M0.61 0.53 C11.99 -12.55, 23.37 -25.64, 35.39 -39.47 M11.24 0.5 C18.11 -7.39, 24.97 -15.29, 40.77 -33.46 M11.24 0.5 C21.51 -11.31, 31.78 -23.13, 40.77 -33.46 M21.87 0.47 C29.89 -8.76, 37.91 -17.98, 46.81 -28.21 M21.87 0.47 C30.91 -9.93, 39.95 -20.32, 46.81 -28.21 M29.22 4.2 C34.99 -2.43, 40.75 -9.06, 50.87 -20.7 M29.22 4.2 C37.76 -5.61, 46.29 -15.42, 50.87 -20.7 M41.82 1.91 C45.1 -1.86, 48.37 -5.63, 54.94 -13.19 M41.82 1.91 C46.46 -3.42, 51.09 -8.75, 54.94 -13.19 M0 0 C0 0, 0 0, 0 0 M0 0 C0 0, 0 0, 0 0 M12.04 -0.13 C9.64 -2.22, 7.23 -4.31, 1.47 -9.32 M12.04 -0.13 C8.52 -3.2, 4.99 -6.26, 1.47 -9.32 M24.84 0.39 C17.15 -6.29, 9.46 -12.97, 2.95 -18.64 M24.84 0.39 C20.16 -3.67, 15.49 -7.74, 2.95 -18.64 M30.08 -5.65 C21.4 -13.2, 12.71 -20.75, 6.69 -25.99 M30.08 -5.65 C22.17 -12.53, 14.26 -19.41, 6.69 -25.99 M45.9 -2.5 C37.44 -9.86, 28.98 -17.21, 9.67 -33.99 M45.9 -2.5 C36.64 -10.55, 27.38 -18.6, 9.67 -33.99 M52.66 -7.23 C37.7 -20.22, 22.75 -33.22, 14.92 -40.03 M52.66 -7.23 C45.06 -13.83, 37.46 -20.44, 14.92 -40.03 M51.11 -19.17 C44.17 -25.21, 37.22 -31.24, 20.92 -45.41 M51.11 -19.17 C42.1 -27, 33.09 -34.84, 20.92 -45.41" stroke="#ced4da" stroke-width="1" fill="none"></path><path d="M0 0 C0.92 -4.85, 1.58 -21.76, 5.52 -29.07 C9.46 -36.38, 17.61 -43.34, 23.65 -43.87 C29.69 -44.4, 37.51 -39.05, 41.78 -32.24 C46.05 -25.43, 56.23 -8.39, 49.27 -3.02 C42.31 2.36, 8.21 -0.5, 0 0 M0 0 C0.92 -4.85, 1.58 -21.76, 5.52 -29.07 C9.46 -36.38, 17.61 -43.34, 23.65 -43.87 C29.69 -44.4, 37.51 -39.05, 41.78 -32.24 C46.05 -25.43, 56.23 -8.39, 49.27 -3.02 C42.31 2.36, 8.21 -0.5, 0 0" stroke="#000000" stroke-width="2" fill="none"></path></g></g><g stroke-linecap="round" transform="translate(22.453870836316128 250) rotate(0 12.612971703843215 11.036350240862845)"><path d="M2.98 3.91 C2.98 3.91, 2.98 3.91, 2.98 3.91 M2.98 3.91 C2.98 3.91, 2.98 3.91, 2.98 3.91 M2.45 16.71 C5.39 13.33, 8.32 9.96, 16.23 0.86 M2.45 16.71 C5.9 12.74, 9.35 8.78, 16.23 0.86 M8.49 21.96 C14 15.62, 19.5 9.29, 23.58 4.6 M8.49 21.96 C13.44 16.26, 18.39 10.57, 23.58 4.6 M4.36 19.37 C4.36 19.37, 4.36 19.37, 4.36 19.37 M4.36 19.37 C4.36 19.37, 4.36 19.37, 4.36 19.37 M17.91 20.55 C12.14 15.53, 6.36 10.51, 1.31 6.11 M17.91 20.55 C12.57 15.9, 7.23 11.26, 1.31 6.11 M24.67 15.82 C18.38 10.35, 12.09 4.88, 7.31 0.73 M24.67 15.82 C20.05 11.8, 15.43 7.79, 7.31 0.73" stroke="#ced4da" stroke-width="1" fill="none"></path><path d="M25.23 11.04 C25.23 11.68, 25.16 12.32, 25.03 12.95 C24.91 13.58, 24.71 14.21, 24.47 14.81 C24.22 15.41, 23.9 16, 23.54 16.55 C23.17 17.11, 22.74 17.64, 22.28 18.13 C21.81 18.62, 21.28 19.08, 20.72 19.49 C20.16 19.9, 19.55 20.27, 18.92 20.59 C18.29 20.91, 17.61 21.19, 16.93 21.41 C16.24 21.63, 15.52 21.79, 14.8 21.91 C14.08 22.02, 13.34 22.07, 12.61 22.07 C11.88 22.07, 11.14 22.02, 10.42 21.91 C9.7 21.79, 8.99 21.63, 8.3 21.41 C7.61 21.19, 6.94 20.91, 6.31 20.59 C5.67 20.27, 5.06 19.9, 4.51 19.49 C3.95 19.08, 3.42 18.62, 2.95 18.13 C2.48 17.64, 2.05 17.11, 1.69 16.55 C1.32 16, 1.01 15.41, 0.76 14.81 C0.51 14.21, 0.32 13.58, 0.19 12.95 C0.06 12.32, 0 11.68, 0 11.04 C0 10.4, 0.06 9.75, 0.19 9.12 C0.32 8.49, 0.51 7.86, 0.76 7.26 C1.01 6.66, 1.32 6.07, 1.69 5.52 C2.05 4.96, 2.48 4.43, 2.95 3.94 C3.42 3.45, 3.95 2.99, 4.51 2.58 C5.06 2.17, 5.67 1.8, 6.31 1.48 C6.94 1.16, 7.61 0.88, 8.3 0.67 C8.99 0.45, 9.7 0.28, 10.42 0.17 C11.14 0.06, 11.88 0, 12.61 0 C13.34 0, 14.08 0.06, 14.8 0.17 C15.52 0.28, 16.24 0.45, 16.93 0.67 C17.61 0.88, 18.29 1.16, 18.92 1.48 C19.55 1.8, 20.16 2.17, 20.72 2.58 C21.28 2.99, 21.81 3.45, 22.28 3.94 C22.74 4.43, 23.17 4.96, 23.54 5.52 C23.9 6.07, 24.22 6.66, 24.47 7.26 C24.71 7.86, 24.91 8.49, 25.03 9.12 C25.16 9.75, 25.19 10.72, 25.23 11.04 C25.26 11.36, 25.26 10.72, 25.23 11.04" stroke="#000000" stroke-width="2" fill="none"></path></g><g stroke-linecap="round" transform="translate(264.95957946777344 250) rotate(0 32.540420532226506 32.540420532226506)"><path d="M0 0 C0 0, 0 0, 0 0 M0 0 C0 0, 0 0, 0 0 M0.13 12.04 C3.89 7.72, 7.64 3.41, 10.63 -0.03 M0.13 12.04 C2.27 9.58, 4.41 7.13, 10.63 -0.03 M0.27 24.08 C8.46 14.65, 16.66 5.22, 21.26 -0.07 M0.27 24.08 C6.17 17.29, 12.07 10.5, 21.26 -0.07 M-0.26 36.88 C7.89 27.51, 16.03 18.14, 31.89 -0.1 M-0.26 36.88 C9.5 25.66, 19.25 14.43, 31.89 -0.1 M-0.12 48.92 C13.48 33.27, 27.08 17.62, 42.52 -0.14 M-0.12 48.92 C12.82 34.03, 25.76 19.15, 42.52 -0.14 M0.01 60.96 C13.2 45.79, 26.38 30.62, 53.15 -0.17 M0.01 60.96 C12.07 47.09, 24.12 33.22, 53.15 -0.17 M4.08 68.47 C27.29 41.77, 50.51 15.06, 63.78 -0.21 M4.08 68.47 C23.9 45.67, 43.71 22.88, 63.78 -0.21 M14.71 68.44 C35.71 44.28, 56.71 20.12, 70.47 4.29 M14.71 68.44 C36.42 43.46, 58.14 18.48, 70.47 4.29 M25.34 68.4 C40.26 51.24, 55.18 34.08, 69.95 17.08 M25.34 68.4 C37.94 53.91, 50.53 39.42, 69.95 17.08 M35.97 68.37 C45.28 57.66, 54.59 46.95, 70.08 29.12 M35.97 68.37 C43.02 60.26, 50.07 52.15, 70.08 29.12 M46.6 68.33 C53.45 60.45, 60.3 52.57, 70.22 41.16 M46.6 68.33 C52.98 60.99, 59.37 53.64, 70.22 41.16 M57.23 68.3 C62.1 62.69, 66.98 57.08, 70.35 53.2 M57.23 68.3 C61.09 63.86, 64.95 59.42, 70.35 53.2 M0.23 65.28 C0.23 65.28, 0.23 65.28, 0.23 65.28 M0.23 65.28 C0.23 65.28, 0.23 65.28, 0.23 65.28 M12.27 65.15 C8.56 61.93, 4.86 58.7, 0.19 54.65 M12.27 65.15 C9.04 62.34, 5.8 59.52, 0.19 54.65 M24.31 65.01 C15.39 57.26, 6.47 49.51, 0.16 44.02 M24.31 65.01 C18.96 60.36, 13.62 55.72, 0.16 44.02 M36.35 64.88 C25 55.02, 13.66 45.15, 0.13 33.39 M36.35 64.88 C23.93 54.08, 11.5 43.28, 0.13 33.39 M49.15 65.4 C31.41 49.98, 13.67 34.56, 0.09 22.76 M49.15 65.4 C38.56 56.2, 27.97 47, 0.09 22.76 M61.19 65.27 C47.43 53.31, 33.68 41.36, 0.06 12.13 M61.19 65.27 C40.68 47.44, 20.17 29.62, 0.06 12.13 M68.7 61.2 C48 43.2, 27.29 25.21, 0.02 1.5 M68.7 61.2 C47.4 42.68, 26.09 24.16, 0.02 1.5 M68.67 50.57 C50.93 35.15, 33.18 19.73, 4.52 -5.19 M68.67 50.57 C51.94 36.03, 35.21 21.49, 4.52 -5.19 M68.63 39.94 C51.8 25.3, 34.96 10.67, 16.56 -5.33 M68.63 39.94 C57.16 29.97, 45.69 19.99, 16.56 -5.33 M68.6 29.31 C56.51 18.8, 44.41 8.29, 28.6 -5.46 M68.6 29.31 C55.21 17.68, 41.83 6.04, 28.6 -5.46 M68.56 18.68 C58.74 10.14, 48.92 1.6, 41.39 -4.94 M68.56 18.68 C61.45 12.5, 54.34 6.32, 41.39 -4.94 M68.53 8.05 C63.45 3.63, 58.37 -0.78, 53.43 -5.07 M68.53 8.05 C62.91 3.16, 57.28 -1.72, 53.43 -5.07" stroke="#40c05788" stroke-width="1" fill="none"></path><path d="M0 0 C20.14 0, 40.27 0, 65.08 0 M0 0 C19.27 0, 38.55 0, 65.08 0 M65.08 0 C65.08 21.23, 65.08 42.46, 65.08 65.08 M65.08 0 C65.08 13.78, 65.08 27.55, 65.08 65.08 M65.08 65.08 C50.76 65.08, 36.43 65.08, 0 65.08 M65.08 65.08 C39.49 65.08, 13.9 65.08, 0 65.08 M0 65.08 C0 43.82, 0 22.56, 0 0 M0 65.08 C0 44.81, 0 24.54, 0 0" stroke="#000000" stroke-width="2" fill="none"></path></g><g stroke-linecap="round" transform="translate(278.5724346454326 261.06709602551587) rotate(0 19.55281575520837 5.376997727614196)"><path d="M39.11 5.38 C39.11 5.69, 39.01 6, 38.81 6.31 C38.61 6.62, 38.31 6.92, 37.93 7.22 C37.54 7.51, 37.05 7.8, 36.49 8.07 C35.92 8.34, 35.26 8.59, 34.53 8.83 C33.8 9.07, 32.99 9.3, 32.12 9.5 C31.25 9.7, 30.31 9.88, 29.33 10.03 C28.35 10.19, 27.3 10.32, 26.24 10.43 C25.18 10.54, 24.06 10.62, 22.95 10.67 C21.83 10.73, 20.68 10.75, 19.55 10.75 C18.42 10.75, 17.27 10.73, 16.16 10.67 C15.04 10.62, 13.93 10.54, 12.87 10.43 C11.8 10.32, 10.76 10.19, 9.78 10.03 C8.8 9.88, 7.85 9.7, 6.98 9.5 C6.12 9.3, 5.3 9.07, 4.57 8.83 C3.85 8.59, 3.19 8.34, 2.62 8.07 C2.05 7.8, 1.57 7.51, 1.18 7.22 C0.79 6.92, 0.49 6.62, 0.3 6.31 C0.1 6, 0 5.69, 0 5.38 C0 5.07, 0.1 4.75, 0.3 4.44 C0.49 4.14, 0.79 3.83, 1.18 3.54 C1.57 3.25, 2.05 2.96, 2.62 2.69 C3.19 2.42, 3.85 2.16, 4.57 1.92 C5.3 1.68, 6.12 1.46, 6.98 1.26 C7.85 1.06, 8.8 0.88, 9.78 0.72 C10.76 0.56, 11.8 0.43, 12.87 0.32 C13.93 0.22, 15.04 0.14, 16.16 0.08 C17.27 0.03, 18.42 0, 19.55 0 C20.68 0, 21.83 0.03, 22.95 0.08 C24.06 0.14, 25.18 0.22, 26.24 0.32 C27.3 0.43, 28.35 0.56, 29.33 0.72 C30.31 0.88, 31.25 1.06, 32.12 1.26 C32.99 1.46, 33.8 1.68, 34.53 1.92 C35.26 2.16, 35.92 2.42, 36.49 2.69 C37.05 2.96, 37.54 3.25, 37.93 3.54 C38.31 3.83, 38.61 4.14, 38.81 4.44 C39.01 4.75, 39.06 5.22, 39.11 5.38 C39.16 5.53, 39.16 5.22, 39.11 5.38" stroke="#000000" stroke-width="2" fill="none"></path></g><g stroke-linecap="round"><g transform="translate(278.93035106169873 266.9455640743938) rotate(0 19.147886618589723 20.243310703375386)"><path d="M0 0 C0.64 5.36, 2.72 25.82, 3.85 32.15 C4.97 38.48, 4.02 36.6, 6.77 37.99 C9.52 39.38, 16.05 40.42, 20.35 40.49 C24.64 40.56, 30.03 39.82, 32.54 38.4 C35.04 36.98, 34.41 38.33, 35.37 31.94 C36.33 25.56, 37.81 5.41, 38.3 0.1 M0 0 C0.64 5.36, 2.72 25.82, 3.85 32.15 C4.97 38.48, 4.02 36.6, 6.77 37.99 C9.52 39.38, 16.05 40.42, 20.35 40.49 C24.64 40.56, 30.03 39.82, 32.54 38.4 C35.04 36.98, 34.41 38.33, 35.37 31.94 C36.33 25.56, 37.81 5.41, 38.3 0.1" stroke="#000000" stroke-width="2" fill="none"></path></g></g><g stroke-linecap="round" transform="translate(295.70063914763614 277.2080632527668) rotate(0 2.349090576171875 2.349090576171875)"><path d="M4.7 2.35 C4.7 2.49, 4.69 2.62, 4.66 2.76 C4.64 2.89, 4.6 3.02, 4.56 3.15 C4.51 3.28, 4.45 3.41, 4.38 3.52 C4.32 3.64, 4.24 3.75, 4.15 3.86 C4.06 3.96, 3.96 4.06, 3.86 4.15 C3.75 4.24, 3.64 4.32, 3.52 4.38 C3.41 4.45, 3.28 4.51, 3.15 4.56 C3.02 4.6, 2.89 4.64, 2.76 4.66 C2.62 4.69, 2.49 4.7, 2.35 4.7 C2.21 4.7, 2.08 4.69, 1.94 4.66 C1.81 4.64, 1.67 4.6, 1.55 4.56 C1.42 4.51, 1.29 4.45, 1.17 4.38 C1.06 4.32, 0.94 4.24, 0.84 4.15 C0.73 4.06, 0.64 3.96, 0.55 3.86 C0.46 3.75, 0.38 3.64, 0.31 3.52 C0.25 3.41, 0.19 3.28, 0.14 3.15 C0.1 3.02, 0.06 2.89, 0.04 2.76 C0.01 2.62, 0 2.49, 0 2.35 C0 2.21, 0.01 2.08, 0.04 1.94 C0.06 1.81, 0.1 1.67, 0.14 1.55 C0.19 1.42, 0.25 1.29, 0.31 1.17 C0.38 1.06, 0.46 0.94, 0.55 0.84 C0.64 0.73, 0.73 0.64, 0.84 0.55 C0.94 0.46, 1.06 0.38, 1.17 0.31 C1.29 0.25, 1.42 0.19, 1.55 0.14 C1.67 0.1, 1.81 0.06, 1.94 0.04 C2.08 0.01, 2.21 0, 2.35 0 C2.49 0, 2.62 0.01, 2.76 0.04 C2.89 0.06, 3.02 0.1, 3.15 0.14 C3.28 0.19, 3.41 0.25, 3.52 0.31 C3.64 0.38, 3.75 0.46, 3.86 0.55 C3.96 0.64, 4.06 0.73, 4.15 0.84 C4.24 0.94, 4.32 1.06, 4.38 1.17 C4.45 1.29, 4.51 1.42, 4.56 1.55 C4.6 1.67, 4.64 1.81, 4.66 1.94 C4.69 2.08, 4.69 2.28, 4.7 2.35 C4.7 2.42, 4.7 2.28, 4.7 2.35" stroke="none" stroke-width="0" fill="#000"></path><path d="M4.7 2.35 C4.7 2.49, 4.69 2.62, 4.66 2.76 C4.64 2.89, 4.6 3.02, 4.56 3.15 C4.51 3.28, 4.45 3.41, 4.38 3.52 C4.32 3.64, 4.24 3.75, 4.15 3.86 C4.06 3.96, 3.96 4.06, 3.86 4.15 C3.75 4.24, 3.64 4.32, 3.52 4.38 C3.41 4.45, 3.28 4.51, 3.15 4.56 C3.02 4.6, 2.89 4.64, 2.76 4.66 C2.62 4.69, 2.49 4.7, 2.35 4.7 C2.21 4.7, 2.08 4.69, 1.94 4.66 C1.81 4.64, 1.67 4.6, 1.55 4.56 C1.42 4.51, 1.29 4.45, 1.17 4.38 C1.06 4.32, 0.94 4.24, 0.84 4.15 C0.73 4.06, 0.64 3.96, 0.55 3.86 C0.46 3.75, 0.38 3.64, 0.31 3.52 C0.25 3.41, 0.19 3.28, 0.14 3.15 C0.1 3.02, 0.06 2.89, 0.04 2.76 C0.01 2.62, 0 2.49, 0 2.35 C0 2.21, 0.01 2.08, 0.04 1.94 C0.06 1.81, 0.1 1.67, 0.14 1.55 C0.19 1.42, 0.25 1.29, 0.31 1.17 C0.38 1.06, 0.46 0.94, 0.55 0.84 C0.64 0.73, 0.73 0.64, 0.84 0.55 C0.94 0.46, 1.06 0.38, 1.17 0.31 C1.29 0.25, 1.42 0.19, 1.55 0.14 C1.67 0.1, 1.81 0.06, 1.94 0.04 C2.08 0.01, 2.21 0, 2.35 0 C2.49 0, 2.62 0.01, 2.76 0.04 C2.89 0.06, 3.02 0.1, 3.15 0.14 C3.28 0.19, 3.41 0.25, 3.52 0.31 C3.64 0.38, 3.75 0.46, 3.86 0.55 C3.96 0.64, 4.06 0.73, 4.15 0.84 C4.24 0.94, 4.32 1.06, 4.38 1.17 C4.45 1.29, 4.51 1.42, 4.56 1.55 C4.6 1.67, 4.64 1.81, 4.66 1.94 C4.69 2.08, 4.69 2.28, 4.7 2.35 C4.7 2.42, 4.7 2.28, 4.7 2.35" stroke="#000000" stroke-width="1" fill="none"></path></g><g stroke-linecap="round"><g transform="translate(298.19075755583935 279.7810536702473) rotate(0 11.894976049804711 5.825226123046889)"><path d="M0 0 C1.17 1.24, 4.19 5.51, 7.02 7.44 C9.86 9.36, 14.35 11.08, 17 11.53 C19.66 11.98, 21.88 11.08, 22.92 10.14 C23.96 9.2, 24.07 7.29, 23.25 5.89 C22.42 4.49, 18.84 2.45, 17.96 1.76 M0 0 C1.17 1.24, 4.19 5.51, 7.02 7.44 C9.86 9.36, 14.35 11.08, 17 11.53 C19.66 11.98, 21.88 11.08, 22.92 10.14 C23.96 9.2, 24.07 7.29, 23.25 5.89 C22.42 4.49, 18.84 2.45, 17.96 1.76" stroke="#000000" stroke-width="2" fill="none"></path></g></g><g transform="translate(243.5 324.17024460272296) rotate(0 54 20)"><text x="54" y="14" font-family="Virgil, Segoe UI Emoji" font-size="16px" fill="#000000" text-anchor="middle" style="white-space: pre;" direction="ltr">Sudhakar-</text><text x="54" y="34" font-family="Virgil, Segoe UI Emoji" font-size="16px" fill="#000000" text-anchor="middle" style="white-space: pre;" direction="ltr">content-store</text></g><g stroke-linecap="round" transform="translate(664.9595794677734 250) rotate(0 32.540420532226506 32.540420532226506)"><path d="M0 0 C0 0, 0 0, 0 0 M0 0 C0 0, 0 0, 0 0 M0.13 12.04 C2.85 8.91, 5.57 5.78, 10.63 -0.03 M0.13 12.04 C2.55 9.26, 4.97 6.48, 10.63 -0.03 M0.27 24.08 C5.08 18.54, 9.89 13.01, 21.26 -0.07 M0.27 24.08 C7.02 16.31, 13.78 8.53, 21.26 -0.07 M-0.26 36.88 C10.16 24.89, 20.59 12.9, 31.89 -0.1 M-0.26 36.88 C10 25.07, 20.27 13.27, 31.89 -0.1 M-0.12 48.92 C12.86 33.99, 25.84 19.05, 42.52 -0.14 M-0.12 48.92 C11.31 35.77, 22.74 22.61, 42.52 -0.14 M0.01 60.96 C11.6 47.63, 23.18 34.3, 53.15 -0.17 M0.01 60.96 C17.38 40.98, 34.74 21, 53.15 -0.17 M4.08 68.47 C16.06 54.69, 28.03 40.92, 63.78 -0.21 M4.08 68.47 C25.93 43.34, 47.78 18.2, 63.78 -0.21 M14.71 68.44 C30.05 50.79, 45.4 33.14, 70.47 4.29 M14.71 68.44 C35.28 44.78, 55.85 21.11, 70.47 4.29 M25.34 68.4 C41.05 50.33, 56.77 32.25, 69.95 17.08 M25.34 68.4 C35.65 56.54, 45.96 44.68, 69.95 17.08 M35.97 68.37 C43.81 59.35, 51.65 50.33, 70.08 29.12 M35.97 68.37 C48.28 54.2, 60.59 40.04, 70.08 29.12 M46.6 68.33 C55.9 57.64, 65.19 46.94, 70.22 41.16 M46.6 68.33 C53.19 60.75, 59.78 53.17, 70.22 41.16 M57.23 68.3 C60.07 65.03, 62.91 61.76, 70.35 53.2 M57.23 68.3 C60.1 65, 62.97 61.7, 70.35 53.2 M0.23 65.28 C0.23 65.28, 0.23 65.28, 0.23 65.28 M0.23 65.28 C0.23 65.28, 0.23 65.28, 0.23 65.28 M12.27 65.15 C7.81 61.27, 3.34 57.39, 0.19 54.65 M12.27 65.15 C9.16 62.44, 6.05 59.74, 0.19 54.65 M24.31 65.01 C17.47 59.07, 10.63 53.12, 0.16 44.02 M24.31 65.01 C14.99 56.91, 5.66 48.8, 0.16 44.02 M36.35 64.88 C28.26 57.85, 20.17 50.81, 0.13 33.39 M36.35 64.88 C22.09 52.48, 7.83 40.09, 0.13 33.39 M49.15 65.4 C39.32 56.86, 29.49 48.31, 0.09 22.76 M49.15 65.4 C35.59 53.62, 22.03 41.84, 0.09 22.76 M61.19 65.27 C42.1 48.67, 23.01 32.08, 0.06 12.13 M61.19 65.27 C40.27 47.09, 19.35 28.9, 0.06 12.13 M68.7 61.2 C45.03 40.62, 21.35 20.04, 0.02 1.5 M68.7 61.2 C54.14 48.54, 39.58 35.89, 0.02 1.5 M68.67 50.57 C44.89 29.9, 21.11 9.23, 4.52 -5.19 M68.67 50.57 C54.62 38.36, 40.58 26.16, 4.52 -5.19 M68.63 39.94 C50.37 24.06, 32.1 8.19, 16.56 -5.33 M68.63 39.94 C57.77 30.5, 46.9 21.05, 16.56 -5.33 M68.6 29.31 C55.28 17.73, 41.97 6.16, 28.6 -5.46 M68.6 29.31 C55.02 17.51, 41.45 5.71, 28.6 -5.46 M68.56 18.68 C61.69 12.71, 54.83 6.74, 41.39 -4.94 M68.56 18.68 C60.9 12.02, 53.25 5.37, 41.39 -4.94 M68.53 8.05 C63.5 3.68, 58.46 -0.7, 53.43 -5.07 M68.53 8.05 C65.22 5.17, 61.91 2.29, 53.43 -5.07" stroke="#40c05788" stroke-width="1" fill="none"></path><path d="M0 0 C25.14 0, 50.29 0, 65.08 0 M0 0 C15.39 0, 30.79 0, 65.08 0 M65.08 0 C65.08 18.1, 65.08 36.21, 65.08 65.08 M65.08 0 C65.08 22.56, 65.08 45.13, 65.08 65.08 M65.08 65.08 C51.77 65.08, 38.45 65.08, 0 65.08 M65.08 65.08 C50.65 65.08, 36.22 65.08, 0 65.08 M0 65.08 C0 46.3, 0 27.51, 0 0 M0 65.08 C0 42.64, 0 20.2, 0 0" stroke="#000000" stroke-width="2" fill="none"></path></g><g stroke-linecap="round" transform="translate(678.5724346454326 261.06709602551587) rotate(0 19.55281575520837 5.376997727614196)"><path d="M39.11 5.38 C39.11 5.69, 39.01 6, 38.81 6.31 C38.61 6.62, 38.31 6.92, 37.93 7.22 C37.54 7.51, 37.05 7.8, 36.49 8.07 C35.92 8.34, 35.26 8.59, 34.53 8.83 C33.8 9.07, 32.99 9.3, 32.12 9.5 C31.25 9.7, 30.31 9.88, 29.33 10.03 C28.35 10.19, 27.3 10.32, 26.24 10.43 C25.18 10.54, 24.06 10.62, 22.95 10.67 C21.83 10.73, 20.68 10.75, 19.55 10.75 C18.42 10.75, 17.27 10.73, 16.16 10.67 C15.04 10.62, 13.93 10.54, 12.87 10.43 C11.8 10.32, 10.76 10.19, 9.78 10.03 C8.8 9.88, 7.85 9.7, 6.98 9.5 C6.12 9.3, 5.3 9.07, 4.57 8.83 C3.85 8.59, 3.19 8.34, 2.62 8.07 C2.05 7.8, 1.57 7.51, 1.18 7.22 C0.79 6.92, 0.49 6.62, 0.3 6.31 C0.1 6, 0 5.69, 0 5.38 C0 5.07, 0.1 4.75, 0.3 4.44 C0.49 4.14, 0.79 3.83, 1.18 3.54 C1.57 3.25, 2.05 2.96, 2.62 2.69 C3.19 2.42, 3.85 2.16, 4.57 1.92 C5.3 1.68, 6.12 1.46, 6.98 1.26 C7.85 1.06, 8.8 0.88, 9.78 0.72 C10.76 0.56, 11.8 0.43, 12.87 0.32 C13.93 0.22, 15.04 0.14, 16.16 0.08 C17.27 0.03, 18.42 0, 19.55 0 C20.68 0, 21.83 0.03, 22.95 0.08 C24.06 0.14, 25.18 0.22, 26.24 0.32 C27.3 0.43, 28.35 0.56, 29.33 0.72 C30.31 0.88, 31.25 1.06, 32.12 1.26 C32.99 1.46, 33.8 1.68, 34.53 1.92 C35.26 2.16, 35.92 2.42, 36.49 2.69 C37.05 2.96, 37.54 3.25, 37.93 3.54 C38.31 3.83, 38.61 4.14, 38.81 4.44 C39.01 4.75, 39.06 5.22, 39.11 5.38 C39.16 5.53, 39.16 5.22, 39.11 5.38" stroke="#000000" stroke-width="2" fill="none"></path></g><g stroke-linecap="round"><g transform="translate(678.9303510616987 266.9455640743938) rotate(0 19.147886618589723 20.243310703375386)"><path d="M0 0 C0.64 5.36, 2.72 25.82, 3.85 32.15 C4.97 38.48, 4.02 36.6, 6.77 37.99 C9.52 39.38, 16.05 40.42, 20.35 40.49 C24.64 40.56, 30.03 39.82, 32.54 38.4 C35.04 36.98, 34.41 38.33, 35.37 31.94 C36.33 25.56, 37.81 5.41, 38.3 0.1 M0 0 C0.64 5.36, 2.72 25.82, 3.85 32.15 C4.97 38.48, 4.02 36.6, 6.77 37.99 C9.52 39.38, 16.05 40.42, 20.35 40.49 C24.64 40.56, 30.03 39.82, 32.54 38.4 C35.04 36.98, 34.41 38.33, 35.37 31.94 C36.33 25.56, 37.81 5.41, 38.3 0.1" stroke="#000000" stroke-width="2" fill="none"></path></g></g><g stroke-linecap="round" transform="translate(695.7006391476361 277.2080632527668) rotate(0 2.349090576171875 2.349090576171875)"><path d="M4.7 2.35 C4.7 2.49, 4.69 2.62, 4.66 2.76 C4.64 2.89, 4.6 3.02, 4.56 3.15 C4.51 3.28, 4.45 3.41, 4.38 3.52 C4.32 3.64, 4.24 3.75, 4.15 3.86 C4.06 3.96, 3.96 4.06, 3.86 4.15 C3.75 4.24, 3.64 4.32, 3.52 4.38 C3.41 4.45, 3.28 4.51, 3.15 4.56 C3.02 4.6, 2.89 4.64, 2.76 4.66 C2.62 4.69, 2.49 4.7, 2.35 4.7 C2.21 4.7, 2.08 4.69, 1.94 4.66 C1.81 4.64, 1.67 4.6, 1.55 4.56 C1.42 4.51, 1.29 4.45, 1.17 4.38 C1.06 4.32, 0.94 4.24, 0.84 4.15 C0.73 4.06, 0.64 3.96, 0.55 3.86 C0.46 3.75, 0.38 3.64, 0.31 3.52 C0.25 3.41, 0.19 3.28, 0.14 3.15 C0.1 3.02, 0.06 2.89, 0.04 2.76 C0.01 2.62, 0 2.49, 0 2.35 C0 2.21, 0.01 2.08, 0.04 1.94 C0.06 1.81, 0.1 1.67, 0.14 1.55 C0.19 1.42, 0.25 1.29, 0.31 1.17 C0.38 1.06, 0.46 0.94, 0.55 0.84 C0.64 0.73, 0.73 0.64, 0.84 0.55 C0.94 0.46, 1.06 0.38, 1.17 0.31 C1.29 0.25, 1.42 0.19, 1.55 0.14 C1.67 0.1, 1.81 0.06, 1.94 0.04 C2.08 0.01, 2.21 0, 2.35 0 C2.49 0, 2.62 0.01, 2.76 0.04 C2.89 0.06, 3.02 0.1, 3.15 0.14 C3.28 0.19, 3.41 0.25, 3.52 0.31 C3.64 0.38, 3.75 0.46, 3.86 0.55 C3.96 0.64, 4.06 0.73, 4.15 0.84 C4.24 0.94, 4.32 1.06, 4.38 1.17 C4.45 1.29, 4.51 1.42, 4.56 1.55 C4.6 1.67, 4.64 1.81, 4.66 1.94 C4.69 2.08, 4.69 2.28, 4.7 2.35 C4.7 2.42, 4.7 2.28, 4.7 2.35" stroke="none" stroke-width="0" fill="#000"></path><path d="M4.7 2.35 C4.7 2.49, 4.69 2.62, 4.66 2.76 C4.64 2.89, 4.6 3.02, 4.56 3.15 C4.51 3.28, 4.45 3.41, 4.38 3.52 C4.32 3.64, 4.24 3.75, 4.15 3.86 C4.06 3.96, 3.96 4.06, 3.86 4.15 C3.75 4.24, 3.64 4.32, 3.52 4.38 C3.41 4.45, 3.28 4.51, 3.15 4.56 C3.02 4.6, 2.89 4.64, 2.76 4.66 C2.62 4.69, 2.49 4.7, 2.35 4.7 C2.21 4.7, 2.08 4.69, 1.94 4.66 C1.81 4.64, 1.67 4.6, 1.55 4.56 C1.42 4.51, 1.29 4.45, 1.17 4.38 C1.06 4.32, 0.94 4.24, 0.84 4.15 C0.73 4.06, 0.64 3.96, 0.55 3.86 C0.46 3.75, 0.38 3.64, 0.31 3.52 C0.25 3.41, 0.19 3.28, 0.14 3.15 C0.1 3.02, 0.06 2.89, 0.04 2.76 C0.01 2.62, 0 2.49, 0 2.35 C0 2.21, 0.01 2.08, 0.04 1.94 C0.06 1.81, 0.1 1.67, 0.14 1.55 C0.19 1.42, 0.25 1.29, 0.31 1.17 C0.38 1.06, 0.46 0.94, 0.55 0.84 C0.64 0.73, 0.73 0.64, 0.84 0.55 C0.94 0.46, 1.06 0.38, 1.17 0.31 C1.29 0.25, 1.42 0.19, 1.55 0.14 C1.67 0.1, 1.81 0.06, 1.94 0.04 C2.08 0.01, 2.21 0, 2.35 0 C2.49 0, 2.62 0.01, 2.76 0.04 C2.89 0.06, 3.02 0.1, 3.15 0.14 C3.28 0.19, 3.41 0.25, 3.52 0.31 C3.64 0.38, 3.75 0.46, 3.86 0.55 C3.96 0.64, 4.06 0.73, 4.15 0.84 C4.24 0.94, 4.32 1.06, 4.38 1.17 C4.45 1.29, 4.51 1.42, 4.56 1.55 C4.6 1.67, 4.64 1.81, 4.66 1.94 C4.69 2.08, 4.69 2.28, 4.7 2.35 C4.7 2.42, 4.7 2.28, 4.7 2.35" stroke="#000000" stroke-width="1" fill="none"></path></g><g stroke-linecap="round"><g transform="translate(698.1907575558394 279.7810536702473) rotate(0 11.894976049804711 5.825226123046889)"><path d="M0 0 C1.17 1.24, 4.19 5.51, 7.02 7.44 C9.86 9.36, 14.35 11.08, 17 11.53 C19.66 11.98, 21.88 11.08, 22.92 10.14 C23.96 9.2, 24.07 7.29, 23.25 5.89 C22.42 4.49, 18.84 2.45, 17.96 1.76 M0 0 C1.17 1.24, 4.19 5.51, 7.02 7.44 C9.86 9.36, 14.35 11.08, 17 11.53 C19.66 11.98, 21.88 11.08, 22.92 10.14 C23.96 9.2, 24.07 7.29, 23.25 5.89 C22.42 4.49, 18.84 2.45, 17.96 1.76" stroke="#000000" stroke-width="2" fill="none"></path></g></g><g transform="translate(650 321.67024460272296) rotate(0 47.5 10)"><text x="47.5" y="14" font-family="Virgil, Segoe UI Emoji" font-size="16px" fill="#000000" text-anchor="middle" style="white-space: pre;" direction="ltr">pdftxt-inter</text></g><g stroke-linecap="round"><g transform="translate(50 290) rotate(0 107.31180511426646 0.2575183559115999)"><path d="M0.63 0.34 C36.34 0.11, 179.69 -0.26, 215.13 -0.33 M-0.5 -0.52 C35.08 -0.07, 178.75 0.75, 214.79 1.04" stroke="#000000" stroke-width="1" fill="none"></path></g><g transform="translate(50 290) rotate(0 107.31180511426646 0.2575183559115999)"><path d="M187.1 13.05 C196.33 6.03, 207.22 3.54, 216.37 0.86 M186.88 11.4 C192.34 9.58, 200.14 6.26, 215.23 0.64" stroke="#000000" stroke-width="1" fill="none"></path></g><g transform="translate(50 290) rotate(0 107.31180511426646 0.2575183559115999)"><path d="M187.24 -7.47 C196.61 -6.91, 207.44 -1.83, 216.37 0.86 M187.02 -9.12 C192.26 -6.4, 200.03 -5.18, 215.23 0.64" stroke="#000000" stroke-width="1" fill="none"></path></g></g><g stroke-linecap="round" transform="translate(90 230) rotate(0 60 32)"><path d="M-0.8 0.26 C49.53 -1.93, 95.54 -0.45, 121.25 -1.36 M-0.22 0.43 C39.37 1.61, 80.15 0.29, 119.18 -0.81 M118.22 1.23 C120.47 15.6, 121.29 26.77, 121.35 62.72 M120.52 -0.84 C119.25 18.2, 120.41 37.49, 120.97 64.86 M118.47 62.5 C80.19 61.23, 43.79 63.25, 1.4 65.01 M120.38 64.35 C75.57 62.33, 29.72 63.26, 0.94 64.62 M-0.37 64.03 C-1.42 40.54, 2.42 16.39, 1.33 1.2 M0.44 64.1 C0.2 42.91, 0.01 21.81, 0.08 0.67" stroke="#000000" stroke-width="1" fill="none"></path></g><g transform="translate(95 235) rotate(0 55 27)"><text x="55" y="14" font-family="Helvetica, Segoe UI Emoji" font-size="16px" fill="#000000" text-anchor="middle" style="white-space: pre;" direction="ltr">Upload PDF </text><text x="55" y="32" font-family="Helvetica, Segoe UI Emoji" font-size="16px" fill="#000000" text-anchor="middle" style="white-space: pre;" direction="ltr">Tax </text><text x="55" y="50" font-family="Helvetica, Segoe UI Emoji" font-size="16px" fill="#000000" text-anchor="middle" style="white-space: pre;" direction="ltr">Documents</text></g><g stroke-linecap="round" transform="translate(467.76942381752133 250) rotate(0 32.2305761824785 32.199712367130076)"><path d="M0 0 C0 0, 0 0, 0 0 M0 0 C0 0, 0 0, 0 0 M0.13 12.04 C2.76 9.02, 5.39 6, 10.63 -0.03 M0.13 12.04 C3.08 8.65, 6.03 5.26, 10.63 -0.03 M0.27 24.08 C8 15.18, 15.74 6.28, 21.26 -0.07 M0.27 24.08 C6.57 16.83, 12.87 9.58, 21.26 -0.07 M-0.26 36.88 C7.99 27.39, 16.24 17.9, 31.89 -0.1 M-0.26 36.88 C7.35 28.12, 14.97 19.37, 31.89 -0.1 M-0.12 48.92 C11.06 36.05, 22.24 23.19, 42.52 -0.14 M-0.12 48.92 C14.75 31.81, 29.61 14.71, 42.52 -0.14 M0.01 60.96 C11.77 47.43, 23.53 33.91, 53.15 -0.17 M0.01 60.96 C10.99 48.32, 21.98 35.69, 53.15 -0.17 M4.08 68.47 C19.4 50.85, 34.72 33.22, 63.78 -0.21 M4.08 68.47 C21.63 48.28, 39.19 28.09, 63.78 -0.21 M14.71 68.44 C35.59 44.41, 56.47 20.39, 69.82 5.04 M14.71 68.44 C26.08 55.35, 37.45 42.27, 69.82 5.04 M25.34 68.4 C38.11 53.72, 50.87 39.03, 69.95 17.08 M25.34 68.4 C36.58 55.47, 47.82 42.55, 69.95 17.08 M35.97 68.37 C48.38 54.09, 60.8 39.81, 70.08 29.12 M35.97 68.37 C44.55 58.5, 53.12 48.64, 70.08 29.12 M46.6 68.33 C53.33 60.59, 60.07 52.84, 70.22 41.16 M46.6 68.33 C54.58 59.15, 62.56 49.97, 70.22 41.16 M57.23 68.3 C59.85 65.28, 62.48 62.26, 69.69 53.96 M57.23 68.3 C61.68 63.17, 66.14 58.05, 69.69 53.96 M-0.19 64.24 C-0.19 64.24, -0.19 64.24, -0.19 64.24 M-0.19 64.24 C-0.19 64.24, -0.19 64.24, -0.19 64.24 M11.85 64.1 C7.59 60.39, 3.32 56.69, -0.22 53.61 M11.85 64.1 C7.75 60.53, 3.64 56.96, -0.22 53.61 M24.65 64.63 C16.45 57.5, 8.25 50.37, -0.26 42.98 M24.65 64.63 C15.75 56.89, 6.86 49.16, -0.26 42.98 M36.69 64.49 C28.32 57.22, 19.95 49.94, -0.29 32.35 M36.69 64.49 C28.74 57.58, 20.79 50.68, -0.29 32.35 M48.73 64.36 C36.82 54, 24.91 43.65, -0.33 21.72 M48.73 64.36 C32.96 50.65, 17.19 36.94, -0.33 21.72 M60.77 64.23 C44.62 50.19, 28.47 36.15, -0.36 11.09 M60.77 64.23 C36.46 43.1, 12.16 21.97, -0.36 11.09 M68.28 60.16 C50.39 44.6, 32.49 29.04, 0.36 1.11 M68.28 60.16 C49.5 43.83, 30.72 27.5, 0.36 1.11 M68.25 49.53 C49.15 32.92, 30.05 16.32, 4.85 -5.58 M68.25 49.53 C48.99 32.78, 29.72 16.04, 4.85 -5.58 M68.21 38.9 C51.51 24.37, 34.8 9.85, 16.89 -5.72 M68.21 38.9 C50.88 23.83, 33.54 8.75, 16.89 -5.72 M68.18 28.27 C53.59 15.58, 38.99 2.89, 28.93 -5.85 M68.18 28.27 C54.48 16.35, 40.77 4.44, 28.93 -5.85 M68.15 17.64 C58.55 9.29, 48.95 0.95, 41.73 -5.33 M68.15 17.64 C62.31 12.56, 56.47 7.48, 41.73 -5.33 M68.11 7.01 C63.66 3.14, 59.21 -0.73, 53.77 -5.46 M68.11 7.01 C63.1 2.65, 58.1 -1.7, 53.77 -5.46" stroke="#fd7e1488" stroke-width="1" fill="none"></path><path d="M0 0 C22.44 0, 44.89 0, 64.46 0 M0 0 C24.51 0, 49.03 0, 64.46 0 M64.46 0 C64.46 24.22, 64.46 48.43, 64.46 64.4 M64.46 0 C64.46 22.48, 64.46 44.97, 64.46 64.4 M64.46 64.4 C42.16 64.4, 19.87 64.4, 0 64.4 M64.46 64.4 C49.53 64.4, 34.59 64.4, 0 64.4 M0 64.4 C0 40.68, 0 16.97, 0 0 M0 64.4 C0 43.56, 0 22.72, 0 0" stroke="#000000" stroke-width="2" fill="none"></path></g><g stroke-linecap="round"><g transform="translate(492.7606313679685 276.73746578509895) rotate(0 -3.076774100000023 13.448499999999996)"><path d="M0 0 C-2.9 5.8, -5.8 11.6, -12.73 25.47 M0 0 C-3.32 6.63, -6.63 13.27, -12.73 25.47 M-12.73 25.47 C-9.98 25.79, -7.23 26.11, -0.52 26.9 M-12.73 25.47 C-9.8 25.81, -6.88 26.15, -0.52 26.9 M-0.52 26.9 C1.88 22.25, 4.29 17.61, 6.58 13.18 M-0.52 26.9 C1.35 23.29, 3.22 19.68, 6.58 13.18 M6.58 13.18 C4.44 8.44, 2.31 3.7, 0.9 0.56 M6.58 13.18 C5.35 10.45, 4.12 7.71, 0.9 0.56" stroke="#000000" stroke-width="2" fill="none"></path></g></g><g stroke-linecap="round"><g transform="translate(517.2473515679685 292.6344657850989) rotate(0 -12.746280000000013 -11)"><path d="M0 0 C-3.49 -7.55, -6.97 -15.11, -14.96 -32.42 M0 0 C-4.21 -9.13, -8.43 -18.27, -14.96 -32.42 M-14.96 -32.42 C-19.33 -32.6, -23.69 -32.78, -29.17 -33 M-14.96 -32.42 C-19.88 -32.62, -24.81 -32.82, -29.17 -33 M-29.17 -33 C-29.48 -29.95, -29.79 -26.9, -30.18 -23 M-29.17 -33 C-29.54 -29.38, -29.9 -25.77, -30.18 -23 M-30.18 -23 C-27.27 -22.6, -24.36 -22.2, -22.9 -22 M-30.18 -23 C-27.55 -22.64, -24.92 -22.28, -22.9 -22 M-22.9 -22 C-19.13 -13.86, -15.35 -5.73, -7.87 10.42 M-22.9 -22 C-18.54 -12.59, -14.17 -3.18, -7.87 10.42 M-7.87 10.42 C-5.46 10.54, -3.06 10.66, 3.69 11 M-7.87 10.42 C-5.47 10.54, -3.08 10.66, 3.69 11 M3.69 11 C3.99 7.94, 4.3 4.89, 4.69 1 M3.69 11 C3.97 8.17, 4.25 5.34, 4.69 1 M4.69 1 C4.42 0.73, 4.15 0.47, 3.69 0 M4.69 1 C4.49 0.8, 4.29 0.6, 3.69 0" stroke="#000000" stroke-width="2" fill="none"></path></g></g><g transform="translate(450 321.86282958478273) rotate(0 50 10)"><text x="50" y="14" font-family="Virgil, Segoe UI Emoji" font-size="16px" fill="#000000" text-anchor="middle" style="white-space: pre;" direction="ltr">PDF Lambda</text></g><g stroke-linecap="round"><g transform="translate(331.04042053222656 290) rotate(0 65.22816824913025 0.3934682084433234)"><path d="M-1.1 -0.74 C21.03 -0.72, 109.46 -0.73, 131.55 -0.71 M0.53 1.49 C22.56 1.72, 108.74 0.64, 130.39 0.46" stroke="#000000" stroke-width="1" fill="none"></path></g><g transform="translate(331.04042053222656 290) rotate(0 65.22816824913025 0.3934682084433234)"><path d="M101.08 10.33 C106.84 8.3, 112.68 8.6, 131.69 1.25 M103.07 10.2 C111.92 6.76, 122.83 2.45, 129.58 0.6" stroke="#000000" stroke-width="1" fill="none"></path></g><g transform="translate(331.04042053222656 290) rotate(0 65.22816824913025 0.3934682084433234)"><path d="M100.87 -10.19 C106.54 -8.1, 112.42 -3.67, 131.69 1.25 M102.86 -10.32 C111.91 -6.2, 122.9 -2.95, 129.58 0.6" stroke="#000000" stroke-width="1" fill="none"></path></g></g><g transform="translate(350 270) rotate(0 28 10)"><text x="28" y="14" font-family="Virgil, Segoe UI Emoji" font-size="16px" fill="#000000" text-anchor="middle" style="white-space: pre;" direction="ltr">Trigger</text></g><g stroke-linecap="round"><g transform="translate(530 290) rotate(0 70 0)"><path d="M0 0 C23.33 0, 116.67 0, 140 0 M0 0 C23.33 0, 116.67 0, 140 0" stroke="#000000" stroke-width="1" fill="none"></path></g><g transform="translate(530 290) rotate(0 70 0)"><path d="M140 0 L126.41 6.34 L126.41 -6.34 L140 0" stroke="none" stroke-width="0" fill="#000000" fill-rule="evenodd"></path><path d="M140 0 C137.22 1.3, 134.44 2.59, 126.41 6.34 M140 0 C135.92 1.9, 131.85 3.8, 126.41 6.34 M126.41 6.34 C126.41 1.74, 126.41 -2.86, 126.41 -6.34 M126.41 6.34 C126.41 1.9, 126.41 -2.53, 126.41 -6.34 M126.41 -6.34 C131.32 -4.05, 136.24 -1.76, 140 0 M126.41 -6.34 C129.42 -4.93, 132.44 -3.53, 140 0 M140 0 C140 0, 140 0, 140 0 M140 0 C140 0, 140 0, 140 0" stroke="#000000" stroke-width="1" fill="none"></path></g></g><g transform="translate(570 270) rotate(0 27.75 10.591603053435108)"><text x="27.749999999999986" y="15.183206106870223" font-family="Virgil, Segoe UI Emoji" font-size="16.946564885496176px" fill="#000000" text-anchor="middle" style="white-space: pre;" direction="ltr">Upload</text></g><g stroke-linecap="round" transform="translate(847.7694238175213 250) rotate(0 32.230576182478444 32.199712367130076)"><path d="M0 0 C0 0, 0 0, 0 0 M0 0 C0 0, 0 0, 0 0 M0.13 12.04 C2.33 9.51, 4.54 6.98, 10.63 -0.03 M0.13 12.04 C3.78 7.84, 7.43 3.65, 10.63 -0.03 M0.27 24.08 C6.44 16.98, 12.61 9.88, 21.26 -0.07 M0.27 24.08 C8.51 14.6, 16.75 5.12, 21.26 -0.07 M-0.26 36.88 C8.12 27.24, 16.5 17.6, 31.89 -0.1 M-0.26 36.88 C6.86 28.69, 13.98 20.5, 31.89 -0.1 M-0.12 48.92 C8.64 38.83, 17.41 28.75, 42.52 -0.14 M-0.12 48.92 C9.77 37.54, 19.67 26.15, 42.52 -0.14 M0.01 60.96 C17.91 40.37, 35.8 19.79, 53.15 -0.17 M0.01 60.96 C16.49 42, 32.96 23.05, 53.15 -0.17 M4.08 68.47 C26.47 42.72, 48.86 16.96, 63.78 -0.21 M4.08 68.47 C17.72 52.78, 31.36 37.09, 63.78 -0.21 M14.71 68.44 C34.19 46.03, 53.67 23.62, 69.82 5.04 M14.71 68.44 C28.37 52.72, 42.03 37.01, 69.82 5.04 M25.34 68.4 C35.06 57.22, 44.78 46.03, 69.95 17.08 M25.34 68.4 C39.45 52.17, 53.56 35.94, 69.95 17.08 M35.97 68.37 C43.7 59.48, 51.43 50.59, 70.08 29.12 M35.97 68.37 C45.16 57.8, 54.34 47.23, 70.08 29.12 M46.6 68.33 C54.87 58.82, 63.13 49.32, 70.22 41.16 M46.6 68.33 C52.03 62.09, 57.46 55.84, 70.22 41.16 M57.23 68.3 C60.61 64.41, 64 60.51, 69.69 53.96 M57.23 68.3 C59.83 65.31, 62.43 62.32, 69.69 53.96 M-0.19 64.24 C-0.19 64.24, -0.19 64.24, -0.19 64.24 M-0.19 64.24 C-0.19 64.24, -0.19 64.24, -0.19 64.24 M11.85 64.1 C9.39 61.96, 6.93 59.82, -0.22 53.61 M11.85 64.1 C8.23 60.95, 4.6 57.8, -0.22 53.61 M24.65 64.63 C16.08 57.18, 7.52 49.73, -0.26 42.98 M24.65 64.63 C17.88 58.74, 11.12 52.86, -0.26 42.98 M36.69 64.49 C24.13 53.57, 11.57 42.65, -0.29 32.35 M36.69 64.49 C22.69 52.33, 8.7 40.16, -0.29 32.35 M48.73 64.36 C37.1 54.25, 25.48 44.14, -0.33 21.72 M48.73 64.36 C35.55 52.9, 22.37 41.44, -0.33 21.72 M60.77 64.23 C36.68 43.28, 12.58 22.34, -0.36 11.09 M60.77 64.23 C43.79 49.46, 26.81 34.7, -0.36 11.09 M68.28 60.16 C49.15 43.52, 30.01 26.88, 0.36 1.11 M68.28 60.16 C52.74 46.64, 37.19 33.12, 0.36 1.11 M68.25 49.53 C50.3 33.93, 32.36 18.33, 4.85 -5.58 M68.25 49.53 C53.51 36.71, 38.76 23.9, 4.85 -5.58 M68.21 38.9 C53.14 25.79, 38.07 12.69, 16.89 -5.72 M68.21 38.9 C53.5 26.1, 38.78 13.31, 16.89 -5.72 M68.18 28.27 C55.54 17.28, 42.91 6.3, 28.93 -5.85 M68.18 28.27 C57.31 18.81, 46.43 9.36, 28.93 -5.85 M68.15 17.64 C60.52 11.01, 52.9 4.38, 41.73 -5.33 M68.15 17.64 C58.2 8.99, 48.25 0.34, 41.73 -5.33 M68.11 7.01 C64.86 4.18, 61.61 1.36, 53.77 -5.46 M68.11 7.01 C64.59 3.94, 61.06 0.88, 53.77 -5.46" stroke="#fd7e1488" stroke-width="1" fill="none"></path><path d="M0 0 C22.57 0, 45.14 0, 64.46 0 M0 0 C17.55 0, 35.1 0, 64.46 0 M64.46 0 C64.46 20.63, 64.46 41.26, 64.46 64.4 M64.46 0 C64.46 19.75, 64.46 39.49, 64.46 64.4 M64.46 64.4 C39.84 64.4, 15.23 64.4, 0 64.4 M64.46 64.4 C48.54 64.4, 32.61 64.4, 0 64.4 M0 64.4 C0 47.13, 0 29.87, 0 0 M0 64.4 C0 48.04, 0 31.68, 0 0" stroke="#000000" stroke-width="2" fill="none"></path></g><g stroke-linecap="round"><g transform="translate(872.7606313679685 276.73746578509895) rotate(0 -3.076774099999966 13.448499999999996)"><path d="M0 0 C-4.89 9.78, -9.77 19.55, -12.73 25.47 M0 0 C-4.74 9.48, -9.48 18.96, -12.73 25.47 M-12.73 25.47 C-10.14 25.77, -7.54 26.07, -0.52 26.9 M-12.73 25.47 C-9.7 25.82, -6.66 26.18, -0.52 26.9 M-0.52 26.9 C1.62 22.76, 3.76 18.63, 6.58 13.18 M-0.52 26.9 C1.62 22.76, 3.76 18.63, 6.58 13.18 M6.58 13.18 C4.88 9.42, 3.19 5.65, 0.9 0.56 M6.58 13.18 C4.94 9.54, 3.3 5.89, 0.9 0.56" stroke="#000000" stroke-width="2" fill="none"></path></g></g><g stroke-linecap="round"><g transform="translate(897.2473515679685 292.6344657850989) rotate(0 -12.74628000000007 -11)"><path d="M0 0 C-3.85 -8.33, -7.69 -16.67, -14.96 -32.42 M0 0 C-4.04 -8.76, -8.09 -17.53, -14.96 -32.42 M-14.96 -32.42 C-19.31 -32.6, -23.66 -32.78, -29.17 -33 M-14.96 -32.42 C-18.42 -32.56, -21.87 -32.7, -29.17 -33 M-29.17 -33 C-29.57 -29.04, -29.97 -25.07, -30.18 -23 M-29.17 -33 C-29.43 -30.46, -29.68 -27.93, -30.18 -23 M-30.18 -23 C-27.28 -22.6, -24.38 -22.2, -22.9 -22 M-30.18 -23 C-27.81 -22.68, -25.45 -22.35, -22.9 -22 M-22.9 -22 C-18.46 -12.44, -14.03 -2.87, -7.87 10.42 M-22.9 -22 C-17.38 -10.09, -11.85 1.82, -7.87 10.42 M-7.87 10.42 C-3.45 10.64, 0.97 10.86, 3.69 11 M-7.87 10.42 C-3.48 10.64, 0.9 10.86, 3.69 11 M3.69 11 C3.96 8.31, 4.22 5.63, 4.69 1 M3.69 11 C3.93 8.54, 4.18 6.08, 4.69 1 M4.69 1 C4.41 0.73, 4.14 0.45, 3.69 0 M4.69 1 C4.35 0.66, 4.01 0.32, 3.69 0" stroke="#000000" stroke-width="2" fill="none"></path></g></g><g transform="translate(850 321.86282958478273) rotate(0 30 20)"><text x="30" y="14" font-family="Virgil, Segoe UI Emoji" font-size="16px" fill="#000000" text-anchor="middle" style="white-space: pre;" direction="ltr">Upload </text><text x="30" y="34" font-family="Virgil, Segoe UI Emoji" font-size="16px" fill="#000000" text-anchor="middle" style="white-space: pre;" direction="ltr">Lambda</text></g><g stroke-linecap="round"><g transform="translate(730 290) rotate(0 60 0)"><path d="M0 0 C20 0, 100 0, 120 0 M0 0 C20 0, 100 0, 120 0" stroke="#000000" stroke-width="1" fill="none"></path></g><g transform="translate(730 290) rotate(0 60 0)"><path d="M120 0 L106.41 6.34 L106.41 -6.34 L120 0" stroke="none" stroke-width="0" fill="#000000" fill-rule="evenodd"></path><path d="M120 0 C116.29 1.73, 112.58 3.46, 106.41 6.34 M120 0 C116.18 1.78, 112.37 3.56, 106.41 6.34 M106.41 6.34 C106.41 3.49, 106.41 0.64, 106.41 -6.34 M106.41 6.34 C106.41 2.5, 106.41 -1.33, 106.41 -6.34 M106.41 -6.34 C111.7 -3.87, 116.99 -1.4, 120 0 M106.41 -6.34 C109.67 -4.82, 112.93 -3.3, 120 0 M120 0 C120 0, 120 0, 120 0 M120 0 C120 0, 120 0, 120 0" stroke="#000000" stroke-width="1" fill="none"></path></g></g><g transform="translate(750 270) rotate(0 28 10)"><text x="28" y="14" font-family="Virgil, Segoe UI Emoji" font-size="16px" fill="#000000" text-anchor="middle" style="white-space: pre;" direction="ltr">Trigger</text></g><g transform="translate(930 250) rotate(0 151.5 50)"><text x="0" y="19" font-family="Helvetica, Segoe UI Emoji" font-size="21.263261222486506px" fill="#000000" text-anchor="start" style="white-space: pre;" direction="ltr">Reads JSON document from</text><text x="0" y="44" font-family="Helvetica, Segoe UI Emoji" font-size="21.263261222486506px" fill="#000000" text-anchor="start" style="white-space: pre;" direction="ltr">pdftxt-inter S3 bucket and </text><text x="0" y="69" font-family="Helvetica, Segoe UI Emoji" font-size="21.263261222486506px" fill="#000000" text-anchor="start" style="white-space: pre;" direction="ltr">uploads to OpenSearch Domain</text><text x="0" y="94" font-family="Helvetica, Segoe UI Emoji" font-size="21.263261222486506px" fill="#000000" text-anchor="start" style="white-space: pre;" direction="ltr">index: taxforms</text></g><g stroke-linecap="round" transform="translate(850 470) rotate(0 50 50)"><path d="M10.8 19.99 C10.8 19.99, 10.8 19.99, 10.8 19.99 M10.8 19.99 C10.8 19.99, 10.8 19.99, 10.8 19.99 M7.85 31.36 C10.01 28.35, 15.89 21.29, 24.75 7.75 M6.09 31.61 C14.49 21.93, 22.02 13.43, 26.47 8.9 M3.68 44.45 C12.61 29.67, 22.55 17.98, 33.26 7.64 M0.83 43.26 C11.25 33.55, 18.27 22.32, 32 6.73 M5.08 46.49 C16.38 31.72, 30.74 18.52, 38.92 6.42 M2.67 46.55 C12.16 35.24, 21.68 23.78, 38.44 5.99 M5.24 52.99 C14.96 36.58, 26.39 24.47, 46.39 3.06 M3.14 52.24 C18.27 36.03, 30.95 20.71, 44.39 5.25 M4.81 58.66 C16.32 40.8, 31.84 25.51, 49.91 3.01 M5.8 57.65 C21.23 37.56, 39.37 17.85, 50.67 4.97 M3.37 63.71 C20.68 42.99, 40.29 22.89, 56.63 2.49 M5.83 62.99 C25.32 41.24, 44.15 19.68, 57.6 1.73 M5.41 67.1 C23.13 47.36, 38.87 29.8, 61.37 2.98 M5.89 68.59 C18.37 54.57, 29.97 42, 61.84 4.76 M7.03 72.54 C21.68 58.35, 36.56 39.69, 65.72 5.91 M6.91 72.92 C27.82 48.47, 48.02 26.19, 65.41 4.62 M11.17 76.23 C34.2 48.47, 57.04 21, 68.95 7.75 M9.26 76.27 C28.45 55.08, 46.4 33.17, 70.64 6.27 M12.47 79.64 C29.01 56.15, 50.1 34.45, 73.22 5.96 M11.64 79.64 C31.98 55.81, 52.67 32.23, 75.39 7.04 M16.41 80.73 C30.97 65.9, 45.67 45.38, 78.95 7.75 M14.24 81.85 C39.45 55.1, 61.72 28.4, 78.39 9.39 M16.07 86.22 C39.8 63.26, 59.34 38.04, 84.13 10.85 M17.45 85.85 C37.87 63.39, 57.08 40.8, 82.59 11.65 M21.45 89.56 C34.74 73.53, 48.35 59.49, 85.03 14.7 M21.21 88.73 C41.42 65.53, 60.64 42.89, 85.81 13.29 M22.14 92.97 C45.71 65.71, 70.99 37.27, 86.13 18.27 M23.67 91.7 C40.41 69.95, 59.47 49.24, 86.71 16.63 M25.93 91.9 C41.95 75.91, 55.93 62.02, 88.84 19.76 M27.82 92.58 C43.41 73.12, 58.59 55.88, 89.54 20.63 M29.62 93.56 C43.59 79.15, 57.72 61.53, 92.82 23.15 M30.27 94.33 C50.51 70.83, 68.94 48.53, 91.39 23.36 M35.51 95.18 C48.44 81.12, 58.47 67.38, 95.99 26.12 M33.78 97.29 C53.76 75.06, 72.66 52.68, 94.25 28.04 M39.53 96.45 C60.51 71, 84.1 48.57, 97.86 32.92 M37.32 97.67 C60.23 73.11, 83.93 45.19, 96.31 31.75 M44.49 98.1 C58.87 80.24, 77.75 60.49, 96.84 36.73 M43.41 100.04 C55.34 86.37, 65.21 71.41, 97.31 35.95 M45.51 100.82 C59.81 86.29, 73.35 72.71, 98.24 39.78 M45.47 100.36 C64.23 81.61, 80.69 62.17, 98.51 42.47 M51.85 102.58 C65.92 87.29, 77.55 70.5, 100.99 46.76 M51.72 101.21 C64.93 87.38, 76.39 74.29, 99.38 47.01 M59.14 99.59 C69.69 89.81, 80.41 76.25, 98.25 52.15 M57.34 98.79 C72.98 82.77, 88.43 65.34, 100.29 50.41 M65.87 97.06 C73.24 90.87, 79.76 78.51, 101.43 56.15 M65.03 97.7 C78 83.9, 91.6 68.29, 100.46 56.62 M70.12 96.45 C75.64 91.33, 83.45 81.68, 99.6 66.01 M71.66 96.14 C79.55 88.65, 84.94 81.36, 97.4 66" stroke="#12b886" stroke-width="0.5" fill="none"></path><path d="M55.6 1.04 C63.69 0.98, 73.76 3.76, 80.27 8.59 C86.78 13.42, 91.54 22.4, 94.66 30.02 C97.77 37.64, 99.77 46, 98.97 54.3 C98.16 62.59, 94.56 72.82, 89.83 79.79 C85.09 86.77, 78.1 92.78, 70.55 96.13 C62.99 99.48, 52.64 100.95, 44.47 99.9 C36.3 98.86, 28.21 94.65, 21.54 89.87 C14.87 85.09, 7.89 78.71, 4.45 71.22 C1.02 63.73, -0.09 53.42, 0.92 44.94 C1.92 36.46, 5.6 26.96, 10.49 20.35 C15.39 13.73, 22.33 8.55, 30.3 5.27 C38.26 1.99, 53.28 1.16, 58.31 0.65 C63.34 0.14, 60.53 1.53, 60.47 2.21 M62.96 2.57 C71.03 3.5, 80.16 7.13, 86.26 12.78 C92.36 18.43, 97.31 28.4, 99.58 36.48 C101.86 44.56, 102.18 53.26, 99.92 61.26 C97.66 69.26, 91.93 78.5, 86.01 84.45 C80.09 90.4, 72.65 94.39, 64.41 96.96 C56.16 99.53, 44.75 101.96, 36.52 99.88 C28.3 97.79, 20.96 90.74, 15.07 84.44 C9.18 78.13, 3.57 70.06, 1.19 62.05 C-1.19 54.04, -1.46 44.43, 0.79 36.38 C3.05 28.33, 8.91 19.59, 14.69 13.74 C20.48 7.88, 27.35 3.17, 35.51 1.25 C43.66 -0.67, 59.21 1.84, 63.61 2.21 C68 2.58, 62.21 2.7, 61.89 3.45" stroke="#000000" stroke-width="1" fill="none"></path></g><g transform="translate(855 493) rotate(0 45 27)"><text x="45" y="14" font-family="Helvetica, Segoe UI Emoji" font-size="16px" fill="#000000" text-anchor="middle" style="white-space: pre;" direction="ltr">Open </text><text x="45" y="32" font-family="Helvetica, Segoe UI Emoji" font-size="16px" fill="#000000" text-anchor="middle" style="white-space: pre;" direction="ltr">Search </text><text x="45" y="50" font-family="Helvetica, Segoe UI Emoji" font-size="16px" fill="#000000" text-anchor="middle" style="white-space: pre;" direction="ltr">Domain</text></g><g stroke-linecap="round"><g transform="translate(892.3743084453149 330) rotate(0 0.10495097391810759 69.77101832957305)"><path d="M0 0 C0.03 23.26, 0.17 116.29, 0.21 139.54 M0 0 C0.03 23.26, 0.17 116.29, 0.21 139.54" stroke="#000000" stroke-width="1" fill="none"></path></g><g transform="translate(892.3743084453149 330) rotate(0 0.10495097391810759 69.77101832957305)"><path d="M0.21 139.54 L-6.15 125.96 L6.53 125.94 L0.21 139.54" stroke="none" stroke-width="0" fill="#000000" fill-rule="evenodd"></path><path d="M0.21 139.54 C-1.56 135.76, -3.33 131.97, -6.15 125.96 M0.21 139.54 C-1.53 135.82, -3.27 132.1, -6.15 125.96 M-6.15 125.96 C-1.56 125.95, 3.03 125.94, 6.53 125.94 M-6.15 125.96 C-3 125.95, 0.15 125.95, 6.53 125.94 M6.53 125.94 C5.1 129.02, 3.66 132.11, 0.21 139.54 M6.53 125.94 C4.17 131.01, 1.81 136.09, 0.21 139.54 M0.21 139.54 C0.21 139.54, 0.21 139.54, 0.21 139.54 M0.21 139.54 C0.21 139.54, 0.21 139.54, 0.21 139.54" stroke="#000000" stroke-width="1" fill="none"></path></g></g><g transform="translate(791 390) rotate(0 75.5 22)"><text x="75.5" y="17" font-family="Helvetica, Segoe UI Emoji" font-size="18.32061068702291px" fill="#000000" text-anchor="middle" style="white-space: pre;" direction="ltr">Upload </text><text x="75.5" y="39" font-family="Helvetica, Segoe UI Emoji" font-size="18.32061068702291px" fill="#000000" text-anchor="middle" style="white-space: pre;" direction="ltr">to index : taxforms</text></g><g transform="translate(390 90) rotate(0 120 75)"><text x="0" y="19" font-family="Helvetica, Segoe UI Emoji" font-size="21.263261222486506px" fill="#000000" text-anchor="start" style="white-space: pre;" direction="ltr">Reads the Content Store </text><text x="0" y="44" font-family="Helvetica, Segoe UI Emoji" font-size="21.263261222486506px" fill="#000000" text-anchor="start" style="white-space: pre;" direction="ltr">S3 object, parses,</text><text x="0" y="69" font-family="Helvetica, Segoe UI Emoji" font-size="21.263261222486506px" fill="#000000" text-anchor="start" style="white-space: pre;" direction="ltr">and converts to JSON </text><text x="0" y="94" font-family="Helvetica, Segoe UI Emoji" font-size="21.263261222486506px" fill="#000000" text-anchor="start" style="white-space: pre;" direction="ltr">document and uploads </text><text x="0" y="119" font-family="Helvetica, Segoe UI Emoji" font-size="21.263261222486506px" fill="#000000" text-anchor="start" style="white-space: pre;" direction="ltr">to intermediary </text><text x="0" y="144" font-family="Helvetica, Segoe UI Emoji" font-size="21.263261222486506px" fill="#000000" text-anchor="start" style="white-space: pre;" direction="ltr">S3 bucket</text></g><g stroke-linecap="round" transform="translate(505.1733093261719 490) rotate(0 32.326690673828125 32.326690673828125)"><path d="M0 0 C0 0, 0 0, 0 0 M0 0 C0 0, 0 0, 0 0 M0.13 12.04 C4.01 7.58, 7.89 3.12, 10.63 -0.03 M0.13 12.04 C3.42 8.25, 6.72 4.47, 10.63 -0.03 M0.27 24.08 C6.63 16.76, 12.99 9.44, 21.26 -0.07 M0.27 24.08 C4.85 18.8, 9.44 13.53, 21.26 -0.07 M-0.26 36.88 C6.22 29.43, 12.69 21.99, 31.89 -0.1 M-0.26 36.88 C9.45 25.71, 19.16 14.54, 31.89 -0.1 M-0.12 48.92 C16.92 29.31, 33.97 9.7, 42.52 -0.14 M-0.12 48.92 C9.89 37.4, 19.9 25.89, 42.52 -0.14 M0.01 60.96 C17.08 41.32, 34.16 21.67, 53.15 -0.17 M0.01 60.96 C21.26 36.51, 42.51 12.06, 53.15 -0.17 M4.08 68.47 C20.6 49.47, 37.12 30.46, 63.78 -0.21 M4.08 68.47 C21.58 48.33, 39.09 28.2, 63.78 -0.21 M14.71 68.44 C29.25 51.71, 43.8 34.97, 69.82 5.04 M14.71 68.44 C32.5 47.97, 50.29 27.5, 69.82 5.04 M25.34 68.4 C41.78 49.49, 58.22 30.58, 69.95 17.08 M25.34 68.4 C34.69 57.65, 44.03 46.9, 69.95 17.08 M35.97 68.37 C48.37 54.1, 60.77 39.84, 70.08 29.12 M35.97 68.37 C49.15 53.2, 62.34 38.04, 70.08 29.12 M46.6 68.33 C53.91 59.93, 61.22 51.52, 70.22 41.16 M46.6 68.33 C56.03 57.48, 65.46 46.63, 70.22 41.16 M57.23 68.3 C61.88 62.95, 66.53 57.6, 70.35 53.2 M57.23 68.3 C61.25 63.67, 65.27 59.05, 70.35 53.2 M-0.31 64.38 C-0.31 64.38, -0.31 64.38, -0.31 64.38 M-0.31 64.38 C-0.31 64.38, -0.31 64.38, -0.31 64.38 M12.48 64.9 C7.72 60.76, 2.96 56.62, -0.35 53.75 M12.48 64.9 C7.37 60.46, 2.26 56.02, -0.35 53.75 M24.52 64.77 C17.85 58.97, 11.17 53.16, 0.37 43.78 M24.52 64.77 C18.2 59.27, 11.87 53.77, 0.37 43.78 M36.56 64.64 C23.96 53.68, 11.36 42.72, 0.34 33.15 M36.56 64.64 C22.88 52.75, 9.21 40.86, 0.34 33.15 M48.6 64.5 C30.68 48.92, 12.75 33.34, 0.3 22.52 M48.6 64.5 C30.93 49.14, 13.26 33.78, 0.3 22.52 M60.64 64.37 C47.41 52.87, 34.18 41.36, 0.27 11.89 M60.64 64.37 C38.9 45.47, 17.16 26.57, 0.27 11.89 M68.16 60.3 C51 45.39, 33.85 30.48, 0.23 1.26 M68.16 60.3 C54.17 48.14, 40.18 35.98, 0.23 1.26 M68.12 49.67 C47.88 32.07, 27.64 14.48, 4.73 -5.44 M68.12 49.67 C51.55 35.26, 34.97 20.85, 4.73 -5.44 M68.09 39.04 C49.87 23.2, 31.65 7.37, 16.77 -5.57 M68.09 39.04 C47.69 21.31, 27.29 3.57, 16.77 -5.57 M68.05 28.41 C53.04 15.36, 38.02 2.3, 28.81 -5.7 M68.05 28.41 C52.46 14.86, 36.87 1.31, 28.81 -5.7 M68.02 17.78 C59.76 10.6, 51.49 3.41, 41.6 -5.18 M68.02 17.78 C58.61 9.6, 49.19 1.41, 41.6 -5.18 M67.98 7.15 C63.06 2.87, 58.13 -1.42, 53.65 -5.31 M67.98 7.15 C63.93 3.62, 59.87 0.09, 53.65 -5.31" stroke="#e6498088" stroke-width="1" fill="none"></path><path d="M0 0 C22.77 0, 45.53 0, 64.65 0 M0 0 C17.26 0, 34.53 0, 64.65 0 M64.65 0 C64.65 15.08, 64.65 30.16, 64.65 64.65 M64.65 0 C64.65 13.09, 64.65 26.17, 64.65 64.65 M64.65 64.65 C44.37 64.65, 24.09 64.65, 0 64.65 M64.65 64.65 C48.47 64.65, 32.29 64.65, 0 64.65 M0 64.65 C0 45.8, 0 26.94, 0 0 M0 64.65 C0 44.04, 0 23.42, 0 0" stroke="#000000" stroke-width="2" fill="none"></path></g><g stroke-linecap="round"><g transform="translate(530.0698096716551 510.0960955230262) rotate(0 7.584660526743164 0)"><path d="M0 0 C5.08 0, 10.17 0, 15.17 0" stroke="#000000" stroke-width="2.5" fill="none" stroke-dasharray="1.5 8"></path></g></g><g stroke-linecap="round"><g transform="translate(528.5979153182134 534.8749900415223) rotate(0 8.56891870063157 0)"><path d="M0 0 C5.65 0, 11.29 0, 17.14 0" stroke="#000000" stroke-width="2.5" fill="none" stroke-dasharray="1.5 8"></path></g></g><g stroke-linecap="round"><g transform="translate(511.797365709901 505.92543495648715) rotate(0 8.477523156769621 16.805789676925713)"><path d="M0 0 C3.55 -1.55, 7.1 -3.1, 16.96 -7.4 M0 0 C5.19 -2.27, 10.39 -4.53, 16.96 -7.4 M16.96 -7.4 C16.92 10.23, 16.89 27.86, 16.87 41.01 M16.96 -7.4 C16.92 11.26, 16.89 29.91, 16.87 41.01 M16.87 41.01 C12.54 39.06, 8.21 37.11, 0.08 33.45 M16.87 41.01 C13.34 39.42, 9.81 37.83, 0.08 33.45 M0.08 33.45 C0.06 25.12, 0.04 16.78, 0 0 M0.08 33.45 C0.06 22.86, 0.03 12.26, 0 0" stroke="#000000" stroke-width="2" fill="none"></path></g></g><g stroke-linecap="round"><g transform="translate(546.258409389201 498.3398234972801) rotate(0 8.48838764300524 24.139529940593718)"><path d="M0 0 C0.06 15.6, 0.13 31.21, 0.2 48.28 M0 0 C0.08 19.03, 0.16 38.06, 0.2 48.28 M0.2 48.28 C5.62 45.91, 11.05 43.54, 16.96 40.95 M0.2 48.28 C5.02 46.17, 9.85 44.06, 16.96 40.95 M16.96 40.95 C16.97 27.59, 16.97 14.23, 16.98 7.51 M16.96 40.95 C16.97 32.4, 16.97 23.85, 16.98 7.51 M16.98 7.51 C10.64 4.7, 4.3 1.9, 0 0 M16.98 7.51 C12.21 5.4, 7.44 3.29, 0 0" stroke="#000000" stroke-width="2" fill="none"></path></g></g><g stroke-linecap="round"><g transform="translate(532.9393776027155 528.4754630599764) rotate(0 4.550559742603639 -6.101967954136711)"><path d="M0 0 C3.23 -4.33, 6.45 -8.65, 9.1 -12.2 M0 0 C1.86 -2.49, 3.72 -4.98, 9.1 -12.2" stroke="#000000" stroke-width="2" fill="none"></path></g></g><g stroke-linecap="round"><g transform="translate(540.7478916075224 518.606709141533) rotate(0 2.497387212051592 4.2069285343138745)"><path d="M0 0 C1.66 1.45, 3.31 2.89, 5.01 4.37 M0 0 C1.45 1.27, 2.91 2.54, 5.01 4.37 M5.01 4.37 C3.36 5.69, 1.72 7.02, -0.01 8.41 M5.01 4.37 C3.95 5.23, 2.89 6.08, -0.01 8.41" stroke="#000000" stroke-width="2" fill="none"></path></g></g><g stroke-linecap="round"><g transform="translate(528.94207500639 518.0633257887825) rotate(180 2.497387212051592 4.2069285343138745)"><path d="M0 0 C1.9 1.66, 3.8 3.32, 5.01 4.37 M0 0 C1.69 1.47, 3.37 2.94, 5.01 4.37 M5.01 4.37 C3.49 5.59, 1.98 6.81, -0.01 8.41 M5.01 4.37 C3.74 5.39, 2.48 6.41, -0.01 8.41" stroke="#000000" stroke-width="2" fill="none"></path></g></g><g transform="translate(470 558.0611151618948) rotate(0 67.5 12.5)"><text x="67.5" y="18" font-family="Virgil, Segoe UI Emoji" font-size="20px" fill="#000000" text-anchor="middle" style="white-space: pre;" direction="ltr">API Gateway</text></g><g stroke-linecap="round" transform="translate(690 490) rotate(0 32.230576182478444 32.199712367130076)"><path d="M0 0 C0 0, 0 0, 0 0 M0 0 C0 0, 0 0, 0 0 M0.13 12.04 C3.9 7.71, 7.66 3.38, 10.63 -0.03 M0.13 12.04 C3.8 7.82, 7.47 3.6, 10.63 -0.03 M0.27 24.08 C6.84 16.52, 13.41 8.96, 21.26 -0.07 M0.27 24.08 C6.78 16.59, 13.29 9.1, 21.26 -0.07 M-0.26 36.88 C10.8 24.15, 21.86 11.43, 31.89 -0.1 M-0.26 36.88 C8.72 26.55, 17.7 16.22, 31.89 -0.1 M-0.12 48.92 C8.82 38.63, 17.77 28.34, 42.52 -0.14 M-0.12 48.92 C16.6 29.67, 33.33 10.43, 42.52 -0.14 M0.01 60.96 C20.25 37.67, 40.5 14.38, 53.15 -0.17 M0.01 60.96 C14.48 44.31, 28.95 27.67, 53.15 -0.17 M4.08 68.47 C18.46 51.93, 32.84 35.39, 63.78 -0.21 M4.08 68.47 C17.8 52.69, 31.52 36.9, 63.78 -0.21 M14.71 68.44 C30.42 50.36, 46.13 32.29, 69.82 5.04 M14.71 68.44 C29.2 51.77, 43.69 35.1, 69.82 5.04 M25.34 68.4 C39.7 51.88, 54.07 35.36, 69.95 17.08 M25.34 68.4 C36.81 55.2, 48.29 42.01, 69.95 17.08 M35.97 68.37 C45.25 57.69, 54.54 47.01, 70.08 29.12 M35.97 68.37 C49.12 53.24, 62.28 38.1, 70.08 29.12 M46.6 68.33 C55.31 58.31, 64.02 48.29, 70.22 41.16 M46.6 68.33 C53.89 59.95, 61.18 51.56, 70.22 41.16 M57.23 68.3 C61.69 63.17, 66.15 58.04, 69.69 53.96 M57.23 68.3 C61.9 62.93, 66.57 57.56, 69.69 53.96 M-0.19 64.24 C-0.19 64.24, -0.19 64.24, -0.19 64.24 M-0.19 64.24 C-0.19 64.24, -0.19 64.24, -0.19 64.24 M11.85 64.1 C7.54 60.35, 3.22 56.6, -0.22 53.61 M11.85 64.1 C7.45 60.28, 3.05 56.45, -0.22 53.61 M24.65 64.63 C19.12 59.82, 13.59 55.02, -0.26 42.98 M24.65 64.63 C19.13 59.82, 13.6 55.02, -0.26 42.98 M36.69 64.49 C26.09 55.28, 15.49 46.06, -0.29 32.35 M36.69 64.49 C26 55.2, 15.3 45.9, -0.29 32.35 M48.73 64.36 C36 53.29, 23.27 42.23, -0.33 21.72 M48.73 64.36 C31.46 49.35, 14.19 34.34, -0.33 21.72 M60.77 64.23 C38.68 45.02, 16.59 25.82, -0.36 11.09 M60.77 64.23 C43.44 49.16, 26.12 34.1, -0.36 11.09 M68.28 60.16 C46.19 40.95, 24.1 21.74, 0.36 1.11 M68.28 60.16 C51.71 45.75, 35.14 31.35, 0.36 1.11 M68.25 49.53 C43.08 27.65, 17.91 5.77, 4.85 -5.58 M68.25 49.53 C50.4 34.01, 32.54 18.49, 4.85 -5.58 M68.21 38.9 C51.03 23.96, 33.85 9.02, 16.89 -5.72 M68.21 38.9 C51.18 24.09, 34.14 9.28, 16.89 -5.72 M68.18 28.27 C59.96 21.12, 51.75 13.98, 28.93 -5.85 M68.18 28.27 C59.62 20.83, 51.07 13.39, 28.93 -5.85 M68.15 17.64 C62.76 12.96, 57.38 8.28, 41.73 -5.33 M68.15 17.64 C61.53 11.89, 54.92 6.14, 41.73 -5.33 M68.11 7.01 C65.04 4.34, 61.98 1.67, 53.77 -5.46 M68.11 7.01 C64.86 4.18, 61.6 1.35, 53.77 -5.46" stroke="#fd7e1488" stroke-width="1" fill="none"></path><path d="M0 0 C17.62 0, 35.24 0, 64.46 0 M0 0 C16.28 0, 32.56 0, 64.46 0 M64.46 0 C64.46 18.06, 64.46 36.12, 64.46 64.4 M64.46 0 C64.46 22.02, 64.46 44.05, 64.46 64.4 M64.46 64.4 C47.67 64.4, 30.87 64.4, 0 64.4 M64.46 64.4 C46.76 64.4, 29.05 64.4, 0 64.4 M0 64.4 C0 50.92, 0 37.43, 0 0 M0 64.4 C0 41.96, 0 19.52, 0 0" stroke="#000000" stroke-width="2" fill="none"></path></g><g stroke-linecap="round"><g transform="translate(714.9912075504471 516.737465785099) rotate(0 -3.076774100000023 13.448500000000024)"><path d="M0 0 C-3.68 7.37, -7.37 14.74, -12.73 25.47 M0 0 C-5.05 10.1, -10.09 20.19, -12.73 25.47 M-12.73 25.47 C-9.94 25.79, -7.14 26.12, -0.52 26.9 M-12.73 25.47 C-8.86 25.92, -5 26.37, -0.52 26.9 M-0.52 26.9 C1.63 22.74, 3.79 18.58, 6.58 13.18 M-0.52 26.9 C1.04 23.88, 2.6 20.86, 6.58 13.18 M6.58 13.18 C4.88 9.42, 3.19 5.66, 0.9 0.56 M6.58 13.18 C4.72 9.05, 2.86 4.92, 0.9 0.56" stroke="#000000" stroke-width="2" fill="none"></path></g></g><g stroke-linecap="round"><g transform="translate(739.4779277504472 532.6344657850989) rotate(0 -12.746280000000013 -11)"><path d="M0 0 C-5.26 -11.41, -10.53 -22.82, -14.96 -32.42 M0 0 C-4.19 -9.08, -8.38 -18.16, -14.96 -32.42 M-14.96 -32.42 C-18.27 -32.56, -21.58 -32.69, -29.17 -33 M-14.96 -32.42 C-20.21 -32.63, -25.46 -32.85, -29.17 -33 M-29.17 -33 C-29.4 -30.76, -29.62 -28.52, -30.18 -23 M-29.17 -33 C-29.42 -30.54, -29.67 -28.08, -30.18 -23 M-30.18 -23 C-28.3 -22.74, -26.42 -22.48, -22.9 -22 M-30.18 -23 C-28.21 -22.73, -26.24 -22.46, -22.9 -22 M-22.9 -22 C-17.16 -9.62, -11.42 2.76, -7.87 10.42 M-22.9 -22 C-18.53 -12.58, -14.17 -3.17, -7.87 10.42 M-7.87 10.42 C-3.79 10.63, 0.28 10.83, 3.69 11 M-7.87 10.42 C-5.07 10.56, -2.27 10.7, 3.69 11 M3.69 11 C3.93 8.59, 4.17 6.17, 4.69 1 M3.69 11 C4.04 7.52, 4.38 4.03, 4.69 1 M4.69 1 C4.46 0.77, 4.22 0.54, 3.69 0 M4.69 1 C4.37 0.68, 4.05 0.36, 3.69 0" stroke="#000000" stroke-width="2" fill="none"></path></g></g><g transform="translate(692.2305761824787 561.8628295847827) rotate(0 30 20)"><text x="30" y="14" font-family="Virgil, Segoe UI Emoji" font-size="16px" fill="#000000" text-anchor="middle" style="white-space: pre;" direction="ltr">Search </text><text x="30" y="34" font-family="Virgil, Segoe UI Emoji" font-size="16px" fill="#000000" text-anchor="middle" style="white-space: pre;" direction="ltr">Lambda</text></g><g stroke-linecap="round"><g transform="translate(570 510) rotate(0 60 0)"><path d="M0 0 C20 0, 100 0, 120 0 M0 0 C20 0, 100 0, 120 0" stroke="#000000" stroke-width="1" fill="none"></path></g><g transform="translate(570 510) rotate(0 60 0)"><path d="M120 0 L106.41 6.34 L106.41 -6.34 L120 0" stroke="none" stroke-width="0" fill="#000000" fill-rule="evenodd"></path><path d="M120 0 C114.98 2.34, 109.96 4.68, 106.41 6.34 M120 0 C116.96 1.42, 113.91 2.84, 106.41 6.34 M106.41 6.34 C106.41 3.22, 106.41 0.11, 106.41 -6.34 M106.41 6.34 C106.41 3.06, 106.41 -0.21, 106.41 -6.34 M106.41 -6.34 C110.08 -4.63, 113.75 -2.91, 120 0 M106.41 -6.34 C111.6 -3.92, 116.79 -1.5, 120 0 M120 0 C120 0, 120 0, 120 0 M120 0 C120 0, 120 0, 120 0" stroke="#000000" stroke-width="1" fill="none"></path></g></g><g stroke-linecap="round"><g transform="translate(750 510) rotate(0 50 0)"><path d="M0 0 C16.67 0, 83.33 0, 100 0 M0 0 C16.67 0, 83.33 0, 100 0" stroke="#000000" stroke-width="1" fill="none"></path></g><g transform="translate(750 510) rotate(0 50 0)"><path d="M100 0 L86.41 6.34 L86.41 -6.34 L100 0" stroke="none" stroke-width="0" fill="#000000" fill-rule="evenodd"></path><path d="M100 0 C97.01 1.39, 94.02 2.79, 86.41 6.34 M100 0 C95.95 1.89, 91.89 3.78, 86.41 6.34 M86.41 6.34 C86.41 2.19, 86.41 -1.96, 86.41 -6.34 M86.41 6.34 C86.41 2.7, 86.41 -0.93, 86.41 -6.34 M86.41 -6.34 C91.46 -3.98, 96.51 -1.63, 100 0 M86.41 -6.34 C89.52 -4.89, 92.64 -3.43, 100 0 M100 0 C100 0, 100 0, 100 0 M100 0 C100 0, 100 0, 100 0" stroke="#000000" stroke-width="1" fill="none"></path></g></g><g stroke-linecap="round"><g transform="translate(690 530) rotate(0 -60 0)"><path d="M0 0 C-20 0, -100 0, -120 0 M0 0 C-20 0, -100 0, -120 0" stroke="#000000" stroke-width="1" fill="none"></path></g><g transform="translate(690 530) rotate(0 -60 0)"><path d="M-120 0 L-106.41 -6.34 L-106.41 6.34 L-120 0" stroke="none" stroke-width="0" fill="#000000" fill-rule="evenodd"></path><path d="M-120 0 C-115.96 -1.88, -111.93 -3.76, -106.41 -6.34 M-120 0 C-117.03 -1.39, -114.05 -2.77, -106.41 -6.34 M-106.41 -6.34 C-106.41 -1.81, -106.41 2.72, -106.41 6.34 M-106.41 -6.34 C-106.41 -1.72, -106.41 2.9, -106.41 6.34 M-106.41 6.34 C-109.42 4.93, -112.44 3.53, -120 0 M-106.41 6.34 C-109.42 4.93, -112.43 3.53, -120 0 M-120 0 C-120 0, -120 0, -120 0 M-120 0 C-120 0, -120 0, -120 0" stroke="#000000" stroke-width="1" fill="none"></path></g></g><g transform="translate(172.78722064850763 546.3439737958352) rotate(0 23 12.5)"><text x="0" y="18" font-family="Virgil, Segoe UI Emoji" font-size="20px" fill="#000000" text-anchor="start" style="white-space: pre;" direction="ltr">User</text></g><g stroke-linecap="round"><g transform="translate(170 536.6910477858564) rotate(0 25.7872206485074 -21.777916348211846)" fill-rule="evenodd"><path d="M13.47 -38.64 C13.47 -38.64, 13.47 -38.64, 13.47 -38.64 M13.47 -38.64 C13.47 -38.64, 13.47 -38.64, 13.47 -38.64 M7.04 -19.05 C14.79 -27.97, 22.54 -36.88, 26.72 -41.69 M7.04 -19.05 C14.44 -27.57, 21.84 -36.08, 26.72 -41.69 M0.61 0.53 C10.45 -10.78, 20.28 -22.08, 35.39 -39.47 M0.61 0.53 C9.57 -9.77, 18.53 -20.07, 35.39 -39.47 M11.24 0.5 C22.14 -12.03, 33.03 -24.56, 40.77 -33.46 M11.24 0.5 C21.33 -11.1, 31.41 -22.7, 40.77 -33.46 M21.87 0.47 C31.23 -10.29, 40.58 -21.06, 46.81 -28.21 M21.87 0.47 C29.63 -8.46, 37.39 -17.38, 46.81 -28.21 M29.22 4.2 C35.98 -3.57, 42.74 -11.34, 50.87 -20.7 M29.22 4.2 C37.06 -4.81, 44.9 -13.82, 50.87 -20.7 M41.82 1.91 C45.47 -2.29, 49.11 -6.48, 54.94 -13.19 M41.82 1.91 C44.48 -1.15, 47.13 -4.2, 54.94 -13.19 M0 0 C0 0, 0 0, 0 0 M0 0 C0 0, 0 0, 0 0 M12.04 -0.13 C8.61 -3.12, 5.18 -6.1, 1.47 -9.32 M12.04 -0.13 C9.44 -2.4, 6.83 -4.66, 1.47 -9.32 M24.84 0.39 C19.59 -4.17, 14.34 -8.74, 2.95 -18.64 M24.84 0.39 C19.82 -3.97, 14.8 -8.34, 2.95 -18.64 M30.08 -5.65 C24.22 -10.75, 18.35 -15.85, 6.69 -25.99 M30.08 -5.65 C21.67 -12.96, 13.26 -20.27, 6.69 -25.99 M45.9 -2.5 C35.28 -11.73, 24.67 -20.96, 9.67 -33.99 M45.9 -2.5 C34.75 -12.19, 23.6 -21.88, 9.67 -33.99 M52.66 -7.23 C37.95 -20.01, 23.23 -32.8, 14.92 -40.03 M52.66 -7.23 C42.96 -15.66, 33.26 -24.09, 14.92 -40.03 M51.11 -19.17 C43.52 -25.77, 35.92 -32.38, 20.92 -45.41 M51.11 -19.17 C41.96 -27.13, 32.8 -35.09, 20.92 -45.41" stroke="#ced4da" stroke-width="1" fill="none"></path><path d="M0 0 C0.92 -4.85, 1.58 -21.76, 5.52 -29.07 C9.46 -36.38, 17.61 -43.34, 23.65 -43.87 C29.69 -44.4, 37.51 -39.05, 41.78 -32.24 C46.05 -25.43, 56.23 -8.39, 49.27 -3.02 C42.31 2.36, 8.21 -0.5, 0 0 M0 0 C0.92 -4.85, 1.58 -21.76, 5.52 -29.07 C9.46 -36.38, 17.61 -43.34, 23.65 -43.87 C29.69 -44.4, 37.51 -39.05, 41.78 -32.24 C46.05 -25.43, 56.23 -8.39, 49.27 -3.02 C42.31 2.36, 8.21 -0.5, 0 0" stroke="#000000" stroke-width="2" fill="none"></path></g></g><g stroke-linecap="round" transform="translate(182.45387083631613 470) rotate(0 12.612971703843215 11.036350240862845)"><path d="M2.98 3.91 C2.98 3.91, 2.98 3.91, 2.98 3.91 M2.98 3.91 C2.98 3.91, 2.98 3.91, 2.98 3.91 M2.45 16.71 C6.94 11.54, 11.44 6.38, 16.23 0.86 M2.45 16.71 C7.88 10.47, 13.3 4.23, 16.23 0.86 M8.49 21.96 C14.16 15.43, 19.84 8.91, 23.58 4.6 M8.49 21.96 C12.76 17.05, 17.02 12.14, 23.58 4.6 M4.36 19.37 C4.36 19.37, 4.36 19.37, 4.36 19.37 M4.36 19.37 C4.36 19.37, 4.36 19.37, 4.36 19.37 M17.91 20.55 C12.24 15.62, 6.57 10.69, 1.31 6.11 M17.91 20.55 C11.68 15.13, 5.46 9.72, 1.31 6.11 M24.67 15.82 C19.27 11.13, 13.87 6.43, 7.31 0.73 M24.67 15.82 C19.25 11.11, 13.84 6.4, 7.31 0.73" stroke="#ced4da" stroke-width="1" fill="none"></path><path d="M25.23 11.04 C25.23 11.68, 25.16 12.32, 25.03 12.95 C24.91 13.58, 24.71 14.21, 24.47 14.81 C24.22 15.41, 23.9 16, 23.54 16.55 C23.17 17.11, 22.74 17.64, 22.28 18.13 C21.81 18.62, 21.28 19.08, 20.72 19.49 C20.16 19.9, 19.55 20.27, 18.92 20.59 C18.29 20.91, 17.61 21.19, 16.93 21.41 C16.24 21.63, 15.52 21.79, 14.8 21.91 C14.08 22.02, 13.34 22.07, 12.61 22.07 C11.88 22.07, 11.14 22.02, 10.42 21.91 C9.7 21.79, 8.99 21.63, 8.3 21.41 C7.61 21.19, 6.94 20.91, 6.31 20.59 C5.67 20.27, 5.06 19.9, 4.51 19.49 C3.95 19.08, 3.42 18.62, 2.95 18.13 C2.48 17.64, 2.05 17.11, 1.69 16.55 C1.32 16, 1.01 15.41, 0.76 14.81 C0.51 14.21, 0.32 13.58, 0.19 12.95 C0.06 12.32, 0 11.68, 0 11.04 C0 10.4, 0.06 9.75, 0.19 9.12 C0.32 8.49, 0.51 7.86, 0.76 7.26 C1.01 6.66, 1.32 6.07, 1.69 5.52 C2.05 4.96, 2.48 4.43, 2.95 3.94 C3.42 3.45, 3.95 2.99, 4.51 2.58 C5.06 2.17, 5.67 1.8, 6.31 1.48 C6.94 1.16, 7.61 0.88, 8.3 0.67 C8.99 0.45, 9.7 0.28, 10.42 0.17 C11.14 0.06, 11.88 0, 12.61 0 C13.34 0, 14.08 0.06, 14.8 0.17 C15.52 0.28, 16.24 0.45, 16.93 0.67 C17.61 0.88, 18.29 1.16, 18.92 1.48 C19.55 1.8, 20.16 2.17, 20.72 2.58 C21.28 2.99, 21.81 3.45, 22.28 3.94 C22.74 4.43, 23.17 4.96, 23.54 5.52 C23.9 6.07, 24.22 6.66, 24.47 7.26 C24.71 7.86, 24.91 8.49, 25.03 9.12 C25.16 9.75, 25.19 10.72, 25.23 11.04 C25.26 11.36, 25.26 10.72, 25.23 11.04" stroke="#000000" stroke-width="2" fill="none"></path></g><g stroke-linecap="round"><g transform="translate(210 510) rotate(0 147.08665466308594 -2.4204559410662796)"><path d="M0 0 C49.03 -0.81, 245.14 -4.03, 294.17 -4.84 M0 0 C49.03 -0.81, 245.14 -4.03, 294.17 -4.84" stroke="#000000" stroke-width="1" fill="none"></path></g><g transform="translate(210 510) rotate(0 147.08665466308594 -2.4204559410662796)"><path d="M294.17 -4.84 L280.68 1.72 L280.48 -10.96 L294.17 -4.84" stroke="none" stroke-width="0" fill="#000000" fill-rule="evenodd"></path><path d="M294.17 -4.84 C289.36 -2.5, 284.55 -0.16, 280.68 1.72 M294.17 -4.84 C291.4 -3.49, 288.64 -2.15, 280.68 1.72 M280.68 1.72 C280.62 -2.02, 280.56 -5.76, 280.48 -10.96 M280.68 1.72 C280.63 -1.57, 280.58 -4.87, 280.48 -10.96 M280.48 -10.96 C285.34 -8.79, 290.2 -6.62, 294.17 -4.84 M280.48 -10.96 C285.34 -8.78, 290.2 -6.61, 294.17 -4.84 M294.17 -4.84 C294.17 -4.84, 294.17 -4.84, 294.17 -4.84 M294.17 -4.84 C294.17 -4.84, 294.17 -4.84, 294.17 -4.84" stroke="#000000" stroke-width="1" fill="none"></path></g></g><g stroke-linecap="round"><g transform="translate(465.31317689332764 530) rotate(0 -127.65658844666382 0)"><path d="M0 0 C-42.55 0, -212.76 0, -255.31 0 M0 0 C-42.55 0, -212.76 0, -255.31 0" stroke="#000000" stroke-width="1" fill="none"></path></g><g transform="translate(465.31317689332764 530) rotate(0 -127.65658844666382 0)"><path d="M-255.31 0 L-241.72 -6.34 L-241.72 6.34 L-255.31 0" stroke="none" stroke-width="0" fill="#000000" fill-rule="evenodd"></path><path d="M-255.31 0 C-250.2 -2.38, -245.09 -4.77, -241.72 -6.34 M-255.31 0 C-251.47 -1.79, -247.63 -3.58, -241.72 -6.34 M-241.72 -6.34 C-241.72 -3.07, -241.72 0.19, -241.72 6.34 M-241.72 -6.34 C-241.72 -1.66, -241.72 3.02, -241.72 6.34 M-241.72 6.34 C-246.36 4.17, -251.01 2.01, -255.31 0 M-241.72 6.34 C-246.82 3.96, -251.92 1.58, -255.31 0 M-255.31 0 C-255.31 0, -255.31 0, -255.31 0 M-255.31 0 C-255.31 0, -255.31 0, -255.31 0" stroke="#000000" stroke-width="1" fill="none"></path></g></g><g transform="translate(230 450) rotate(0 118.5 15)"><text x="118.5" y="8" font-family="Helvetica, Segoe UI Emoji" font-size="9.263405532570781px" fill="#000000" text-anchor="middle" style="white-space: pre;" direction="ltr">Get Request</text><text x="118.5" y="18" font-family="Helvetica, Segoe UI Emoji" font-size="9.263405532570781px" fill="#000000" text-anchor="middle" style="white-space: pre;" direction="ltr">https://epl65c6lr1.execute-api.us-east-1.amazonaws.com/</text><text x="118.5" y="28" font-family="Helvetica, Segoe UI Emoji" font-size="9.263405532570781px" fill="#000000" text-anchor="middle" style="white-space: pre;" direction="ltr">opensearchapi-test</text></g><g transform="translate(610 490) rotate(0 28 10)"><text x="28" y="14" font-family="Virgil, Segoe UI Emoji" font-size="16px" fill="#000000" text-anchor="middle" style="white-space: pre;" direction="ltr">Trigger</text></g><g transform="translate(270 530) rotate(0 107.5 9)"><text x="107.5" y="14" font-family="Helvetica, Segoe UI Emoji" font-size="16px" fill="#000000" text-anchor="middle" style="white-space: pre;" direction="ltr">Response Tax text documents</text></g><g transform="translate(790 530) rotate(0 20 5.5)"><text x="20" y="9" font-family="Helvetica, Segoe UI Emoji" font-size="9.552238805970159px" fill="#000000" text-anchor="middle" style="white-space: pre;" direction="ltr">response</text></g><g transform="translate(610 530) rotate(0 33.5 10)"><text x="33.5" y="14" font-family="Virgil, Segoe UI Emoji" font-size="16px" fill="#000000" text-anchor="middle" style="white-space: pre;" direction="ltr">response</text></g><g stroke-linecap="round"><g transform="translate(850 530) rotate(0 -50 0)"><path d="M0 0 C-16.67 0, -83.33 0, -100 0 M0 0 C-16.67 0, -83.33 0, -100 0" stroke="#000000" stroke-width="1" fill="none"></path></g><g transform="translate(850 530) rotate(0 -50 0)"><path d="M-100 0 L-86.41 -6.34 L-86.41 6.34 L-100 0" stroke="none" stroke-width="0" fill="#000000" fill-rule="evenodd"></path><path d="M-100 0 C-96.88 -1.45, -93.76 -2.91, -86.41 -6.34 M-100 0 C-94.75 -2.45, -89.49 -4.9, -86.41 -6.34 M-86.41 -6.34 C-86.41 -3.45, -86.41 -0.57, -86.41 6.34 M-86.41 -6.34 C-86.41 -1.4, -86.41 3.55, -86.41 6.34 M-86.41 6.34 C-91.06 4.17, -95.71 2, -100 0 M-86.41 6.34 C-89.31 4.98, -92.21 3.63, -100 0 M-100 0 C-100 0, -100 0, -100 0 M-100 0 C-100 0, -100 0, -100 0" stroke="#000000" stroke-width="1" fill="none"></path></g></g><g transform="translate(770 490) rotate(0 37.5 15.967741935483872)"><text x="37.5" y="8.645161290322582" font-family="Helvetica, Segoe UI Emoji" font-size="8.86481162275302px" fill="#000000" text-anchor="middle" style="white-space: pre;" direction="ltr">Query </text><text x="37.5" y="19.290322580645164" font-family="Helvetica, Segoe UI Emoji" font-size="8.86481162275302px" fill="#000000" text-anchor="middle" style="white-space: pre;" direction="ltr">the taxforms index </text><text x="37.5" y="29.935483870967744" font-family="Helvetica, Segoe UI Emoji" font-size="8.86481162275302px" fill="#000000" text-anchor="middle" style="white-space: pre;" direction="ltr"></text></g><g transform="translate(650 630) rotate(0 40.5 12.5)"><text x="0" y="19" font-family="Helvetica, Segoe UI Emoji" font-size="21.263261222486506px" fill="#000000" text-anchor="start" style="white-space: pre;" direction="ltr">Queries </text></g><g transform="translate(310 10) rotate(0 262.5 21)"><text x="0" y="33" font-family="Helvetica, Segoe UI Emoji" font-size="36px" fill="#000000" text-anchor="start" style="white-space: pre;" direction="ltr">Workflow using Lambda Triggers</text></g></svg>