<svg version="1.1" xmlns="http://www.w3.org/2000/svg" viewBox="0 0 1559.4736842105262 820" width="780" height="410">
  <!-- svg-source:excalidraw -->
  
  <defs>
    <style>
      @font-face {
        font-family: "Virgil";
        src: url("https://excalidraw.com/Virgil.woff2");
      }
      @font-face {
        font-family: "Cascadia";
        src: url("https://excalidraw.com/Cascadia.woff2");
      }
    </style>
  </defs>
  <rect x="0" y="0" width="1559.4736842105262" height="820" fill="transparent"></rect><g stroke-linecap="round" transform="translate(30 10) rotate(0 759.7368421052631 400)"><path d="M0 0 L1519.47 0 L1519.47 800 L0 800" stroke="none" stroke-width="0" fill="#FFF"></path><path d="M0 0 C468.8 0, 937.61 0, 1519.47 0 M1519.47 0 C1519.47 305.64, 1519.47 611.27, 1519.47 800 M1519.47 800 C1031.76 800, 544.04 800, 0 800 M0 800 C0 539.28, 0 278.56, 0 0" stroke="#00ff00" stroke-width="1.5" fill="none" stroke-dasharray="8 9"></path></g><g transform="translate(564.2105263157893 30) rotate(0 270.5 42)"><text x="0" y="33" font-family="Helvetica, Segoe UI Emoji" font-size="36.50925733305597px" fill="#000000" text-anchor="start" style="white-space: pre;" direction="ltr">Azure Deployment of </text><text x="0" y="75" font-family="Helvetica, Segoe UI Emoji" font-size="36.50925733305597px" fill="#000000" text-anchor="start" style="white-space: pre;" direction="ltr">Mattermost and MySQL Servers  </text></g><g transform="translate(174.21052631578937 286.578947368421) rotate(0 30.78947368421052 10.263157894736842)"><text x="0" y="15.526315789473685" font-family="Helvetica, Segoe UI Emoji" font-size="17.848970251716242px" fill="#364fc7" text-anchor="start" style="white-space: pre;" direction="ltr">Internet</text></g><g stroke-linecap="round" transform="translate(310.6725146198846 134.5321637426885) rotate(0 40.482456140350905 14.444444444444414)"><path d="M5.7 1.26 L76.89 0.94 L78.62 3.34 L82.21 25.98 L80.29 28.92 L74.08 27.11 L2.94 27.73 L0.43 23.91 L0.63 6.79 L1.44 1.47 L6.88 -1.9" stroke="none" stroke-width="0" fill="#ced4da"></path><path d="M7.22 0 M7.22 0 C24.69 2.21, 40.78 -1.34, 73.74 0 M7.22 0 C30.74 -0.03, 55.22 -0.21, 73.74 0 M73.74 0 C79.06 -0.96, 80.8 3.13, 80.96 7.22 M73.74 0 C78.15 -0.04, 82.52 2.05, 80.96 7.22 M80.96 7.22 C81.61 10.42, 81.87 14.45, 80.96 21.67 M80.96 7.22 C80.77 11.52, 80.14 15.47, 80.96 21.67 M80.96 21.67 C82.07 26.82, 76.69 28.99, 73.74 28.89 M80.96 21.67 C80.51 24.79, 77.65 26.77, 73.74 28.89 M73.74 28.89 C46.4 28.11, 21.14 26.33, 7.22 28.89 M73.74 28.89 C59.78 27.71, 45.03 27.46, 7.22 28.89 M7.22 28.89 C3.63 29.69, -1.02 27.65, 0 21.67 M7.22 28.89 C0.3 29.19, 0.37 28.39, 0 21.67 M0 21.67 C-0.42 16.9, 0.86 15, 0 7.22 M0 21.67 C0.53 16.76, -0.24 12.64, 0 7.22 M0 7.22 C1.89 2.28, 2.92 0.93, 7.22 0 M0 7.22 C-0.29 4.18, 0.73 2.04, 7.22 0" stroke="#000000" stroke-width="1" fill="none"></path></g><g stroke-linecap="round" transform="translate(333.0994152046781 101.84210526315786) rotate(0 27.36842105263159 26.418128654970772)"><path d="M27.67 -0.91 C33.44 -0.91, 42.15 3.25, 46.47 7.08 C50.78 10.91, 52.85 16.51, 53.55 22.06 C54.24 27.62, 53.7 35.62, 50.62 40.39 C47.55 45.16, 40.65 49.05, 35.09 50.67 C29.52 52.29, 22.4 52.15, 17.23 50.11 C12.05 48.08, 6.72 43.42, 4.04 38.46 C1.37 33.5, 0.04 25.73, 1.19 20.34 C2.33 14.96, 6.34 9.44, 10.92 6.16 C15.51 2.87, 25.63 1.53, 28.7 0.64 C31.78 -0.25, 29.31 0.33, 29.39 0.81 M20.01 -0.37 C25.62 -1.92, 34.58 0.38, 39.97 3.15 C45.36 5.92, 49.81 10.99, 52.35 16.25 C54.88 21.52, 56.95 29.49, 55.19 34.76 C53.43 40.02, 46.95 44.62, 41.79 47.85 C36.63 51.08, 29.92 54.55, 24.24 54.13 C18.56 53.7, 11.64 49.61, 7.73 45.3 C3.82 40.99, 1.03 34.16, 0.78 28.27 C0.54 22.38, 2.74 14.72, 6.26 9.96 C9.77 5.21, 19.5 1.41, 21.87 -0.26 C24.25 -1.92, 20.78 -0.72, 20.49 -0.04" stroke="none" stroke-width="0" fill="#ced4da"></path><path d="M23.02 1.35 C28.32 -0.2, 36.17 -0.02, 41.08 2.57 C45.99 5.16, 50.46 11.5, 52.47 16.88 C54.48 22.26, 54.96 29.49, 53.13 34.85 C51.3 40.2, 46.6 46.1, 41.51 49 C36.42 51.91, 28.46 53.37, 22.59 52.29 C16.73 51.22, 10.16 46.99, 6.33 42.57 C2.51 38.15, -0.28 31.29, -0.35 25.78 C-0.43 20.26, 1.74 13.87, 5.88 9.48 C10.03 5.08, 21.53 0.77, 24.53 -0.59 C27.54 -1.95, 24.07 0.66, 23.92 1.31 M17.13 2.34 C21.97 0.12, 29.34 -0.49, 35 1.14 C40.65 2.76, 47.82 7.09, 51.06 12.07 C54.3 17.04, 55.38 25.48, 54.46 31 C53.54 36.52, 49.63 41.66, 45.53 45.2 C41.43 48.73, 35.6 51.92, 29.87 52.2 C24.14 52.48, 15.87 50.25, 11.13 46.9 C6.39 43.55, 2.75 37.77, 1.41 32.08 C0.07 26.39, 0.36 17.79, 3.09 12.75 C5.82 7.71, 15.45 3.79, 17.81 1.83 C20.17 -0.12, 17.33 0.45, 17.26 1.02" stroke="#000000" stroke-width="1" fill="none"></path></g><g stroke-linecap="round" transform="translate(297.3684210526315 125.78947368421086) rotate(0 19.005847953216403 18.43567251461991)"><path d="M16.19 1.07 C20.22 0.38, 26.73 0.27, 30.18 2.32 C33.63 4.36, 35.82 9.56, 36.88 13.35 C37.93 17.14, 38.25 21.44, 36.52 25.03 C34.78 28.63, 30.31 32.92, 26.46 34.91 C22.61 36.91, 17.33 37.86, 13.42 37.02 C9.51 36.17, 5.35 33.06, 2.99 29.84 C0.62 26.61, -1.25 21.8, -0.78 17.67 C-0.31 13.54, 2.42 8.15, 5.8 5.05 C9.17 1.96, 16.98 -0.17, 19.47 -0.92 C21.96 -1.66, 20.71 0.22, 20.76 0.6 M11.64 1.79 C15.34 0.45, 22.28 -0.23, 26.41 1.3 C30.54 2.83, 34.33 7.71, 36.41 10.98 C38.5 14.25, 39.88 17.37, 38.91 20.92 C37.94 24.48, 33.73 29.66, 30.59 32.3 C27.45 34.94, 24.01 36.65, 20.06 36.77 C16.11 36.89, 10.24 35.42, 6.9 33.03 C3.56 30.64, 0.92 26.24, 0.04 22.45 C-0.84 18.65, -0.32 13.85, 1.64 10.25 C3.59 6.64, 10.1 2.47, 11.76 0.81 C13.41 -0.86, 11.23 0.04, 11.58 0.25" stroke="none" stroke-width="0" fill="#ced4da"></path><path d="M27.74 1.8 C31.12 2.94, 33.68 6.34, 35.24 9.87 C36.79 13.4, 38.01 18.99, 37.07 22.97 C36.14 26.94, 32.93 31.44, 29.65 33.72 C26.36 35.99, 21.39 37.01, 17.38 36.64 C13.36 36.26, 8.61 34.25, 5.57 31.46 C2.53 28.68, -0.35 23.9, -0.86 19.92 C-1.37 15.95, 0.07 10.68, 2.5 7.64 C4.94 4.6, 9.66 2.7, 13.78 1.66 C17.89 0.62, 24.53 1.19, 27.17 1.39 C29.81 1.6, 29.55 2.63, 29.61 2.9 M21.83 -0.57 C25.82 -0.25, 30.22 3.47, 32.87 6.49 C35.52 9.52, 37.35 13.75, 37.73 17.57 C38.1 21.38, 37.68 26.01, 35.12 29.4 C32.56 32.78, 26.62 36.88, 22.37 37.86 C18.13 38.85, 13.2 37.25, 9.65 35.33 C6.09 33.4, 2.51 30.06, 1.06 26.32 C-0.39 22.57, -0.12 16.63, 0.93 12.87 C1.99 9.1, 4 5.82, 7.4 3.71 C10.8 1.59, 19.22 0.83, 21.32 0.19 C23.41 -0.44, 19.85 -0.45, 19.97 -0.11" stroke="#000000" stroke-width="1" fill="none"></path></g><g stroke-linecap="round" transform="translate(317.894736842102 110.96491228070192) rotate(0 13.046783625731024 11.728070175438603)"><path d="M9.34 1.25 C11.68 0.34, 13.93 -0.56, 16.4 0.21 C18.86 0.98, 22.71 3.77, 24.13 5.87 C25.56 7.96, 25.39 10.46, 24.95 12.76 C24.51 15.06, 23.31 17.99, 21.48 19.68 C19.66 21.36, 16.67 22.81, 14 22.87 C11.34 22.92, 7.68 21.43, 5.49 20.02 C3.3 18.6, 1.58 16.61, 0.85 14.38 C0.13 12.15, -0.23 8.95, 1.12 6.64 C2.47 4.32, 7.2 1.4, 8.95 0.48 C10.69 -0.43, 11.48 1.1, 11.6 1.15 M13.1 0.58 C15.84 0.63, 18.56 1.48, 20.91 3.1 C23.26 4.71, 26.74 8.03, 27.2 10.29 C27.65 12.55, 25.22 14.38, 23.64 16.65 C22.06 18.92, 20.13 22.8, 17.72 23.92 C15.32 25.03, 11.67 24.34, 9.19 23.35 C6.71 22.35, 4.16 20.32, 2.84 17.97 C1.51 15.62, 0.81 11.91, 1.25 9.26 C1.68 6.61, 3.62 3.87, 5.44 2.1 C7.25 0.33, 11.15 -1.13, 12.11 -1.37 C13.08 -1.6, 11.29 0.27, 11.23 0.67" stroke="none" stroke-width="0" fill="#ced4da"></path><path d="M16.92 -0.41 C19.32 -0.09, 21.85 2.73, 23.36 4.9 C24.87 7.07, 26.17 10.07, 26 12.59 C25.83 15.11, 24.4 18.24, 22.35 20.02 C20.29 21.8, 16.54 23.23, 13.67 23.26 C10.79 23.3, 7.39 21.81, 5.12 20.21 C2.84 18.61, 0.71 15.97, 0.01 13.68 C-0.68 11.38, -0.51 8.68, 0.95 6.42 C2.42 4.16, 5.92 0.87, 8.81 0.13 C11.69 -0.61, 16.28 1.47, 18.27 1.98 C20.27 2.49, 20.86 3.08, 20.77 3.19 M8.54 0.38 C11.1 -0.56, 16.02 -0.5, 18.71 0.68 C21.4 1.85, 23.52 5.28, 24.66 7.44 C25.79 9.59, 25.91 11.43, 25.52 13.61 C25.13 15.78, 24.42 18.92, 22.31 20.49 C20.21 22.06, 15.76 23.06, 12.86 23.04 C9.96 23.02, 7.06 22.23, 4.92 20.36 C2.78 18.48, 0.37 14.3, 0.03 11.77 C-0.3 9.24, 1.37 7.31, 2.92 5.19 C4.46 3.07, 8.33 -0.32, 9.3 -0.93 C10.26 -1.53, 8.61 1.37, 8.71 1.56" stroke="#000000" stroke-width="1" fill="none"></path></g><g stroke-linecap="round" transform="translate(369.5906432748554 133.0116959064327) rotate(0 16.15497076023395 15.204678362573105)"><path d="M13.47 -0.59 C16.73 -1.57, 20.51 0.23, 23.49 1.78 C26.48 3.33, 30.2 5.67, 31.4 8.7 C32.59 11.73, 31.95 16.59, 30.66 19.96 C29.37 23.32, 26.57 27.1, 23.65 28.92 C20.72 30.73, 16.53 31.39, 13.12 30.87 C9.7 30.36, 5.3 28.49, 3.18 25.84 C1.06 23.2, 0.24 18.54, 0.4 15.03 C0.56 11.52, 1.86 7.23, 4.14 4.78 C6.42 2.32, 12.14 1.13, 14.08 0.3 C16.02 -0.52, 15.86 -0.36, 15.77 -0.16 M13.88 0.3 C17.41 -0.32, 21.85 2.04, 24.97 3.47 C28.09 4.91, 31.57 6.18, 32.58 8.91 C33.58 11.65, 32.15 16.67, 31 19.89 C29.85 23.12, 28.55 26.43, 25.68 28.26 C22.81 30.09, 17.45 31.23, 13.77 30.88 C10.09 30.54, 6.09 28.55, 3.61 26.16 C1.13 23.78, -0.94 20.05, -1.09 16.57 C-1.25 13.09, 0.5 8.17, 2.67 5.27 C4.84 2.36, 10.07 0.04, 11.93 -0.85 C13.78 -1.75, 13.53 -0.45, 13.79 -0.09" stroke="none" stroke-width="0" fill="#ced4da"></path><path d="M19.77 0.04 C22.77 0.68, 27.22 3.88, 29.22 6.73 C31.22 9.58, 32.11 13.94, 31.76 17.16 C31.41 20.37, 29.58 23.82, 27.13 25.99 C24.68 28.16, 20.64 30.01, 17.06 30.2 C13.49 30.39, 8.57 29.09, 5.67 27.13 C2.77 25.16, 0.35 21.37, -0.33 18.42 C-1.01 15.48, 0.06 12.46, 1.58 9.47 C3.1 6.48, 4.83 1.73, 8.78 0.49 C12.73 -0.76, 22.05 1.37, 25.28 2 C28.51 2.63, 28.39 4.12, 28.19 4.28 M16.64 0.55 C19.82 0.59, 23.98 1.85, 26.73 3.9 C29.49 5.96, 32.78 9.42, 33.17 12.9 C33.56 16.37, 31.16 21.85, 29.05 24.73 C26.94 27.62, 23.72 29.31, 20.49 30.2 C17.26 31.09, 12.75 31.4, 9.66 30.08 C6.57 28.75, 3.71 25.12, 1.94 22.25 C0.16 19.37, -1.7 15.97, -1 12.8 C-0.3 9.63, 3.39 5.47, 6.11 3.24 C8.84 1, 13.42 -0.17, 15.33 -0.62 C17.24 -1.06, 17.58 0.2, 17.58 0.57" stroke="#000000" stroke-width="1" fill="none"></path></g><g stroke-linecap="round" transform="translate(302.2017587447476 130.46144262447547) rotate(0 16.7390271530966 16.290660354352923)"><path d="M8.42 1.27 C11.2 -0.44, 17.12 -0.11, 20.59 0.65 C24.06 1.41, 27.11 3.21, 29.23 5.84 C31.35 8.47, 33.26 12.91, 33.31 16.43 C33.37 19.95, 31.92 24.41, 29.57 26.94 C27.22 29.48, 22.82 31.1, 19.24 31.65 C15.66 32.2, 11.26 31.95, 8.08 30.25 C4.9 28.56, 1.44 24.86, 0.17 21.47 C-1.1 18.07, -1.25 13.13, 0.49 9.89 C2.23 6.65, 8.82 3.6, 10.61 2.02 C12.4 0.45, 11.17 0.37, 11.23 0.43 M10.24 2.07 C13.4 0.7, 19.82 1.13, 23.06 1.96 C26.31 2.79, 28.07 4.1, 29.7 7.05 C31.34 10, 33.15 16.08, 32.88 19.67 C32.61 23.26, 30.5 26.46, 28.07 28.58 C25.65 30.69, 21.71 32.43, 18.34 32.37 C14.97 32.31, 10.6 30.47, 7.84 28.22 C5.08 25.97, 2.8 22.33, 1.77 18.89 C0.73 15.44, 0.41 10.39, 1.63 7.53 C2.85 4.67, 7.75 2.73, 9.09 1.73 C10.43 0.72, 9.46 1.18, 9.68 1.49" stroke="none" stroke-width="0" fill="#ced4da"></path><path d="M23.58 1.33 C26.7 2.68, 30.46 6.06, 32.05 9.27 C33.64 12.49, 34.16 17.24, 33.12 20.64 C32.09 24.04, 28.92 27.85, 25.85 29.67 C22.79 31.48, 18.33 32.02, 14.74 31.53 C11.15 31.05, 6.81 29.13, 4.29 26.76 C1.77 24.38, -0.36 20.77, -0.38 17.27 C-0.39 13.78, 2.16 8.5, 4.21 5.81 C6.27 3.12, 8.1 1.37, 11.95 1.12 C15.81 0.87, 24.42 3.29, 27.32 4.31 C30.21 5.34, 29.54 7.12, 29.31 7.26 M19.38 -0.13 C22.9 0.26, 26.69 3.76, 28.99 6.23 C31.3 8.71, 32.81 11.5, 33.22 14.71 C33.64 17.93, 33.55 22.68, 31.51 25.52 C29.47 28.37, 24.58 30.89, 20.97 31.78 C17.36 32.66, 13.17 32.6, 9.88 30.85 C6.59 29.09, 2.63 24.49, 1.25 21.24 C-0.14 17.99, 0.47 14.69, 1.55 11.34 C2.62 8, 4.93 2.9, 7.71 1.16 C10.49 -0.57, 16.32 1.31, 18.21 0.96 C20.1 0.6, 18.96 -1.03, 19.05 -0.95" stroke="#ced4da" stroke-width="1" fill="none"></path></g><g stroke-linecap="round" transform="translate(347.3373498182756 117.90717225965307) rotate(0 20.17650594346466 21.67106193927684)"><path d="M29.27 2.47 C32.96 4.29, 37.54 8.31, 39.09 12.62 C40.64 16.92, 40.08 23.59, 38.56 28.29 C37.03 32.98, 33.57 38.21, 29.93 40.79 C26.29 43.37, 21 44.44, 16.73 43.77 C12.46 43.09, 7.04 40.39, 4.32 36.74 C1.6 33.09, 0.31 26.76, 0.41 21.86 C0.5 16.97, 2.27 10.91, 4.89 7.37 C7.52 3.83, 11.77 1.44, 16.16 0.62 C20.55 -0.19, 28.9 1.98, 31.25 2.5 C33.6 3.02, 30.63 3.47, 30.26 3.73 M26.24 2.21 C30.39 2.91, 35.72 4.76, 38 8.25 C40.28 11.74, 40.28 18.38, 39.92 23.16 C39.55 27.95, 38.75 33.49, 35.81 36.95 C32.86 40.42, 26.82 43.37, 22.24 43.97 C17.67 44.56, 12.13 43.11, 8.35 40.53 C4.57 37.96, 0.83 33.25, -0.43 28.53 C-1.68 23.82, -0.96 16.85, 0.83 12.25 C2.63 7.65, 6.16 2.93, 10.33 0.91 C14.51 -1.12, 23.41 0.16, 25.89 0.13 C28.38 0.1, 25.29 0.42, 25.26 0.75" stroke="none" stroke-width="0" fill="#ced4da"></path><path d="M21.53 0.07 C25.71 0.31, 30.86 3.38, 33.95 6.62 C37.03 9.87, 39.62 15, 40.06 19.54 C40.49 24.08, 39.16 30.1, 36.57 33.88 C33.97 37.66, 28.78 41.06, 24.5 42.24 C20.22 43.41, 14.68 42.65, 10.9 40.92 C7.13 39.19, 3.68 36.12, 1.83 31.85 C-0.01 27.58, -1.4 20, -0.17 15.31 C1.06 10.62, 4.51 6.12, 9.21 3.69 C13.91 1.26, 24.12 0.62, 28.04 0.74 C31.95 0.87, 32.88 3.92, 32.7 4.42 M15.1 0.6 C19.22 -0.85, 26.31 -0.3, 30.1 1.99 C33.89 4.29, 36.38 9.99, 37.86 14.37 C39.33 18.74, 40.08 23.89, 38.93 28.24 C37.79 32.59, 34.48 37.99, 31 40.47 C27.52 42.96, 22.52 43.65, 18.06 43.15 C13.6 42.65, 7.27 40.8, 4.25 37.47 C1.23 34.13, 0.21 28.01, -0.09 23.14 C-0.38 18.27, -0.25 11.95, 2.46 8.24 C5.18 4.53, 14.26 2.06, 16.2 0.88 C18.13 -0.31, 14.17 1, 14.06 1.12" stroke="#ced4da" stroke-width="1" fill="none"></path></g><g stroke-linecap="round" transform="translate(361.3861761789071 133.15164341693583) rotate(0 19.279772345977335 14.796104358540731)"><path d="M23.65 0.59 C27.51 1.04, 31.31 2.81, 33.77 5.18 C36.23 7.54, 38.35 11.58, 38.39 14.78 C38.43 17.98, 36.71 22.06, 34.01 24.37 C31.3 26.69, 26.26 28.13, 22.14 28.66 C18.02 29.19, 12.92 29.06, 9.28 27.55 C5.64 26.04, 1.73 22.69, 0.3 19.61 C-1.14 16.53, -1.08 11.92, 0.67 9.05 C2.42 6.18, 6.59 3.84, 10.8 2.4 C15.02 0.95, 22.96 0.48, 25.94 0.4 C28.92 0.32, 28.85 1.49, 28.68 1.91 M24.34 1.51 C28.06 1.71, 30.87 2.61, 33.16 5.09 C35.45 7.58, 37.98 13.13, 38.08 16.42 C38.18 19.71, 36.28 22.72, 33.78 24.85 C31.27 26.98, 26.93 28.95, 23.06 29.21 C19.19 29.47, 14.01 28.18, 10.56 26.41 C7.12 24.64, 3.99 21.61, 2.4 18.57 C0.82 15.53, 0.01 10.87, 1.07 8.16 C2.13 5.44, 5.25 3.64, 8.78 2.3 C12.32 0.97, 19.99 0.31, 22.26 0.15 C24.53 -0.01, 22.47 1.31, 22.39 1.33" stroke="none" stroke-width="0" fill="#ced4da"></path><path d="M10.97 0.98 C14.55 -0.46, 20.45 -0.58, 24.42 0.26 C28.39 1.1, 32.47 3.58, 34.79 6.03 C37.11 8.49, 38.68 11.95, 38.33 15.01 C37.97 18.06, 35.62 21.96, 32.68 24.37 C29.75 26.78, 24.61 29.15, 20.71 29.45 C16.82 29.74, 12.8 27.82, 9.33 26.14 C5.86 24.47, 1.2 22.24, -0.11 19.4 C-1.42 16.56, -0.89 12.22, 1.48 9.1 C3.84 5.97, 11.27 2.11, 14.08 0.65 C16.89 -0.8, 18.1 0.26, 18.35 0.37 M18.45 1.03 C22.23 0.62, 27.29 0.63, 30.81 2.29 C34.33 3.95, 38.53 7.84, 39.55 11 C40.56 14.16, 38.91 18.33, 36.89 21.25 C34.87 24.17, 31.33 27.49, 27.42 28.54 C23.5 29.59, 17.32 28.53, 13.39 27.54 C9.45 26.55, 6 25.28, 3.8 22.59 C1.6 19.91, -0.1 14.39, 0.21 11.41 C0.52 8.42, 2.57 6.83, 5.65 4.7 C8.74 2.57, 16.57 -0.61, 18.72 -1.39 C20.88 -2.17, 18.78 -0.37, 18.57 0.01" stroke="#ced4da" stroke-width="1" fill="none"></path></g><g stroke-linecap="round" transform="translate(327.6092106735513 112.22785947556565) rotate(0 16.141204754771707 16.29066035435295)"><path d="M9.41 0.58 C12.23 -1.03, 16.26 -0.77, 19.43 0.4 C22.59 1.56, 26.37 4.6, 28.41 7.58 C30.45 10.55, 31.91 14.79, 31.64 18.25 C31.37 21.71, 29.06 26.05, 26.8 28.35 C24.53 30.64, 21.26 31.93, 18.05 32 C14.84 32.07, 10.44 30.65, 7.55 28.78 C4.66 26.91, 1.58 24.07, 0.71 20.77 C-0.17 17.47, 0.31 12.43, 2.3 9 C4.28 5.56, 10.14 1.71, 12.61 0.15 C15.08 -1.42, 16.89 -0.77, 17.14 -0.42 M17.74 -1.06 C20.85 -1.51, 23.8 1.1, 26.43 3.56 C29.06 6.02, 32.86 10.07, 33.51 13.71 C34.16 17.36, 32.39 22.25, 30.33 25.44 C28.27 28.63, 24.66 31.65, 21.14 32.87 C17.62 34.1, 12.57 34.3, 9.2 32.81 C5.82 31.32, 2.61 27.4, 0.9 23.94 C-0.81 20.48, -2 15.52, -1.08 12.02 C-0.15 8.53, 3.55 5.03, 6.46 2.96 C9.37 0.88, 14.58 0.14, 16.38 -0.42 C18.18 -0.99, 17.49 -0.55, 17.26 -0.44" stroke="none" stroke-width="0" fill="#ced4da"></path><path d="M11.2 0.96 C14.32 -0.19, 19.25 -0.12, 22.46 1.21 C25.67 2.54, 29.06 5.84, 30.46 8.94 C31.86 12.05, 31.79 16.5, 30.86 19.85 C29.93 23.2, 27.51 26.76, 24.86 29.04 C22.21 31.31, 18.43 33.81, 14.97 33.51 C11.51 33.21, 6.48 29.85, 4.11 27.22 C1.74 24.6, 0.9 21.23, 0.74 17.77 C0.59 14.3, 1.19 9.42, 3.18 6.43 C5.16 3.45, 10.97 0.78, 12.66 -0.15 C14.34 -1.08, 13.34 0.51, 13.28 0.85 M20.04 0.03 C23.22 0.66, 25.84 4.51, 27.78 7.32 C29.72 10.14, 31.62 13.52, 31.66 16.9 C31.71 20.28, 30.17 25.06, 28.05 27.62 C25.93 30.18, 22.49 31.7, 18.92 32.29 C15.36 32.88, 9.65 32.9, 6.63 31.15 C3.62 29.41, 1.99 25.34, 0.81 21.82 C-0.36 18.3, -1.79 13.25, -0.43 10.01 C0.93 6.77, 5.97 4, 8.97 2.39 C11.98 0.78, 16.01 0.82, 17.63 0.34 C19.24 -0.15, 18.59 -0.54, 18.67 -0.52" stroke="#ced4da" stroke-width="1" fill="none"></path></g><g stroke-linecap="round" transform="translate(313.85929551208693 120.59737305211382) rotate(0 22.26888433760169 20.325961543045864)"><path d="M16.58 -0.33 C20.94 -1.64, 28.02 -0.61, 32.52 1.45 C37.03 3.52, 41.67 8.02, 43.6 12.06 C45.53 16.1, 45.59 21.4, 44.11 25.71 C42.64 30.02, 38.98 35.37, 34.75 37.92 C30.52 40.48, 23.72 41.68, 18.74 41.05 C13.76 40.41, 7.95 37.29, 4.86 34.11 C1.76 30.92, 0.29 26.42, 0.18 21.93 C0.06 17.45, 1.11 10.88, 4.17 7.21 C7.23 3.54, 16.07 0.94, 18.54 -0.08 C21.01 -1.11, 18.85 0.67, 18.99 1.07 M26.85 0.31 C30.99 1.14, 37.04 6.32, 39.96 9.99 C42.88 13.67, 44.56 18.3, 44.36 22.37 C44.17 26.44, 41.95 31.58, 38.8 34.43 C35.66 37.28, 30.14 39.22, 25.49 39.47 C20.84 39.72, 15.08 38.48, 10.93 35.95 C6.78 33.42, 2.27 28.26, 0.6 24.31 C-1.06 20.36, -0.97 16, 0.94 12.26 C2.86 8.52, 7.69 3.65, 12.11 1.84 C16.54 0.04, 25 1.81, 27.48 1.44 C29.97 1.08, 27.29 -0.32, 27.03 -0.35" stroke="none" stroke-width="0" fill="#ced4da"></path><path d="M18.69 0.1 C23.07 -0.83, 29.14 0.49, 33.19 2.54 C37.25 4.59, 41.4 8.41, 43.01 12.4 C44.62 16.38, 44.52 22.21, 42.86 26.45 C41.19 30.69, 36.93 35.66, 33.02 37.84 C29.11 40.01, 24.17 40.13, 19.4 39.5 C14.64 38.87, 7.7 37.18, 4.42 34.07 C1.14 30.95, -0.26 25.21, -0.26 20.79 C-0.26 16.37, 1.19 10.97, 4.41 7.54 C7.64 4.11, 16.29 1.48, 19.11 0.21 C21.93 -1.05, 21.19 -0.43, 21.31 -0.04 M20.08 -0.7 C24.82 -1.6, 32.43 0.49, 36.47 3.05 C40.51 5.61, 43.17 10.33, 44.3 14.65 C45.43 18.97, 45.36 25.18, 43.25 28.97 C41.14 32.76, 35.95 35.57, 31.63 37.38 C27.31 39.19, 21.91 40.97, 17.32 39.83 C12.72 38.7, 7.05 33.97, 4.07 30.56 C1.1 27.15, -0.99 23.73, -0.54 19.39 C-0.1 15.06, 3.28 7.83, 6.76 4.56 C10.25 1.29, 18.31 0.56, 20.39 -0.22 C22.47 -1, 19.46 -0.74, 19.25 -0.11" stroke="#ced4da" stroke-width="1" fill="none"></path></g><g transform="translate(329.8206382772197 135.8254210564652) rotate(0 19.813864646757935 10.917843784948232)"><text x="19.813864646757942" y="15.83568756989646" font-family="Virgil, Segoe UI Emoji" font-size="16.174583385108523px" fill="#000000" text-anchor="middle" style="white-space: pre;" direction="ltr">cloud</text></g><g stroke-linecap="round" transform="translate(358.9473684210525 112.10526315789474) rotate(0 482.3684210526316 256.5789473684211)"><path d="M128.29 0 L836.45 0 L851.98 0.5 L866.52 2 L880.05 4.51 L892.57 8.02 L904.1 12.53 L914.62 18.04 L924.15 24.56 L932.66 32.07 L940.18 40.59 L946.7 50.11 L952.21 60.64 L956.72 72.16 L960.23 84.69 L962.73 98.22 L964.24 112.75 L964.74 128.29 L964.24 400.4 L962.73 414.94 L960.23 428.47 L956.72 441 L952.21 452.52 L946.7 463.04 L940.18 472.57 L932.66 481.09 L924.15 488.6 L914.62 495.12 L904.1 500.63 L892.57 505.14 L880.05 508.65 L866.52 511.15 L851.98 512.66 L128.29 513.16 L112.75 512.66 L98.22 511.15 L84.69 508.65 L72.16 505.14 L60.64 500.63 L50.11 495.12 L40.59 488.6 L32.07 481.09 L24.56 472.57 L18.04 463.04 L12.53 452.52 L8.02 441 L4.51 428.47 L2 414.94 L0.5 400.4 L0 384.87 L0 128.29 L0.5 112.75 L2 98.22 L4.51 84.69 L8.02 72.16 L12.53 60.64 L18.04 50.11 L24.56 40.59 L32.07 32.07 L40.59 24.56 L50.11 18.04 L60.64 12.53 L72.16 8.02 L84.69 4.51 L98.22 2 L112.75 0.5 L128.29 0" stroke="none" stroke-width="0" fill="#FFF"></path><path d="M128.29 0 M128.29 0 C320.04 0, 511.79 0, 836.45 0 M836.45 0 C921.97 0, 964.74 42.76, 964.74 128.29 M964.74 128.29 C964.74 209.5, 964.74 290.71, 964.74 384.87 M964.74 384.87 C964.74 470.39, 921.97 513.16, 836.45 513.16 M836.45 513.16 C666.57 513.16, 496.69 513.16, 128.29 513.16 M128.29 513.16 C42.76 513.16, 0 470.39, 0 384.87 M0 384.87 C0 318.78, 0 252.69, 0 128.29 M0 128.29 C0 42.76, 42.76 0, 128.29 0" stroke="#00ff00" stroke-width="2.5" fill="none" stroke-dasharray="8 10"></path></g><g transform="translate(276.8421052631578 161.74162679425837) rotate(0 45.15789473684208 27.71052631578948)"><text x="0" y="21.710526315789476" font-family="Helvetica, Segoe UI Emoji" font-size="24.23413906667494px" fill="#00ff00" text-anchor="start" style="white-space: pre;" direction="ltr">Region-</text><text x="0" y="49.42105263157895" font-family="Helvetica, Segoe UI Emoji" font-size="24.23413906667494px" fill="#00ff00" text-anchor="start" style="white-space: pre;" direction="ltr">East US</text></g><g stroke-linecap="round" transform="translate(399.9999999999999 183.9473684210525) rotate(0 441.3157894736842 205.26315789473685)"><path d="M0.48 -0.47 C284.72 1.31, 571.29 1.43, 882.49 0.5 M0.19 -0.32 C286.31 0.1, 573.52 0.03, 882.89 -0.27 M882.39 0.62 C881.99 128.78, 881.26 257.7, 883.56 410.83 M883.11 -0.22 C883.94 99.69, 884.36 199.05, 882.62 410.12 M883.2 411.17 C618.49 407.1, 355.02 407.93, -0.54 410.63 M882.97 410.58 C585.82 407.6, 288.91 407.35, 0.13 410.53 M-0.22 411.33 C0.62 312.19, -0.64 211.3, 1.03 -1.08 M0.16 409.99 C-0.09 246.6, 0.06 83.89, 0.21 0.4" stroke="#000000" stroke-width="1" fill="none"></path></g><g transform="translate(441.0526315789473 163.42105263157896) rotate(0 84.67105263157895 11.28947368421052)"><text x="0" y="17.578947368421048" font-family="Helvetica, Segoe UI Emoji" font-size="19.8130461288356px" fill="#5f3dc4" text-anchor="start" style="white-space: pre;" direction="ltr">VNET  10.0.0.0/16 </text></g><g stroke-linecap="round" transform="translate(564.2105263157893 235.26315789473688) rotate(0 143.68421052631578 153.9473684210526)"><path d="M71.84 0 L215.53 0 L232.36 1.12 L246.96 4.49 L259.31 10.1 L269.41 17.96 L277.27 28.06 L282.88 40.41 L284.84 47.43 L287.09 63.14 L287.09 244.75 L284.84 260.47 L280.35 273.94 L273.62 285.16 L264.64 294.14 L259.31 297.79 L246.96 303.4 L239.94 305.37 L224.23 307.61 L63.14 307.61 L47.43 305.37 L33.96 300.88 L28.06 297.79 L17.96 289.93 L10.1 279.83 L4.49 267.48 L2.53 260.47 L0.28 244.75 L0 71.84 L1.12 55 L2.53 47.43 L4.49 40.41 L10.1 28.06 L17.96 17.96 L28.06 10.1 L40.41 4.49 L47.43 2.53 L55 1.12 L71.84 0" stroke="none" stroke-width="0" fill="#FFF"></path><path d="M71.84 0 M71.84 0 C118.99 0, 166.13 0, 215.53 0 M71.84 0 C125.63 0, 179.41 0, 215.53 0 M215.53 0 C263.42 0, 287.37 23.95, 287.37 71.84 M215.53 0 C263.42 0, 287.37 23.95, 287.37 71.84 M287.37 71.84 C287.37 109.6, 287.37 147.35, 287.37 236.05 M287.37 71.84 C287.37 133.72, 287.37 195.59, 287.37 236.05 M287.37 236.05 C287.37 283.95, 263.42 307.89, 215.53 307.89 M287.37 236.05 C287.37 283.95, 263.42 307.89, 215.53 307.89 M215.53 307.89 C170.17 307.89, 124.81 307.89, 71.84 307.89 M215.53 307.89 C167.66 307.89, 119.79 307.89, 71.84 307.89 M71.84 307.89 C23.95 307.89, 0 283.95, 0 236.05 M71.84 307.89 C23.95 307.89, 0 283.95, 0 236.05 M0 236.05 C0 185.8, 0 135.54, 0 71.84 M0 236.05 C0 191.03, 0 146.01, 0 71.84 M0 71.84 C0 23.95, 23.95 0, 71.84 0 M0 71.84 C0 23.95, 23.95 0, 71.84 0" stroke="#0f0" stroke-width="1" fill="none"></path></g><g stroke-linecap="round" transform="translate(892.6315789473683 235.26315789473688) rotate(0 143.68421052631578 153.9473684210526)"><path d="M71.84 0 L215.53 0 L232.36 1.12 L246.96 4.49 L259.31 10.1 L269.41 17.96 L277.27 28.06 L282.88 40.41 L284.84 47.43 L287.09 63.14 L287.09 244.75 L284.84 260.47 L280.35 273.94 L273.62 285.16 L264.64 294.14 L259.31 297.79 L246.96 303.4 L239.94 305.37 L224.23 307.61 L63.14 307.61 L47.43 305.37 L33.96 300.88 L28.06 297.79 L17.96 289.93 L10.1 279.83 L4.49 267.48 L2.53 260.47 L0.28 244.75 L0 71.84 L1.12 55 L2.53 47.43 L4.49 40.41 L10.1 28.06 L17.96 17.96 L28.06 10.1 L40.41 4.49 L47.43 2.53 L55 1.12 L71.84 0" stroke="none" stroke-width="0" fill="#FFF"></path><path d="M71.84 0 M71.84 0 C106.24 0, 140.63 0, 215.53 0 M71.84 0 C119.26 0, 166.68 0, 215.53 0 M215.53 0 C263.42 0, 287.37 23.95, 287.37 71.84 M215.53 0 C263.42 0, 287.37 23.95, 287.37 71.84 M287.37 71.84 C287.37 106.04, 287.37 140.24, 287.37 236.05 M287.37 71.84 C287.37 122.61, 287.37 173.38, 287.37 236.05 M287.37 236.05 C287.37 283.95, 263.42 307.89, 215.53 307.89 M287.37 236.05 C287.37 283.95, 263.42 307.89, 215.53 307.89 M215.53 307.89 C167.73 307.89, 119.93 307.89, 71.84 307.89 M215.53 307.89 C166.51 307.89, 117.48 307.89, 71.84 307.89 M71.84 307.89 C23.95 307.89, 0 283.95, 0 236.05 M71.84 307.89 C23.95 307.89, 0 283.95, 0 236.05 M0 236.05 C0 182.16, 0 128.26, 0 71.84 M0 236.05 C0 196.14, 0 156.22, 0 71.84 M0 71.84 C0 23.95, 23.95 0, 71.84 0 M0 71.84 C0 23.95, 23.95 0, 71.84 0" stroke="#f00" stroke-width="1" fill="none"></path></g><g transform="translate(523.1578947368421 245.52631578947359) rotate(0 41.05263157894737 15.39473684210526)"><text x="0" y="12.394736842105264" font-family="Helvetica, Segoe UI Emoji" font-size="13.916146297948263px" fill="#f00" text-anchor="start" style="white-space: pre;" direction="ltr">public subnet</text><text x="0" y="27.789473684210527" font-family="Helvetica, Segoe UI Emoji" font-size="13.916146297948263px" fill="#f00" text-anchor="start" style="white-space: pre;" direction="ltr">10.0.0.0/24</text></g><g transform="translate(913.1578947368419 245.52631578947359) rotate(0 43.61842105263159 15.39473684210526)"><text x="0" y="12.394736842105264" font-family="Helvetica, Segoe UI Emoji" font-size="13.916146297948265px" fill="#f00" text-anchor="start" style="white-space: pre;" direction="ltr">private subnet</text><text x="0" y="27.789473684210527" font-family="Helvetica, Segoe UI Emoji" font-size="13.916146297948265px" fill="#f00" text-anchor="start" style="white-space: pre;" direction="ltr">10.0.1.0/24</text></g><g stroke-linecap="round" transform="translate(646.3157894736843 317.36842105263145) rotate(0 61.578947368421055 82.10526315789474)"><path d="M30.79 0 L99.58 0.48 L105.84 1.92 L111.13 4.33 L115.46 7.7 L118.83 12.03 L121.23 17.32 L122.68 23.57 L123.16 30.79 L123.16 133.42 L122.68 140.64 L121.23 146.89 L118.83 152.18 L115.46 156.51 L111.13 159.88 L105.84 162.29 L99.58 163.73 L92.37 164.21 L23.57 163.73 L17.32 162.29 L12.03 159.88 L7.7 156.51 L4.33 152.18 L1.92 146.89 L0.48 140.64 L0 133.42 L0.48 23.57 L1.92 17.32 L4.33 12.03 L7.7 7.7 L12.03 4.33 L17.32 1.92 L23.57 0.48 L30.79 0" stroke="none" stroke-width="0" fill="#FFF"></path><path d="M30.79 0 M30.79 0 C54.94 0, 79.1 0, 92.37 0 M30.79 0 C52.74 0, 74.69 0, 92.37 0 M92.37 0 C112.89 0, 123.16 10.26, 123.16 30.79 M92.37 0 C112.89 0, 123.16 10.26, 123.16 30.79 M123.16 30.79 C123.16 61.46, 123.16 92.13, 123.16 133.42 M123.16 30.79 C123.16 57.1, 123.16 83.41, 123.16 133.42 M123.16 133.42 C123.16 153.95, 112.89 164.21, 92.37 164.21 M123.16 133.42 C123.16 153.95, 112.89 164.21, 92.37 164.21 M92.37 164.21 C70.19 164.21, 48.01 164.21, 30.79 164.21 M92.37 164.21 C77.23 164.21, 62.08 164.21, 30.79 164.21 M30.79 164.21 C10.26 164.21, 0 153.95, 0 133.42 M30.79 164.21 C10.26 164.21, 0 153.95, 0 133.42 M0 133.42 C0 101.92, 0 70.43, 0 30.79 M0 133.42 C0 101.62, 0 69.82, 0 30.79 M0 30.79 C0 10.26, 10.26 0, 30.79 0 M0 30.79 C0 10.26, 10.26 0, 30.79 0" stroke="#4285f4" stroke-width="1" fill="none"></path></g><g transform="translate(666.8421052631577 358.421052631579) rotate(0 41.56578947368421 19.499999999999996)"><text x="0" y="14.499999999999996" font-family="Helvetica, Segoe UI Emoji" font-size="16.60369325741045px" fill="#862e9c" text-anchor="start" style="white-space: pre;" direction="ltr">Mattermost</text><text x="0" y="33.99999999999999" font-family="Helvetica, Segoe UI Emoji" font-size="16.60369325741045px" fill="#862e9c" text-anchor="start" style="white-space: pre;" direction="ltr">Server</text></g><g stroke-linecap="round" transform="translate(995.2631578947367 327.63157894736827) rotate(0 61.57894736842104 51.31578947368421)"><path d="M25.66 0 L103.51 0.4 L108.73 1.6 L113.14 3.61 L116.74 6.41 L119.55 10.02 L121.55 14.43 L123.16 25.66 L122.76 82.99 L121.55 88.2 L119.55 92.61 L116.74 96.22 L113.14 99.02 L108.73 101.03 L97.5 102.63 L19.64 102.23 L14.43 101.03 L10.02 99.02 L6.41 96.22 L3.61 92.61 L1.6 88.2 L0.4 82.99 L0.4 19.64 L1.6 14.43 L3.61 10.02 L6.41 6.41 L10.02 3.61 L14.43 1.6 L25.66 0" stroke="none" stroke-width="0" fill="#FFF"></path><path d="M25.66 0 M25.66 0 C52.57 0, 79.48 0, 97.5 0 M25.66 0 C50.99 0, 76.33 0, 97.5 0 M97.5 0 C114.61 0, 123.16 8.55, 123.16 25.66 M97.5 0 C114.61 0, 123.16 8.55, 123.16 25.66 M123.16 25.66 C123.16 45.07, 123.16 64.48, 123.16 76.97 M123.16 25.66 C123.16 42.97, 123.16 60.27, 123.16 76.97 M123.16 76.97 C123.16 94.08, 114.61 102.63, 97.5 102.63 M123.16 76.97 C123.16 94.08, 114.61 102.63, 97.5 102.63 M97.5 102.63 C75.28 102.63, 53.07 102.63, 25.66 102.63 M97.5 102.63 C80.97 102.63, 64.44 102.63, 25.66 102.63 M25.66 102.63 C8.55 102.63, 0 94.08, 0 76.97 M25.66 102.63 C8.55 102.63, 0 94.08, 0 76.97 M0 76.97 C0 64.11, 0 51.24, 0 25.66 M0 76.97 C0 61.71, 0 46.46, 0 25.66 M0 25.66 C0 8.55, 8.55 0, 25.66 0 M0 25.66 C0 8.55, 8.55 0, 25.66 0" stroke="#4285f4" stroke-width="1" fill="none"></path></g><g transform="translate(1015.7894736842104 307.10526315789474) rotate(0 15.90789473684211 11.80263157894737)"><text x="0" y="18.605263157894736" font-family="Helvetica, Segoe UI Emoji" font-size="20.526315789473685px" fill="#087f5b" text-anchor="start" style="white-space: pre;" direction="ltr">VM</text></g><g stroke-linecap="round" transform="translate(461.57894736842104 214.73684210526318) rotate(0 390 184.73684210526312)"><path d="M92.37 0 M92.37 0 C307.16 2.78, 524.01 0.73, 687.63 0 M687.63 0 C752.99 -2.08, 779.68 29.16, 780 92.37 M780 92.37 C777.86 143.04, 779.38 189.58, 780 277.11 M780 277.11 C776.81 335.67, 745.75 365.79, 687.63 369.47 M687.63 369.47 C492.46 373.49, 293.2 372.82, 92.37 369.47 M92.37 369.47 C27.89 370.71, -2.35 340.71, 0 277.11 M0 277.11 C-4.54 211.52, -0.95 138.62, 0 92.37 M0 92.37 C-2.03 32.07, 28.61 0.18, 92.37 0" stroke="#0000ff" stroke-width="1.5" fill="none" stroke-dasharray="8 9"></path></g><g transform="translate(441.0526315789473 214.73684210526315) rotate(0 33.35526315789474 11.80263157894737)"><text x="0" y="18.605263157894736" font-family="Helvetica, Segoe UI Emoji" font-size="20.526315789473685px" fill="#0000ff" text-anchor="start" style="white-space: pre;" direction="ltr">east us</text></g><g stroke-linecap="round"><g transform="translate(1037.5687351806932 352.65010561657095) rotate(0 19.564650998353727 21.64214831558881)" fill-rule="evenodd"><path d="M1.43 0.41 L1.79 43.74 L10.37 44.49 L19.15 44.62 L37.24 42.37 L40.46 -1.27 L32.93 -1 L18.47 -5.39 L9.5 -3.51 L0.08 0.19" stroke="none" stroke-width="0" fill="#ced4da" fill-rule="evenodd"></path><path d="M0.24 0.49 C0.5 6.79, 0.69 30.54, 0.47 37.63 C0.24 44.71, -1.49 41.85, -1.13 42.98 C-0.78 44.11, 1.05 44.03, 2.59 44.4 C4.13 44.77, 5.01 45.04, 8.09 45.21 C11.17 45.39, 17.28 45.61, 21.07 45.44 C24.85 45.28, 28.16 44.4, 30.8 44.22 C33.43 44.04, 35.4 44.66, 36.89 44.39 C38.38 44.11, 39.35 43.49, 39.73 42.56 C40.11 41.63, 39.3 45.2, 39.19 38.79 C39.09 32.39, 39.29 10.69, 39.11 4.12 C38.92 -2.45, 38.69 0.32, 38.06 -0.63 C37.43 -1.58, 36.37 -1.29, 35.32 -1.58 C34.27 -1.87, 34.65 -2.14, 31.77 -2.36 C28.89 -2.58, 21.74 -2.9, 18.06 -2.92 C14.39 -2.94, 12.53 -2.7, 9.74 -2.48 C6.95 -2.26, 2.8 -2.07, 1.31 -1.62 C-0.18 -1.18, 1.19 -0.12, 0.8 0.2 C0.41 0.52, -1.01 0.29, -1.03 0.3 M-1.1 -0.3 C-0.86 6.19, -0.68 32.14, -0.3 39.03 C0.07 45.93, 0.59 39.94, 1.16 41.05 C1.74 42.16, 1.7 44.97, 3.14 45.69 C4.59 46.41, 7.19 45.05, 9.84 45.39 C12.49 45.73, 15.52 47.62, 19.02 47.71 C22.53 47.81, 27.53 46.48, 30.87 45.95 C34.2 45.42, 37.74 45.27, 39.03 44.53 C40.32 43.8, 38.42 42.53, 38.61 41.53 C38.8 40.54, 39.99 45.15, 40.17 38.55 C40.34 31.95, 39.65 8.59, 39.63 1.94 C39.62 -4.7, 40.81 -0.61, 40.07 -1.3 C39.33 -1.99, 36.6 -2.03, 35.19 -2.18 C33.78 -2.32, 34.46 -2.05, 31.6 -2.17 C28.73 -2.29, 22.04 -2.54, 18.01 -2.91 C13.98 -3.28, 10.42 -4.72, 7.39 -4.38 C4.37 -4.04, 1.12 -1.72, -0.12 -0.88 C-1.36 -0.03, -0.19 0.43, -0.05 0.69 C0.09 0.95, 0.44 1.06, 0.71 0.71" stroke="#000000" stroke-width="1" fill="none"></path></g></g><g stroke-linecap="round"><g transform="translate(1037.989667556507 381.4584818621504) rotate(0 19.43635694662646 2.297436902751178)"><path d="M0.49 0.34 C0.65 0.4, -0.18 0.01, 0.78 0.58 C1.74 1.15, 4.42 3.31, 6.24 3.75 C8.05 4.18, 9.36 3.06, 11.67 3.19 C13.98 3.31, 16.96 4.62, 20.11 4.5 C23.27 4.38, 27.87 3.12, 30.59 2.47 C33.31 1.81, 34.89 0.85, 36.43 0.58 C37.96 0.31, 39.27 0.91, 39.79 0.85 M-0.71 -0.53 C-0.72 -0.39, -1.4 1.14, -0.3 1.52 C0.8 1.89, 3.82 1.33, 5.89 1.72 C7.96 2.1, 9.4 3.28, 12.1 3.85 C14.8 4.41, 18.83 4.99, 22.09 5.1 C25.35 5.21, 29.25 4.96, 31.65 4.51 C34.05 4.06, 35.22 2.98, 36.49 2.4 C37.75 1.82, 38.97 1.62, 39.26 1.06" stroke="#000000" stroke-width="1" fill="none"></path></g></g><g stroke-linecap="round"><g transform="translate(1037.3835404340327 367.2356821034913) rotate(0 19.48266996381659 1.577066431431824)"><path d="M0.34 -0.25 C0.28 0.09, -1.06 1.89, -0.12 2.52 C0.83 3.14, 4.26 3.33, 6.03 3.52 C7.79 3.7, 7.99 3.64, 10.47 3.63 C12.95 3.61, 17.63 3.64, 20.91 3.44 C24.19 3.25, 27.56 2.61, 30.17 2.45 C32.78 2.29, 34.96 2.79, 36.58 2.47 C38.21 2.14, 39.46 0.86, 39.91 0.49 M-0.94 -1.42 C-0.67 -1.46, 0.91 0.35, 2 0.81 C3.08 1.27, 4.19 0.74, 5.57 1.36 C6.95 1.98, 7.92 4.16, 10.27 4.52 C12.62 4.87, 16.19 3.49, 19.64 3.48 C23.1 3.48, 28.16 4.8, 31.01 4.49 C33.86 4.17, 35.33 2.27, 36.73 1.61 C38.13 0.95, 39.26 0.94, 39.43 0.5" stroke="#000000" stroke-width="1" fill="none"></path></g></g><g stroke-linecap="round" transform="translate(1036.8329916874238 349.1884308341049) rotate(0 19.286941013841783 3.9006387184343794)"><path d="M23.43 -0.18 C27.35 0.21, 32.58 1.77, 34.98 2.52 C37.39 3.28, 38.15 3.62, 37.86 4.33 C37.58 5.04, 35.86 6.14, 33.27 6.79 C30.69 7.43, 26.48 7.97, 22.35 8.19 C18.22 8.41, 12 8.69, 8.48 8.12 C4.96 7.55, 2.48 5.65, 1.23 4.76 C-0.02 3.88, -0.43 3.6, 0.96 2.8 C2.35 2, 5.58 0.34, 9.57 -0.03 C13.56 -0.4, 22.22 0.47, 24.9 0.56 C27.58 0.66, 25.96 0.51, 25.65 0.54 M12.57 1.24 C15.89 1.05, 21.04 -0.26, 24.91 -0.03 C28.78 0.2, 33.64 1.59, 35.78 2.62 C37.91 3.66, 38.41 5.6, 37.72 6.18 C37.03 6.76, 34.64 5.78, 31.66 6.11 C28.67 6.43, 23.88 8.24, 19.82 8.14 C15.76 8.03, 10.46 5.97, 7.3 5.49 C4.13 5, 1.52 5.85, 0.83 5.23 C0.14 4.62, 1.1 2.73, 3.18 1.81 C5.26 0.88, 11.52 -0.27, 13.31 -0.32 C15.11 -0.38, 13.62 1.53, 13.94 1.48" stroke="none" stroke-width="0" fill="#fff"></path><path d="M24.87 -0.13 C28.63 -0.06, 34.05 0.72, 36.15 1.33 C38.24 1.95, 38.26 2.54, 37.43 3.59 C36.59 4.64, 33.97 6.82, 31.14 7.62 C28.32 8.42, 24.43 8.43, 20.49 8.37 C16.54 8.31, 10.77 7.75, 7.47 7.26 C4.17 6.77, 1.59 6.37, 0.68 5.43 C-0.22 4.49, 0.2 2.41, 2.05 1.61 C3.91 0.81, 7.63 0.74, 11.81 0.62 C15.99 0.49, 24.73 0.76, 27.13 0.87 C29.54 0.98, 26.42 1.2, 26.23 1.29 M16.79 -1.24 C20.7 -1.43, 26.28 0.63, 29.79 1.46 C33.31 2.29, 36.59 2.87, 37.88 3.75 C39.16 4.63, 38.91 5.95, 37.52 6.72 C36.13 7.5, 33.36 8.43, 29.53 8.41 C25.7 8.38, 18.94 7, 14.53 6.58 C10.11 6.15, 5.59 6.12, 3.03 5.86 C0.48 5.61, -1.02 5.95, -0.8 5.06 C-0.58 4.17, 1.27 1.4, 4.36 0.52 C7.45 -0.36, 15.85 -0.17, 17.71 -0.2 C19.57 -0.23, 15.68 0.22, 15.51 0.34" stroke="#000000" stroke-width="1" fill="none"></path></g><g stroke-linecap="round" transform="translate(1055.2100528661254 361.51467708940856) rotate(0 2.8266860868329786 3.067819716281207)"><path d="M2.64 0.3 C3.49 0.2, 5.16 -0.27, 5.69 0.1 C6.23 0.47, 5.89 1.63, 5.85 2.51 C5.81 3.4, 5.74 4.87, 5.45 5.39 C5.16 5.92, 4.57 5.53, 4.12 5.68 C3.66 5.83, 3.39 6.59, 2.71 6.3 C2.04 6.01, 0.42 4.74, 0.05 3.93 C-0.32 3.13, 0.39 1.94, 0.48 1.48 C0.58 1.02, 0.1 1.3, 0.63 1.17 C1.16 1.04, 3.14 0.98, 3.67 0.67 C4.21 0.37, 3.87 -0.5, 3.83 -0.66 M4.31 -1.46 C4.99 -1.38, 4.33 -0.11, 4.65 0.56 C4.97 1.23, 5.92 1.75, 6.23 2.55 C6.54 3.36, 7.14 4.63, 6.52 5.4 C5.9 6.17, 3.3 6.98, 2.52 7.17 C1.73 7.37, 2.41 6.98, 1.8 6.59 C1.19 6.19, -0.99 5.5, -1.14 4.8 C-1.29 4.1, 0.51 3.09, 0.92 2.38 C1.33 1.67, 1.02 0.82, 1.32 0.53 C1.63 0.24, 2.22 0.47, 2.74 0.63 C3.27 0.8, 4.58 1.37, 4.46 1.52" stroke="none" stroke-width="0" fill="#868e96"></path><path d="M3.17 0.42 C3.6 0.5, 4.3 0.01, 4.56 0.36 C4.82 0.7, 4.54 1.54, 4.72 2.49 C4.9 3.45, 5.81 5.41, 5.63 6.07 C5.46 6.73, 4.37 6.47, 3.69 6.44 C3.01 6.42, 2.04 6.42, 1.57 5.94 C1.1 5.46, 1.18 4.32, 0.9 3.54 C0.61 2.76, -0.33 1.64, -0.15 1.25 C0.02 0.85, 1.18 1.43, 1.95 1.15 C2.72 0.88, 3.94 -0.35, 4.46 -0.4 C4.98 -0.45, 5.03 0.77, 5.05 0.87 M1.54 0.37 C2.09 0.33, 4.66 0.58, 5.52 0.99 C6.38 1.4, 6.5 2.06, 6.69 2.84 C6.87 3.63, 6.96 5.32, 6.66 5.7 C6.35 6.08, 5.86 5.24, 4.87 5.1 C3.88 4.95, 1.54 5.05, 0.72 4.83 C-0.1 4.62, -0.18 4.26, -0.08 3.79 C0.02 3.32, 1.27 2.32, 1.32 2.01 C1.37 1.7, 0.01 2.43, 0.22 1.93 C0.43 1.42, 2.11 -0.73, 2.58 -1.04 C3.05 -1.36, 2.99 -0.23, 3.04 0.02" stroke="#000000" stroke-width="1" fill="none"></path></g><g stroke-linecap="round" transform="translate(1055.3868849478408 374.71714598381595) rotate(0 2.8266860868329786 3.067819716281205)"><path d="M2.25 1.12 C2.7 0.98, 2.7 0.33, 3.19 0.45 C3.69 0.57, 4.68 1.24, 5.19 1.85 C5.71 2.46, 6.45 3.36, 6.29 4.12 C6.14 4.88, 4.79 6.14, 4.26 6.43 C3.73 6.72, 3.77 5.96, 3.12 5.85 C2.47 5.74, 1.04 6.24, 0.37 5.77 C-0.31 5.3, -1.02 3.69, -0.92 3.04 C-0.83 2.39, 0.28 2.33, 0.95 1.87 C1.61 1.42, 2.87 0.58, 3.06 0.31 C3.25 0.05, 2.29 0.23, 2.08 0.29 M0.43 -0.15 C0.99 -0.46, 2.63 0.25, 3.37 0.79 C4.11 1.33, 4.42 2.76, 4.85 3.1 C5.29 3.44, 5.87 2.37, 6 2.82 C6.14 3.28, 6.09 5.47, 5.68 5.8 C5.28 6.14, 4.27 4.75, 3.59 4.81 C2.9 4.86, 2.12 6.36, 1.58 6.13 C1.04 5.91, 0.52 4.34, 0.34 3.48 C0.16 2.61, 0.14 1.3, 0.51 0.95 C0.87 0.59, 2.05 1.68, 2.52 1.36 C3 1.04, 3.25 -0.74, 3.36 -0.97" stroke="none" stroke-width="0" fill="#868e96"></path><path d="M3.57 -0.52 C4.11 -0.57, 3.82 -0.6, 4.03 0.11 C4.25 0.82, 4.55 2.86, 4.86 3.76 C5.17 4.67, 6.1 5.11, 5.91 5.55 C5.72 5.99, 4.4 6.23, 3.72 6.4 C3.03 6.57, 2.46 6.99, 1.81 6.55 C1.16 6.12, 0.2 4.48, -0.17 3.8 C-0.54 3.11, -0.82 2.91, -0.43 2.45 C-0.03 2, 1.57 1.28, 2.19 1.06 C2.81 0.84, 2.84 1.06, 3.29 1.13 C3.75 1.19, 4.88 1.56, 4.91 1.46 M4.15 1.06 C4.7 1.62, 5.25 1.94, 5.54 2.6 C5.84 3.25, 5.89 4.32, 5.92 4.96 C5.96 5.61, 6.41 6.48, 5.76 6.48 C5.1 6.49, 2.97 5.24, 1.99 4.99 C1.02 4.74, 0.36 4.99, -0.1 4.97 C-0.56 4.96, -0.76 5.59, -0.77 4.89 C-0.78 4.19, -0.79 1.59, -0.16 0.76 C0.48 -0.06, 2.57 0.01, 3.05 -0.05 C3.53 -0.11, 2.63 0.34, 2.74 0.4 C2.85 0.46, 3.54 0.52, 3.72 0.3" stroke="#000000" stroke-width="1" fill="none"></path></g><g stroke-linecap="round" transform="translate(1055.713644548477 389.20483739699665) rotate(357.5021844865888 2.8266860868329786 3.067819716281205)"><path d="M3.54 -0.67 C4.19 -0.84, 4.29 -0.19, 4.66 0.42 C5.04 1.02, 5.59 2.35, 5.78 2.96 C5.97 3.56, 5.95 3.49, 5.81 4.04 C5.68 4.58, 5.65 5.99, 4.98 6.22 C4.32 6.46, 2.5 5.85, 1.83 5.46 C1.16 5.07, 1.32 4.24, 0.94 3.89 C0.56 3.54, -0.5 3.73, -0.45 3.34 C-0.4 2.95, 0.66 2.24, 1.24 1.55 C1.83 0.85, 2.73 -0.47, 3.06 -0.83 C3.38 -1.18, 3.2 -0.65, 3.21 -0.57 M1.91 -0.42 C2.38 -0.42, 3.87 -0.56, 4.71 -0.11 C5.54 0.34, 6.94 1.44, 6.93 2.3 C6.93 3.17, 5.05 4.39, 4.67 5.08 C4.3 5.78, 5.27 6.21, 4.68 6.49 C4.09 6.76, 1.66 6.91, 1.13 6.74 C0.6 6.56, 1.71 6.03, 1.51 5.45 C1.32 4.88, 0.2 3.9, -0.04 3.29 C-0.28 2.68, -0.51 2.1, 0.06 1.8 C0.64 1.5, 3.26 1.57, 3.42 1.49 C3.58 1.41, 1.31 1.65, 1.04 1.3" stroke="none" stroke-width="0" fill="#868e96"></path><path d="M1.29 -0.72 C1.72 -1.16, 2.07 -1.13, 2.86 -0.61 C3.65 -0.09, 5.49 1.64, 6.05 2.4 C6.6 3.15, 6.36 3.36, 6.18 3.91 C6 4.47, 5.4 5.43, 4.98 5.74 C4.55 6.05, 4.35 5.91, 3.63 5.77 C2.9 5.62, 1.16 5.07, 0.62 4.85 C0.09 4.63, 0.34 5.11, 0.4 4.46 C0.46 3.8, 0.5 1.6, 0.98 0.93 C1.46 0.27, 2.83 0.67, 3.3 0.48 C3.77 0.29, 3.93 -0.31, 3.79 -0.22 M3.97 0.29 C4.94 0.3, 5.41 0.62, 5.92 1.23 C6.42 1.83, 6.98 3.46, 7.02 3.92 C7.07 4.38, 6.98 3.83, 6.2 4 C5.43 4.16, 3.24 4.75, 2.4 4.92 C1.55 5.09, 1.3 5.21, 1.16 5.03 C1.01 4.84, 1.84 4.08, 1.53 3.82 C1.23 3.56, -0.59 4.18, -0.68 3.46 C-0.77 2.74, 0.31 0.08, 0.98 -0.5 C1.64 -1.08, 2.95 -0.15, 3.31 -0.03 C3.67 0.09, 3.43 0.04, 3.15 0.21" stroke="#000000" stroke-width="1" fill="none"></path></g><g transform="translate(1038.118260830686 400.0774531269845) rotate(0 15.092795278560146 4.829694489139245)"><text x="15.092795278560134" y="7.659388978278489" font-family="Helvetica, Segoe UI Emoji" font-size="8.801723599686374px" fill="#000000" text-anchor="middle" style="white-space: pre;" direction="ltr">MySQL</text></g><g stroke-linecap="round" transform="translate(584.6953578748199 686.8421052631579) rotate(0 33.39674738833772 33.39674738833773)"><path d="M0 0 C0 0, 0 0, 0 0 M0 0 C0 0, 0 0, 0 0 M0.13 12.04 C3.73 7.9, 7.34 3.76, 10.63 -0.03 M0.13 12.04 C2.72 9.06, 5.31 6.08, 10.63 -0.03 M0.27 24.08 C4.73 18.95, 9.19 13.81, 21.26 -0.07 M0.27 24.08 C8.61 14.48, 16.96 4.88, 21.26 -0.07 M-0.26 36.88 C6.81 28.75, 13.87 20.63, 31.89 -0.1 M-0.26 36.88 C10.15 24.91, 20.56 12.93, 31.89 -0.1 M-0.12 48.92 C15.19 31.31, 30.5 13.69, 42.52 -0.14 M-0.12 48.92 C8.5 39, 17.13 29.07, 42.52 -0.14 M0.01 60.96 C15.59 43.03, 31.18 25.1, 53.15 -0.17 M0.01 60.96 C13.04 45.97, 26.07 30.98, 53.15 -0.17 M3.42 69.23 C21.32 48.64, 39.22 28.05, 63.78 -0.21 M3.42 69.23 C18.89 51.43, 34.36 33.64, 63.78 -0.21 M14.05 69.19 C36.78 43.05, 59.5 16.91, 71.13 3.53 M14.05 69.19 C36.15 43.78, 58.24 18.36, 71.13 3.53 M24.03 69.91 C39.45 52.16, 54.88 34.42, 71.26 15.57 M24.03 69.91 C37.88 53.98, 51.73 38.05, 71.26 15.57 M34.66 69.88 C43.79 59.37, 52.92 48.87, 70.74 28.37 M34.66 69.88 C45.15 57.81, 55.64 45.74, 70.74 28.37 M45.29 69.84 C53.86 59.98, 62.44 50.11, 70.87 40.41 M45.29 69.84 C53.28 60.65, 61.27 51.46, 70.87 40.41 M55.92 69.81 C59.86 65.28, 63.8 60.75, 71.01 52.45 M55.92 69.81 C59.89 65.24, 63.86 60.67, 71.01 52.45 M0.14 66.91 C0.14 66.91, 0.14 66.91, 0.14 66.91 M0.14 66.91 C0.14 66.91, 0.14 66.91, 0.14 66.91 M12.18 66.78 C8.44 63.53, 4.7 60.28, 0.1 56.28 M12.18 66.78 C7.62 62.82, 3.06 58.85, 0.1 56.28 M24.22 66.64 C15.68 59.23, 7.15 51.81, 0.07 45.65 M24.22 66.64 C18.85 61.98, 13.49 57.32, 0.07 45.65 M36.26 66.51 C22.84 54.84, 9.41 43.18, 0.03 35.02 M36.26 66.51 C26.42 57.96, 16.59 49.41, 0.03 35.02 M49.05 67.03 C36.47 56.09, 23.88 45.15, 0 24.39 M49.05 67.03 C37.31 56.83, 25.56 46.62, 0 24.39 M61.09 66.9 C42.76 50.96, 24.42 35.02, -0.04 13.76 M61.09 66.9 C39.73 48.33, 18.36 29.76, -0.04 13.76 M69.36 63.49 C46.75 43.83, 24.14 24.18, -0.07 3.13 M69.36 63.49 C49.07 45.85, 28.78 28.21, -0.07 3.13 M69.33 52.86 C53.66 39.24, 37.99 25.62, 3.67 -4.22 M69.33 52.86 C44.32 31.12, 19.3 9.37, 3.67 -4.22 M69.29 42.23 C49.56 25.08, 29.83 7.93, 15.71 -4.35 M69.29 42.23 C52.79 27.88, 36.29 13.54, 15.71 -4.35 M69.26 31.6 C60.49 23.97, 51.71 16.35, 27.75 -4.49 M69.26 31.6 C56.76 20.74, 44.27 9.87, 27.75 -4.49 M69.22 20.97 C58.43 11.58, 47.63 2.19, 40.54 -3.96 M69.22 20.97 C61.21 14, 53.19 7.03, 40.54 -3.96 M69.19 10.34 C63.75 5.61, 58.31 0.88, 52.59 -4.1 M69.19 10.34 C65.69 7.3, 62.19 4.26, 52.59 -4.1" stroke="#40c05788" stroke-width="1" fill="none"></path><path d="M0 0 C18.07 0, 36.15 0, 66.79 0 M0 0 C21.81 0, 43.62 0, 66.79 0 M66.79 0 C66.79 17.73, 66.79 35.46, 66.79 66.79 M66.79 0 C66.79 23.46, 66.79 46.92, 66.79 66.79 M66.79 66.79 C52.83 66.79, 38.87 66.79, 0 66.79 M66.79 66.79 C44.81 66.79, 22.82 66.79, 0 66.79 M0 66.79 C0 45.85, 0 24.91, 0 0 M0 66.79 C0 53.16, 0 39.52, 0 0" stroke="#000000" stroke-width="2" fill="none"></path></g><g stroke-linecap="round" transform="translate(598.6664460834704 698.2004406577666) rotate(0 20.06736353824017 5.518497667814557)"><path d="M40.13 5.52 C40.13 5.84, 40.03 6.16, 39.83 6.48 C39.63 6.79, 39.32 7.11, 38.92 7.41 C38.53 7.71, 38.03 8, 37.45 8.28 C36.87 8.55, 36.19 8.82, 35.44 9.07 C34.69 9.31, 33.86 9.54, 32.97 9.75 C32.08 9.95, 31.11 10.14, 30.1 10.3 C29.1 10.46, 28.02 10.59, 26.93 10.7 C25.84 10.81, 24.7 10.9, 23.55 10.95 C22.41 11.01, 21.23 11.04, 20.07 11.04 C18.91 11.04, 17.73 11.01, 16.58 10.95 C15.44 10.9, 14.3 10.81, 13.2 10.7 C12.11 10.59, 11.04 10.46, 10.03 10.3 C9.03 10.14, 8.06 9.95, 7.17 9.75 C6.28 9.54, 5.44 9.31, 4.69 9.07 C3.95 8.82, 3.27 8.55, 2.69 8.28 C2.11 8, 1.61 7.71, 1.21 7.41 C0.81 7.11, 0.51 6.79, 0.3 6.48 C0.1 6.16, 0 5.84, 0 5.52 C0 5.2, 0.1 4.87, 0.3 4.56 C0.51 4.25, 0.81 3.93, 1.21 3.63 C1.61 3.33, 2.11 3.04, 2.69 2.76 C3.27 2.48, 3.95 2.22, 4.69 1.97 C5.44 1.73, 6.28 1.5, 7.17 1.29 C8.06 1.09, 9.03 0.9, 10.03 0.74 C11.04 0.58, 12.11 0.44, 13.2 0.33 C14.3 0.22, 15.44 0.14, 16.58 0.08 C17.73 0.03, 18.91 0, 20.07 0 C21.23 0, 22.41 0.03, 23.55 0.08 C24.7 0.14, 25.84 0.22, 26.93 0.33 C28.02 0.44, 29.1 0.58, 30.1 0.74 C31.11 0.9, 32.08 1.09, 32.97 1.29 C33.86 1.5, 34.69 1.73, 35.44 1.97 C36.19 2.22, 36.87 2.48, 37.45 2.76 C38.03 3.04, 38.53 3.33, 38.92 3.63 C39.32 3.93, 39.63 4.25, 39.83 4.56 C40.03 4.87, 40.08 5.36, 40.13 5.52 C40.19 5.68, 40.19 5.36, 40.13 5.52" stroke="#000000" stroke-width="2" fill="none"></path></g><g stroke-linecap="round"><g transform="translate(599.0337813527958 704.2336052342462) rotate(0 19.651778371710503 20.7760294060958)"><path d="M0 0 C0.66 5.5, 2.79 26.49, 3.95 32.99 C5.1 39.49, 4.12 37.56, 6.95 38.99 C9.77 40.42, 16.48 41.48, 20.88 41.55 C25.29 41.62, 30.82 40.87, 33.39 39.41 C35.96 37.95, 35.31 39.34, 36.3 32.78 C37.28 26.23, 38.8 5.55, 39.3 0.1 M0 0 C0.66 5.5, 2.79 26.49, 3.95 32.99 C5.1 39.49, 4.12 37.56, 6.95 38.99 C9.77 40.42, 16.48 41.48, 20.88 41.55 C25.29 41.62, 30.82 40.87, 33.39 39.41 C35.96 37.95, 35.31 39.34, 36.3 32.78 C37.28 26.23, 38.8 5.55, 39.3 0.1" stroke="#000000" stroke-width="2" fill="none"></path></g></g><g stroke-linecap="round" transform="translate(616.245392809416 714.7661701804715) rotate(0 2.41090874922903 2.410908749229037)"><path d="M4.82 2.41 C4.82 2.55, 4.81 2.69, 4.79 2.83 C4.76 2.97, 4.72 3.1, 4.68 3.24 C4.63 3.37, 4.57 3.5, 4.5 3.62 C4.43 3.74, 4.35 3.85, 4.26 3.96 C4.17 4.07, 4.07 4.17, 3.96 4.26 C3.85 4.35, 3.74 4.43, 3.62 4.5 C3.5 4.57, 3.37 4.63, 3.24 4.68 C3.1 4.72, 2.97 4.76, 2.83 4.79 C2.69 4.81, 2.55 4.82, 2.41 4.82 C2.27 4.82, 2.13 4.81, 1.99 4.79 C1.85 4.76, 1.72 4.72, 1.59 4.68 C1.46 4.63, 1.33 4.57, 1.21 4.5 C1.08 4.43, 0.97 4.35, 0.86 4.26 C0.75 4.17, 0.65 4.07, 0.56 3.96 C0.47 3.85, 0.39 3.74, 0.32 3.62 C0.25 3.5, 0.19 3.37, 0.15 3.24 C0.1 3.1, 0.06 2.97, 0.04 2.83 C0.01 2.69, 0 2.55, 0 2.41 C0 2.27, 0.01 2.13, 0.04 1.99 C0.06 1.85, 0.1 1.72, 0.15 1.59 C0.19 1.46, 0.25 1.33, 0.32 1.21 C0.39 1.08, 0.47 0.97, 0.56 0.86 C0.65 0.75, 0.75 0.65, 0.86 0.56 C0.97 0.47, 1.08 0.39, 1.21 0.32 C1.33 0.25, 1.46 0.19, 1.59 0.15 C1.72 0.1, 1.85 0.06, 1.99 0.04 C2.13 0.01, 2.27 0, 2.41 0 C2.55 0, 2.69 0.01, 2.83 0.04 C2.97 0.06, 3.1 0.1, 3.24 0.15 C3.37 0.19, 3.5 0.25, 3.62 0.32 C3.74 0.39, 3.85 0.47, 3.96 0.56 C4.07 0.65, 4.17 0.75, 4.26 0.86 C4.35 0.97, 4.43 1.08, 4.5 1.21 C4.57 1.33, 4.63 1.46, 4.68 1.59 C4.72 1.72, 4.76 1.85, 4.79 1.99 C4.81 2.13, 4.82 2.34, 4.82 2.41 C4.83 2.48, 4.83 2.34, 4.82 2.41" stroke="none" stroke-width="0" fill="#000"></path><path d="M4.82 2.41 C4.82 2.55, 4.81 2.69, 4.79 2.83 C4.76 2.97, 4.72 3.1, 4.68 3.24 C4.63 3.37, 4.57 3.5, 4.5 3.62 C4.43 3.74, 4.35 3.85, 4.26 3.96 C4.17 4.07, 4.07 4.17, 3.96 4.26 C3.85 4.35, 3.74 4.43, 3.62 4.5 C3.5 4.57, 3.37 4.63, 3.24 4.68 C3.1 4.72, 2.97 4.76, 2.83 4.79 C2.69 4.81, 2.55 4.82, 2.41 4.82 C2.27 4.82, 2.13 4.81, 1.99 4.79 C1.85 4.76, 1.72 4.72, 1.59 4.68 C1.46 4.63, 1.33 4.57, 1.21 4.5 C1.08 4.43, 0.97 4.35, 0.86 4.26 C0.75 4.17, 0.65 4.07, 0.56 3.96 C0.47 3.85, 0.39 3.74, 0.32 3.62 C0.25 3.5, 0.19 3.37, 0.15 3.24 C0.1 3.1, 0.06 2.97, 0.04 2.83 C0.01 2.69, 0 2.55, 0 2.41 C0 2.27, 0.01 2.13, 0.04 1.99 C0.06 1.85, 0.1 1.72, 0.15 1.59 C0.19 1.46, 0.25 1.33, 0.32 1.21 C0.39 1.08, 0.47 0.97, 0.56 0.86 C0.65 0.75, 0.75 0.65, 0.86 0.56 C0.97 0.47, 1.08 0.39, 1.21 0.32 C1.33 0.25, 1.46 0.19, 1.59 0.15 C1.72 0.1, 1.85 0.06, 1.99 0.04 C2.13 0.01, 2.27 0, 2.41 0 C2.55 0, 2.69 0.01, 2.83 0.04 C2.97 0.06, 3.1 0.1, 3.24 0.15 C3.37 0.19, 3.5 0.25, 3.62 0.32 C3.74 0.39, 3.85 0.47, 3.96 0.56 C4.07 0.65, 4.17 0.75, 4.26 0.86 C4.35 0.97, 4.43 1.08, 4.5 1.21 C4.57 1.33, 4.63 1.46, 4.68 1.59 C4.72 1.72, 4.76 1.85, 4.79 1.99 C4.81 2.13, 4.82 2.34, 4.82 2.41 C4.83 2.48, 4.83 2.34, 4.82 2.41" stroke="#000000" stroke-width="1" fill="none"></path></g><g stroke-linecap="round"><g transform="translate(618.8010406494141 717.4068708720959) rotate(0 12.208001735325913 5.978521547337607)"><path d="M0 0 C1.2 1.27, 4.3 5.66, 7.21 7.63 C10.12 9.6, 14.73 11.37, 17.45 11.83 C20.17 12.3, 22.46 11.38, 23.53 10.41 C24.59 9.45, 24.71 7.48, 23.86 6.05 C23.01 4.61, 19.34 2.51, 18.44 1.8 M0 0 C1.2 1.27, 4.3 5.66, 7.21 7.63 C10.12 9.6, 14.73 11.37, 17.45 11.83 C20.17 12.3, 22.46 11.38, 23.53 10.41 C24.59 9.45, 24.71 7.48, 23.86 6.05 C23.01 4.61, 19.34 2.51, 18.44 1.8" stroke="#000000" stroke-width="2" fill="none"></path></g></g><g transform="translate(564.2105263157894 757.8326194606898) rotate(0 47.21052631578947 11.80263157894737)"><text x="47.21052631578947" y="18.605263157894736" font-family="Helvetica, Segoe UI Emoji" font-size="20.526315789473685px" fill="#000000" text-anchor="middle" style="white-space: pre;" direction="ltr">S3 Bucket</text></g><g stroke-linecap="round" transform="translate(748.9473684210525 214.73684210526318) rotate(0 41.05263157894737 51.31578947368421)"><path d="M82.11 51.32 C82.11 53.75, 81.96 56.21, 81.69 58.62 C81.41 61.03, 80.99 63.44, 80.44 65.77 C79.89 68.11, 79.2 70.42, 78.4 72.63 C77.59 74.85, 76.64 77.01, 75.59 79.06 C74.54 81.11, 73.35 83.08, 72.08 84.92 C70.8 86.76, 69.41 88.5, 67.94 90.1 C66.46 91.69, 64.89 93.17, 63.25 94.49 C61.61 95.8, 59.88 96.98, 58.11 97.99 C56.34 99.01, 54.49 99.87, 52.62 100.55 C50.75 101.24, 48.82 101.76, 46.9 102.11 C44.97 102.46, 43 102.63, 41.05 102.63 C39.11 102.63, 37.14 102.46, 35.21 102.11 C33.28 101.76, 31.36 101.24, 29.49 100.55 C27.62 99.87, 25.77 99.01, 24 97.99 C22.23 96.98, 20.5 95.8, 18.86 94.49 C17.22 93.17, 15.64 91.69, 14.17 90.1 C12.7 88.5, 11.3 86.76, 10.03 84.92 C8.75 83.08, 7.57 81.11, 6.52 79.06 C5.46 77.01, 4.52 74.85, 3.71 72.63 C2.9 70.42, 2.21 68.11, 1.66 65.77 C1.11 63.44, 0.7 61.03, 0.42 58.62 C0.14 56.21, 0 53.75, 0 51.32 C0 48.88, 0.14 46.42, 0.42 44.01 C0.7 41.6, 1.11 39.19, 1.66 36.86 C2.21 34.52, 2.9 32.21, 3.71 30 C4.52 27.78, 5.46 25.62, 6.52 23.57 C7.57 21.52, 8.75 19.55, 10.03 17.71 C11.3 15.87, 12.7 14.13, 14.17 12.53 C15.64 10.94, 17.22 9.46, 18.86 8.15 C20.5 6.83, 22.23 5.65, 24 4.64 C25.77 3.63, 27.62 2.76, 29.49 2.08 C31.36 1.39, 33.28 0.87, 35.21 0.52 C37.14 0.18, 39.11 0, 41.05 0 C43 0, 44.97 0.18, 46.9 0.52 C48.82 0.87, 50.75 1.39, 52.62 2.08 C54.49 2.76, 56.34 3.63, 58.11 4.64 C59.88 5.65, 61.61 6.83, 63.25 8.15 C64.89 9.46, 66.46 10.94, 67.94 12.53 C69.41 14.13, 70.8 15.87, 72.08 17.71 C73.35 19.55, 74.54 21.52, 75.59 23.57 C76.64 25.62, 77.59 27.78, 78.4 30 C79.2 32.21, 79.89 34.52, 80.44 36.86 C80.99 39.19, 81.41 41.6, 81.69 44.01 C81.96 46.42, 82.04 50.1, 82.11 51.32 C82.17 52.53, 82.17 50.1, 82.11 51.32" stroke="#862e9c" stroke-width="1" fill="none"></path></g><g stroke-linecap="round" transform="translate(1118.4210526315787 214.73684210526324) rotate(0 41.0526315789474 71.84210526315789)"><path d="M82.11 71.84 C82.11 74.73, 82 77.64, 81.81 80.5 C81.61 83.37, 81.31 86.23, 80.91 89.04 C80.52 91.84, 80.02 94.62, 79.44 97.32 C78.85 100.02, 78.17 102.67, 77.4 105.23 C76.64 107.78, 75.78 110.28, 74.84 112.65 C73.9 115.03, 72.87 117.32, 71.78 119.48 C70.69 121.64, 69.51 123.7, 68.28 125.62 C67.04 127.53, 65.73 129.33, 64.37 130.97 C63.02 132.61, 61.59 134.11, 60.13 135.46 C58.67 136.8, 57.15 137.99, 55.61 139.02 C54.07 140.04, 52.48 140.91, 50.88 141.6 C49.28 142.29, 47.64 142.81, 46 143.16 C44.36 143.51, 42.7 143.68, 41.05 143.68 C39.4 143.68, 37.74 143.51, 36.1 143.16 C34.47 142.81, 32.83 142.29, 31.23 141.6 C29.63 140.91, 28.04 140.04, 26.5 139.02 C24.95 137.99, 23.44 136.8, 21.97 135.46 C20.51 134.11, 19.09 132.61, 17.73 130.97 C16.37 129.33, 15.06 127.53, 13.83 125.62 C12.6 123.7, 11.42 121.64, 10.32 119.48 C9.23 117.32, 8.2 115.03, 7.27 112.65 C6.33 110.28, 5.47 107.78, 4.7 105.23 C3.94 102.67, 3.25 100.02, 2.67 97.32 C2.08 94.62, 1.59 91.84, 1.19 89.04 C0.8 86.23, 0.5 83.37, 0.3 80.5 C0.1 77.64, 0 74.73, 0 71.84 C0 68.96, 0.1 66.05, 0.3 63.18 C0.5 60.32, 0.8 57.45, 1.19 54.65 C1.59 51.85, 2.08 49.07, 2.67 46.37 C3.25 43.67, 3.94 41.01, 4.7 38.46 C5.47 35.9, 6.33 33.41, 7.27 31.03 C8.2 28.66, 9.23 26.36, 10.32 24.2 C11.42 22.04, 12.6 19.98, 13.83 18.07 C15.06 16.15, 16.37 14.36, 17.73 12.72 C19.09 11.08, 20.51 9.57, 21.97 8.23 C23.44 6.89, 24.95 5.69, 26.5 4.67 C28.04 3.64, 29.63 2.78, 31.23 2.09 C32.83 1.4, 34.47 0.87, 36.1 0.52 C37.74 0.18, 39.4 0, 41.05 0 C42.7 0, 44.36 0.18, 46 0.52 C47.64 0.87, 49.28 1.4, 50.88 2.09 C52.48 2.78, 54.07 3.64, 55.61 4.67 C57.15 5.69, 58.67 6.89, 60.13 8.23 C61.59 9.57, 63.02 11.08, 64.37 12.72 C65.73 14.36, 67.04 16.15, 68.28 18.07 C69.51 19.98, 70.69 22.04, 71.78 24.2 C72.87 26.36, 73.9 28.66, 74.84 31.03 C75.78 33.41, 76.64 35.9, 77.4 38.46 C78.17 41.01, 78.85 43.67, 79.44 46.37 C80.02 49.07, 80.52 51.85, 80.91 54.65 C81.31 57.45, 81.61 60.32, 81.81 63.18 C82 66.05, 82.11 68.96, 82.11 71.84" stroke="#5f3dc4" stroke-width="1" fill="none"></path></g><g transform="translate(753.9473684210525 230.0526315789474) rotate(0 36.05263157894737 36)"><text x="36.05263157894737" y="14" font-family="Helvetica, Segoe UI Emoji" font-size="16px" fill="#862e9c" text-anchor="middle" style="white-space: pre;" direction="ltr">Public </text><text x="36.05263157894737" y="32" font-family="Helvetica, Segoe UI Emoji" font-size="16px" fill="#862e9c" text-anchor="middle" style="white-space: pre;" direction="ltr">NSG</text><text x="36.05263157894737" y="50" font-family="Helvetica, Segoe UI Emoji" font-size="16px" fill="#862e9c" text-anchor="middle" style="white-space: pre;" direction="ltr">ssh 22</text><text x="36.05263157894737" y="68" font-family="Helvetica, Segoe UI Emoji" font-size="16px" fill="#862e9c" text-anchor="middle" style="white-space: pre;" direction="ltr">http 8065</text></g><g transform="translate(1123.4210526315787 241.57894736842113) rotate(0 36.0526315789474 45)"><text x="36.05263157894737" y="14" font-family="Helvetica, Segoe UI Emoji" font-size="16px" fill="#5f3dc4" text-anchor="middle" style="white-space: pre;" direction="ltr">Private </text><text x="36.05263157894737" y="32" font-family="Helvetica, Segoe UI Emoji" font-size="16px" fill="#5f3dc4" text-anchor="middle" style="white-space: pre;" direction="ltr">NSG </text><text x="36.05263157894737" y="50" font-family="Helvetica, Segoe UI Emoji" font-size="16px" fill="#5f3dc4" text-anchor="middle" style="white-space: pre;" direction="ltr">ssh 22</text><text x="36.05263157894737" y="68" font-family="Helvetica, Segoe UI Emoji" font-size="16px" fill="#5f3dc4" text-anchor="middle" style="white-space: pre;" direction="ltr">mysql </text><text x="36.05263157894737" y="86" font-family="Helvetica, Segoe UI Emoji" font-size="16px" fill="#5f3dc4" text-anchor="middle" style="white-space: pre;" direction="ltr">3036</text></g><g transform="translate(1344.2105263157887 348.15789473684214) rotate(0 94.93421052631578 46.18421052631578)"><text x="0" y="14.473684210526311" font-family="Helvetica, Segoe UI Emoji" font-size="16.42105263157895px" fill="#00ff00" text-anchor="start" style="white-space: pre;" direction="ltr">Public NSG </text><text x="0" y="32.94736842105262" font-family="Helvetica, Segoe UI Emoji" font-size="16.42105263157895px" fill="#00ff00" text-anchor="start" style="white-space: pre;" direction="ltr">Inbound Rule (Allow)</text><text x="0" y="51.42105263157893" font-family="Helvetica, Segoe UI Emoji" font-size="16.42105263157895px" fill="#00ff00" text-anchor="start" style="white-space: pre;" direction="ltr">Source Prefix TCP Port</text><text x="0" y="69.89473684210525" font-family="Helvetica, Segoe UI Emoji" font-size="16.42105263157895px" fill="#00ff00" text-anchor="start" style="white-space: pre;" direction="ltr">0.0.0.0/0         SSH 22</text><text x="0" y="88.36842105263156" font-family="Helvetica, Segoe UI Emoji" font-size="16.42105263157895px" fill="#00ff00" text-anchor="start" style="white-space: pre;" direction="ltr">0.0.0.0/0         HTTP 8065</text></g><g transform="translate(1344.2105263157898 491.8421052631579) rotate(0 95.96052631578948 83.13157894736842)"><text x="0" y="14.473684210526315" font-family="Helvetica, Segoe UI Emoji" font-size="16.421052631578945px" fill="#0000ff" text-anchor="start" style="white-space: pre;" direction="ltr">Private NSG </text><text x="0" y="32.94736842105263" font-family="Helvetica, Segoe UI Emoji" font-size="16.421052631578945px" fill="#0000ff" text-anchor="start" style="white-space: pre;" direction="ltr">Inbound Rule (Allow)</text><text x="0" y="51.421052631578945" font-family="Helvetica, Segoe UI Emoji" font-size="16.421052631578945px" fill="#0000ff" text-anchor="start" style="white-space: pre;" direction="ltr">Source Prefix TCP Port</text><text x="0" y="69.89473684210526" font-family="Helvetica, Segoe UI Emoji" font-size="16.421052631578945px" fill="#0000ff" text-anchor="start" style="white-space: pre;" direction="ltr">10.0.0.0/24     SSH 22</text><text x="0" y="88.36842105263158" font-family="Helvetica, Segoe UI Emoji" font-size="16.421052631578945px" fill="#0000ff" text-anchor="start" style="white-space: pre;" direction="ltr">10.0.0.0/24     MySql 3306</text><text x="0" y="106.84210526315789" font-family="Helvetica, Segoe UI Emoji" font-size="16.421052631578945px" fill="#0000ff" text-anchor="start" style="white-space: pre;" direction="ltr"></text><text x="0" y="125.31578947368422" font-family="Helvetica, Segoe UI Emoji" font-size="16.421052631578945px" fill="#0000ff" text-anchor="start" style="white-space: pre;" direction="ltr">Outbound Rule (Deny)</text><text x="0" y="143.78947368421052" font-family="Helvetica, Segoe UI Emoji" font-size="16.421052631578945px" fill="#0000ff" text-anchor="start" style="white-space: pre;" direction="ltr">Source prefix *</text><text x="0" y="162.26315789473682" font-family="Helvetica, Segoe UI Emoji" font-size="16.421052631578945px" fill="#0000ff" text-anchor="start" style="white-space: pre;" direction="ltr">Destination Prefix *</text></g><g stroke-linecap="round" transform="translate(441.0526315789475 666.3157894736842) rotate(0 256.5789473684211 71.84210526315789)"><path d="M35.92 0 M35.92 0 C181.09 0, 326.26 0, 477.24 0 M35.92 0 C181.96 0, 328 0, 477.24 0 M477.24 0 C501.18 0, 513.16 11.97, 513.16 35.92 M477.24 0 C501.18 0, 513.16 11.97, 513.16 35.92 M513.16 35.92 C513.16 54.17, 513.16 72.43, 513.16 107.76 M513.16 35.92 C513.16 51.56, 513.16 67.2, 513.16 107.76 M513.16 107.76 C513.16 131.71, 501.18 143.68, 477.24 143.68 M513.16 107.76 C513.16 131.71, 501.18 143.68, 477.24 143.68 M477.24 143.68 C353.4 143.68, 229.56 143.68, 35.92 143.68 M477.24 143.68 C329.89 143.68, 182.55 143.68, 35.92 143.68 M35.92 143.68 C11.97 143.68, 0 131.71, 0 107.76 M35.92 143.68 C11.97 143.68, 0 131.71, 0 107.76 M0 107.76 C0 84.97, 0 62.18, 0 35.92 M0 107.76 C0 91.44, 0 75.12, 0 35.92 M0 35.92 C0 11.97, 11.97 0, 35.92 0 M0 35.92 C0 11.97, 11.97 0, 35.92 0" stroke="#000000" stroke-width="2" fill="none"></path></g><g transform="translate(666.8421052631578 645.7894736842103) rotate(0 39.51315789473684 11.80263157894737)"><text x="0" y="18.605263157894736" font-family="Helvetica, Segoe UI Emoji" font-size="20.526315789473685px" fill="#e67700" text-anchor="start" style="white-space: pre;" direction="ltr">Storage </text></g><g stroke-linecap="round"><g transform="translate(10 450.7894736842106) rotate(0 30.78947368421052 28.196095076400695)" fill-rule="evenodd"><path d="M0 0 L61.58 0 L61.58 56.39 L0 56.39 L0 0" stroke="none" stroke-width="0" fill="#00000000" fill-rule="evenodd"></path><path d="M0 0 C20.44 0, 40.88 0, 61.58 0 M0 0 C21.93 0, 43.85 0, 61.58 0 M61.58 0 C61.58 15.41, 61.58 30.83, 61.58 56.39 M61.58 0 C61.58 22.38, 61.58 44.76, 61.58 56.39 M61.58 56.39 C46.28 56.39, 30.99 56.39, 0 56.39 M61.58 56.39 C46.17 56.39, 30.76 56.39, 0 56.39 M0 56.39 C0 42.6, 0 28.82, 0 0 M0 56.39 C0 43.19, 0 29.99, 0 0 M0 0 C0 0, 0 0, 0 0 M0 0 C0 0, 0 0, 0 0" stroke="#00000000" stroke-width="1" fill="none"></path></g></g><g stroke-linecap="round"><g transform="translate(284.5118845500847 487.17609295415986) rotate(0 0 6.16789579796265)" fill-rule="evenodd"><path d="M0 0 L0 0 L5.39 0.61 L9.96 2.11 L11.68 3.21 L12.98 4.71 L13.81 6.53 L14.1 8.53 L14.1 12.34 L-14.1 12.34 L-14.1 8.55 L-14.1 8.55 L-13.81 6.54 L-12.98 4.72 L-11.68 3.22 L-9.96 2.14 L-5.39 0.61 L0 0 L0 0" stroke="none" stroke-width="0" fill="#000" fill-rule="evenodd"></path><path d="M0 0 C0 0, 0 0, 0 0 M0 0 C0 0, 0 0, 0 0 M0 0 C2.1 0.24, 4.19 0.47, 5.39 0.61 M0 0 C1.25 0.14, 2.5 0.28, 5.39 0.61 M5.39 0.61 C6.73 1.05, 8.08 1.49, 9.96 2.11 M5.39 0.61 C6.7 1.04, 8.01 1.47, 9.96 2.11 M9.96 2.11 C10.46 2.43, 10.95 2.75, 11.68 3.21 M9.96 2.11 C10.63 2.54, 11.3 2.96, 11.68 3.21 M11.68 3.21 C12.19 3.8, 12.71 4.39, 12.98 4.71 M11.68 3.21 C11.97 3.55, 12.27 3.89, 12.98 4.71 M12.98 4.71 C13.23 5.27, 13.49 5.82, 13.81 6.53 M12.98 4.71 C13.19 5.17, 13.4 5.62, 13.81 6.53 M13.81 6.53 C13.88 7.05, 13.96 7.57, 14.1 8.53 M13.81 6.53 C13.9 7.16, 13.99 7.8, 14.1 8.53 M14.1 8.53 C14.1 9.72, 14.1 10.91, 14.1 12.34 M14.1 8.53 C14.1 9.68, 14.1 10.83, 14.1 12.34 M14.1 12.34 C2.99 12.34, -8.11 12.34, -14.1 12.34 M14.1 12.34 C4.36 12.34, -5.38 12.34, -14.1 12.34 M-14.1 12.34 C-14.1 10.88, -14.1 9.42, -14.1 8.55 M-14.1 12.34 C-14.1 11.29, -14.1 10.25, -14.1 8.55 M-14.1 8.55 C-14.1 8.55, -14.1 8.55, -14.1 8.55 M-14.1 8.55 C-14.1 8.55, -14.1 8.55, -14.1 8.55 M-14.1 8.55 C-13.98 7.76, -13.87 6.97, -13.81 6.54 M-14.1 8.55 C-13.99 7.83, -13.89 7.11, -13.81 6.54 M-13.81 6.54 C-13.53 5.92, -13.25 5.3, -12.98 4.72 M-13.81 6.54 C-13.56 5.98, -13.3 5.43, -12.98 4.72 M-12.98 4.72 C-12.72 4.42, -12.46 4.11, -11.68 3.22 M-12.98 4.72 C-12.47 4.13, -11.96 3.54, -11.68 3.22 M-11.68 3.22 C-11.27 2.96, -10.86 2.7, -9.96 2.14 M-11.68 3.22 C-11.05 2.82, -10.41 2.42, -9.96 2.14 M-9.96 2.14 C-8.71 1.72, -7.45 1.3, -5.39 0.61 M-9.96 2.14 C-8.74 1.73, -7.51 1.32, -5.39 0.61 M-5.39 0.61 C-3.41 0.39, -1.43 0.16, 0 0 M-5.39 0.61 C-4.15 0.47, -2.92 0.33, 0 0 M0 0 C0 0, 0 0, 0 0 M0 0 C0 0, 0 0, 0 0 M0 0 C0 0, 0 0, 0 0 M0 0 C0 0, 0 0, 0 0" stroke="#00000000" stroke-width="1" fill="none"></path></g></g><g stroke-linecap="round"><g transform="translate(265.71448808857855 487.76351262596205) rotate(0 -1.9207064383408579e-7 -4.69934969158853)" fill-rule="evenodd"><path d="M0 0 L0 0 L1.82 -0.37 L3.32 -1.38 L4.33 -2.87 L4.7 -4.7 L4.33 -6.52 L3.32 -8.02 L1.82 -9.03 L0 -9.4 L-1.82 -9.03 L-3.32 -8.02 L-4.33 -6.52 L-4.7 -4.7 L-4.33 -2.87 L-3.32 -1.38 L-1.82 -0.37 L0 0 L0 0" stroke="none" stroke-width="0" fill="#000" fill-rule="evenodd"></path><path d="M0 0 C0 0, 0 0, 0 0 M0 0 C0 0, 0 0, 0 0 M0 0 C0.55 -0.11, 1.09 -0.22, 1.82 -0.37 M0 0 C0.53 -0.11, 1.06 -0.22, 1.82 -0.37 M1.82 -0.37 C2.37 -0.74, 2.92 -1.11, 3.32 -1.38 M1.82 -0.37 C2.24 -0.65, 2.65 -0.93, 3.32 -1.38 M3.32 -1.38 C3.53 -1.7, 3.75 -2.02, 4.33 -2.87 M3.32 -1.38 C3.56 -1.74, 3.8 -2.1, 4.33 -2.87 M4.33 -2.87 C4.43 -3.39, 4.54 -3.91, 4.7 -4.7 M4.33 -2.87 C4.47 -3.57, 4.61 -4.26, 4.7 -4.7 M4.7 -4.7 C4.58 -5.28, 4.46 -5.87, 4.33 -6.52 M4.7 -4.7 C4.62 -5.08, 4.54 -5.46, 4.33 -6.52 M4.33 -6.52 C3.93 -7.11, 3.54 -7.7, 3.32 -8.02 M4.33 -6.52 C4.11 -6.85, 3.89 -7.17, 3.32 -8.02 M3.32 -8.02 C2.83 -8.35, 2.33 -8.68, 1.82 -9.03 M3.32 -8.02 C2.8 -8.37, 2.28 -8.72, 1.82 -9.03 M1.82 -9.03 C1.18 -9.16, 0.54 -9.29, 0 -9.4 M1.82 -9.03 C1.36 -9.12, 0.89 -9.22, 0 -9.4 M0 -9.4 C-0.55 -9.29, -1.1 -9.18, -1.82 -9.03 M0 -9.4 C-0.72 -9.25, -1.44 -9.11, -1.82 -9.03 M-1.82 -9.03 C-2.23 -8.75, -2.64 -8.47, -3.32 -8.02 M-1.82 -9.03 C-2.22 -8.76, -2.62 -8.49, -3.32 -8.02 M-3.32 -8.02 C-3.57 -7.64, -3.82 -7.27, -4.33 -6.52 M-3.32 -8.02 C-3.62 -7.57, -3.92 -7.13, -4.33 -6.52 M-4.33 -6.52 C-4.45 -5.93, -4.57 -5.34, -4.7 -4.7 M-4.33 -6.52 C-4.44 -5.95, -4.56 -5.38, -4.7 -4.7 M-4.7 -4.7 C-4.57 -4.07, -4.45 -3.45, -4.33 -2.87 M-4.7 -4.7 C-4.55 -3.98, -4.41 -3.26, -4.33 -2.87 M-4.33 -2.87 C-4 -2.39, -3.68 -1.91, -3.32 -1.38 M-4.33 -2.87 C-3.97 -2.34, -3.61 -1.81, -3.32 -1.38 M-3.32 -1.38 C-2.87 -1.08, -2.43 -0.78, -1.82 -0.37 M-3.32 -1.38 C-3 -1.16, -2.67 -0.94, -1.82 -0.37 M-1.82 -0.37 C-1.2 -0.24, -0.58 -0.12, 0 0 M-1.82 -0.37 C-1.36 -0.28, -0.89 -0.18, 0 0 M0 0 C0 0, 0 0, 0 0 M0 0 C0 0, 0 0, 0 0 M0 0 C0 0, 0 0, 0 0 M0 0 C0 0, 0 0, 0 0" stroke="#00000000" stroke-width="1" fill="none"></path></g></g><g stroke-linecap="round"><g transform="translate(268.36962057981503 490.34815672338544) rotate(0 -6.026915553065436 4.464379671676461)" fill-rule="evenodd"><path d="M0 0 L0 0 L-2.66 -0.23 L-6.04 0.12 L-9.19 1.13 L-11.27 2.87 L-12.05 5.47 L-12.05 9.16 L-1.48 9.16 L-1.48 5.38 L-1.48 5.38 L-1.09 2.56 L0 0 L0 0" stroke="none" stroke-width="0" fill="#000" fill-rule="evenodd"></path><path d="M0 0 C0 0, 0 0, 0 0 M0 0 C0 0, 0 0, 0 0 M0 0 C-0.91 -0.08, -1.81 -0.16, -2.66 -0.23 M0 0 C-1.04 -0.09, -2.07 -0.18, -2.66 -0.23 M-2.66 -0.23 C-3.67 -0.13, -4.69 -0.02, -6.04 0.12 M-2.66 -0.23 C-3.97 -0.1, -5.29 0.04, -6.04 0.12 M-6.04 0.12 C-7.05 0.44, -8.05 0.76, -9.19 1.13 M-6.04 0.12 C-7.08 0.45, -8.11 0.78, -9.19 1.13 M-9.19 1.13 C-9.95 1.77, -10.71 2.4, -11.27 2.87 M-9.19 1.13 C-9.75 1.6, -10.31 2.07, -11.27 2.87 M-11.27 2.87 C-11.5 3.63, -11.73 4.4, -12.05 5.47 M-11.27 2.87 C-11.53 3.74, -11.79 4.61, -12.05 5.47 M-12.05 5.47 C-12.05 6.59, -12.05 7.7, -12.05 9.16 M-12.05 5.47 C-12.05 6.7, -12.05 7.92, -12.05 9.16 M-12.05 9.16 C-9.83 9.16, -7.61 9.16, -1.48 9.16 M-12.05 9.16 C-7.89 9.16, -3.73 9.16, -1.48 9.16 M-1.48 9.16 C-1.48 7.93, -1.48 6.69, -1.48 5.38 M-1.48 9.16 C-1.48 8.37, -1.48 7.59, -1.48 5.38 M-1.48 5.38 C-1.48 5.38, -1.48 5.38, -1.48 5.38 M-1.48 5.38 C-1.48 5.38, -1.48 5.38, -1.48 5.38 M-1.48 5.38 C-1.38 4.65, -1.28 3.92, -1.09 2.56 M-1.48 5.38 C-1.33 4.27, -1.18 3.16, -1.09 2.56 M-1.09 2.56 C-0.72 1.68, -0.34 0.81, 0 0 M-1.09 2.56 C-0.67 1.58, -0.25 0.6, 0 0 M0 0 C0 0, 0 0, 0 0 M0 0 C0 0, 0 0, 0 0 M0 0 C0 0, 0 0, 0 0 M0 0 C0 0, 0 0, 0 0" stroke="#00000000" stroke-width="1" fill="none"></path></g></g><g stroke-linecap="round"><g transform="translate(303.3092833164389 487.76351262596205) rotate(0 0 -4.69934969158853)" fill-rule="evenodd"><path d="M0 0 L0 0 L1.82 -0.37 L3.32 -1.38 L4.33 -2.87 L4.7 -4.7 L4.33 -6.52 L3.32 -8.02 L1.82 -9.03 L0 -9.4 L-1.82 -9.03 L-3.32 -8.02 L-4.33 -6.52 L-4.7 -4.7 L-4.33 -2.87 L-3.32 -1.38 L-1.82 -0.37 L0 0 L0 0" stroke="none" stroke-width="0" fill="#000" fill-rule="evenodd"></path><path d="M0 0 C0 0, 0 0, 0 0 M0 0 C0 0, 0 0, 0 0 M0 0 C0.71 -0.14, 1.42 -0.29, 1.82 -0.37 M0 0 C0.46 -0.09, 0.91 -0.19, 1.82 -0.37 M1.82 -0.37 C2.37 -0.74, 2.92 -1.11, 3.32 -1.38 M1.82 -0.37 C2.36 -0.73, 2.89 -1.09, 3.32 -1.38 M3.32 -1.38 C3.68 -1.92, 4.05 -2.46, 4.33 -2.87 M3.32 -1.38 C3.72 -1.97, 4.12 -2.56, 4.33 -2.87 M4.33 -2.87 C4.47 -3.58, 4.61 -4.28, 4.7 -4.7 M4.33 -2.87 C4.41 -3.29, 4.5 -3.7, 4.7 -4.7 M4.7 -4.7 C4.61 -5.13, 4.52 -5.57, 4.33 -6.52 M4.7 -4.7 C4.62 -5.11, 4.53 -5.52, 4.33 -6.52 M4.33 -6.52 C3.98 -7.04, 3.63 -7.56, 3.32 -8.02 M4.33 -6.52 C3.96 -7.06, 3.6 -7.6, 3.32 -8.02 M3.32 -8.02 C2.74 -8.41, 2.16 -8.8, 1.82 -9.03 M3.32 -8.02 C2.94 -8.28, 2.55 -8.54, 1.82 -9.03 M1.82 -9.03 C1.24 -9.15, 0.66 -9.26, 0 -9.4 M1.82 -9.03 C1.36 -9.12, 0.89 -9.22, 0 -9.4 M0 -9.4 C-0.4 -9.32, -0.81 -9.23, -1.82 -9.03 M0 -9.4 C-0.55 -9.29, -1.11 -9.17, -1.82 -9.03 M-1.82 -9.03 C-2.3 -8.71, -2.77 -8.39, -3.32 -8.02 M-1.82 -9.03 C-2.42 -8.63, -3.02 -8.22, -3.32 -8.02 M-3.32 -8.02 C-3.53 -7.71, -3.74 -7.39, -4.33 -6.52 M-3.32 -8.02 C-3.6 -7.6, -3.88 -7.19, -4.33 -6.52 M-4.33 -6.52 C-4.44 -5.96, -4.56 -5.39, -4.7 -4.7 M-4.33 -6.52 C-4.43 -6.02, -4.53 -5.52, -4.7 -4.7 M-4.7 -4.7 C-4.6 -4.2, -4.5 -3.7, -4.33 -2.87 M-4.7 -4.7 C-4.55 -3.99, -4.41 -3.27, -4.33 -2.87 M-4.33 -2.87 C-4.1 -2.54, -3.88 -2.21, -3.32 -1.38 M-4.33 -2.87 C-3.96 -2.33, -3.59 -1.78, -3.32 -1.38 M-3.32 -1.38 C-2.74 -0.99, -2.16 -0.6, -1.82 -0.37 M-3.32 -1.38 C-2.8 -1.03, -2.29 -0.68, -1.82 -0.37 M-1.82 -0.37 C-1.22 -0.25, -0.62 -0.13, 0 0 M-1.82 -0.37 C-1.19 -0.24, -0.55 -0.11, 0 0 M0 0 C0 0, 0 0, 0 0 M0 0 C0 0, 0 0, 0 0 M0 0 C0 0, 0 0, 0 0 M0 0 C0 0, 0 0, 0 0" stroke="#00000000" stroke-width="1" fill="none"></path></g></g><g stroke-linecap="round"><g transform="translate(312.70797962648544 495.822898722262) rotate(0 -6.026914400641488 -1.010362327200042)" fill-rule="evenodd"><path d="M0 0 L0 0 L-0.78 -2.61 L-2.87 -4.35 L-6.01 -5.35 L-9.4 -5.71 L-12.05 -5.47 L-10.96 -2.92 L-10.57 -0.09 L-10.57 3.69 L0 3.69 L0 0 L0 0" stroke="none" stroke-width="0" fill="#000" fill-rule="evenodd"></path><path d="M0 0 C0 0, 0 0, 0 0 M0 0 C0 0, 0 0, 0 0 M0 0 C-0.28 -0.94, -0.56 -1.87, -0.78 -2.61 M0 0 C-0.22 -0.75, -0.45 -1.5, -0.78 -2.61 M-0.78 -2.61 C-1.41 -3.13, -2.04 -3.65, -2.87 -4.35 M-0.78 -2.61 C-1.42 -3.13, -2.05 -3.66, -2.87 -4.35 M-2.87 -4.35 C-3.79 -4.64, -4.72 -4.94, -6.01 -5.35 M-2.87 -4.35 C-3.81 -4.65, -4.75 -4.95, -6.01 -5.35 M-6.01 -5.35 C-6.95 -5.45, -7.89 -5.55, -9.4 -5.71 M-6.01 -5.35 C-7.32 -5.49, -8.63 -5.63, -9.4 -5.71 M-9.4 -5.71 C-10.13 -5.65, -10.86 -5.58, -12.05 -5.47 M-9.4 -5.71 C-10.02 -5.65, -10.64 -5.6, -12.05 -5.47 M-12.05 -5.47 C-11.76 -4.78, -11.46 -4.09, -10.96 -2.92 M-12.05 -5.47 C-11.73 -4.72, -11.41 -3.97, -10.96 -2.92 M-10.96 -2.92 C-10.86 -2.16, -10.75 -1.41, -10.57 -0.09 M-10.96 -2.92 C-10.87 -2.26, -10.78 -1.6, -10.57 -0.09 M-10.57 -0.09 C-10.57 1.3, -10.57 2.7, -10.57 3.69 M-10.57 -0.09 C-10.57 1.29, -10.57 2.68, -10.57 3.69 M-10.57 3.69 C-8.08 3.69, -5.59 3.69, 0 3.69 M-10.57 3.69 C-7.51 3.69, -4.45 3.69, 0 3.69 M0 3.69 C0 2.36, 0 1.02, 0 0 M0 3.69 C0 2.57, 0 1.46, 0 0 M0 0 C0 0, 0 0, 0 0 M0 0 C0 0, 0 0, 0 0 M0 0 C0 0, 0 0, 0 0 M0 0 C0 0, 0 0, 0 0" stroke="#00000000" stroke-width="1" fill="none"></path></g></g><g stroke-linecap="round"><g transform="translate(284.51188455008486 471.3157894736843) rotate(0 0 7.049023769100174)" fill-rule="evenodd"><path d="M0 0 L0 0 L2.75 0.55 L4.99 2.06 L6.5 4.3 L7.05 7.05 L6.5 9.8 L4.99 12.04 L2.75 13.55 L0 14.1 L-2.75 13.55 L-4.99 12.04 L-6.5 9.8 L-7.05 7.05 L-6.5 4.3 L-4.99 2.06 L-2.75 0.55 L0 0 L0 0" stroke="none" stroke-width="0" fill="#000" fill-rule="evenodd"></path><path d="M0 0 C0 0, 0 0, 0 0 M0 0 C0 0, 0 0, 0 0 M0 0 C0.88 0.18, 1.76 0.35, 2.75 0.55 M0 0 C0.78 0.16, 1.55 0.31, 2.75 0.55 M2.75 0.55 C3.5 1.06, 4.26 1.57, 4.99 2.06 M2.75 0.55 C3.51 1.07, 4.27 1.58, 4.99 2.06 M4.99 2.06 C5.5 2.82, 6 3.57, 6.5 4.3 M4.99 2.06 C5.35 2.61, 5.72 3.15, 6.5 4.3 M6.5 4.3 C6.7 5.33, 6.91 6.36, 7.05 7.05 M6.5 4.3 C6.68 5.21, 6.86 6.11, 7.05 7.05 M7.05 7.05 C6.83 8.13, 6.61 9.22, 6.5 9.8 M7.05 7.05 C6.9 7.78, 6.75 8.52, 6.5 9.8 M6.5 9.8 C6.11 10.37, 5.73 10.93, 4.99 12.04 M6.5 9.8 C6.02 10.5, 5.54 11.21, 4.99 12.04 M4.99 12.04 C4.18 12.58, 3.38 13.12, 2.75 13.55 M4.99 12.04 C4.1 12.63, 3.22 13.23, 2.75 13.55 M2.75 13.55 C1.94 13.71, 1.13 13.87, 0 14.1 M2.75 13.55 C1.76 13.74, 0.77 13.94, 0 14.1 M0 14.1 C-0.7 13.96, -1.39 13.82, -2.75 13.55 M0 14.1 C-0.72 13.95, -1.44 13.81, -2.75 13.55 M-2.75 13.55 C-3.35 13.14, -3.95 12.73, -4.99 12.04 M-2.75 13.55 C-3.24 13.21, -3.74 12.88, -4.99 12.04 M-4.99 12.04 C-5.36 11.48, -5.73 10.93, -6.5 9.8 M-4.99 12.04 C-5.44 11.37, -5.89 10.7, -6.5 9.8 M-6.5 9.8 C-6.72 8.7, -6.94 7.6, -7.05 7.05 M-6.5 9.8 C-6.69 8.82, -6.89 7.84, -7.05 7.05 M-7.05 7.05 C-6.9 6.31, -6.75 5.57, -6.5 4.3 M-7.05 7.05 C-6.86 6.13, -6.68 5.21, -6.5 4.3 M-6.5 4.3 C-5.94 3.48, -5.39 2.66, -4.99 2.06 M-6.5 4.3 C-6.02 3.59, -5.54 2.88, -4.99 2.06 M-4.99 2.06 C-4.09 1.46, -3.2 0.86, -2.75 0.55 M-4.99 2.06 C-4.1 1.46, -3.21 0.86, -2.75 0.55 M-2.75 0.55 C-1.92 0.39, -1.09 0.22, 0 0 M-2.75 0.55 C-1.78 0.36, -0.82 0.16, 0 0 M0 0 C0 0, 0 0, 0 0 M0 0 C0 0, 0 0, 0 0 M0 0 C0 0, 0 0, 0 0 M0 0 C0 0, 0 0, 0 0" stroke="#00000000" stroke-width="1" fill="none"></path></g></g><g stroke-linecap="round"><g transform="translate(308.6184233328454 374.50658037519105) rotate(0 -20.921054911792766 -15.690788925142137)" fill-rule="evenodd"><path d="M0 0 L0 0 L2.03 -0.41 L3.68 -1.54 L4.8 -3.2 L5.2 -5.23 L5.23 -31.38 L5.23 -31.38 L4.82 -33.41 L3.69 -35.08 L2.03 -36.2 L0 -36.61 L-41.84 -36.61 L-41.84 -36.61 L-43.87 -36.2 L-45.54 -35.08 L-46.66 -33.41 L-47.07 -31.38 L-47.07 -5.23 L-47.07 -5.23 L-46.66 -3.2 L-45.54 -1.54 L-43.87 -0.41 L-41.84 0 L-52.3 0 L-52.3 5.23 L10.46 5.23 L10.46 0 L0 0 L0 0" stroke="none" stroke-width="0" fill="#000" fill-rule="evenodd"></path><path d="M0 0 C0 0, 0 0, 0 0 M0 0 C0 0, 0 0, 0 0 M0 0 C0.42 -0.09, 0.84 -0.17, 2.03 -0.41 M0 0 C0.65 -0.13, 1.3 -0.26, 2.03 -0.41 M2.03 -0.41 C2.41 -0.68, 2.8 -0.94, 3.68 -1.54 M2.03 -0.41 C2.49 -0.73, 2.95 -1.04, 3.68 -1.54 M3.68 -1.54 C3.91 -1.87, 4.13 -2.21, 4.8 -3.2 M3.68 -1.54 C4.11 -2.18, 4.54 -2.81, 4.8 -3.2 M4.8 -3.2 C4.91 -3.79, 5.03 -4.37, 5.2 -5.23 M4.8 -3.2 C4.96 -4.01, 5.12 -4.81, 5.2 -5.23 M5.2 -5.23 C5.21 -11.06, 5.22 -16.9, 5.23 -31.38 M5.2 -5.23 C5.21 -11.45, 5.22 -17.67, 5.23 -31.38 M5.23 -31.38 C5.23 -31.38, 5.23 -31.38, 5.23 -31.38 M5.23 -31.38 C5.23 -31.38, 5.23 -31.38, 5.23 -31.38 M5.23 -31.38 C5.1 -32.01, 4.98 -32.64, 4.82 -33.41 M5.23 -31.38 C5.12 -31.93, 5.01 -32.48, 4.82 -33.41 M4.82 -33.41 C4.4 -34.03, 3.99 -34.64, 3.69 -35.08 M4.82 -33.41 C4.48 -33.91, 4.14 -34.42, 3.69 -35.08 M3.69 -35.08 C3.1 -35.47, 2.52 -35.87, 2.03 -36.2 M3.69 -35.08 C3.08 -35.49, 2.46 -35.91, 2.03 -36.2 M2.03 -36.2 C1.56 -36.29, 1.09 -36.39, 0 -36.61 M2.03 -36.2 C1.6 -36.29, 1.17 -36.37, 0 -36.61 M0 -36.61 C-12.78 -36.61, -25.56 -36.61, -41.84 -36.61 M0 -36.61 C-13.51 -36.61, -27.03 -36.61, -41.84 -36.61 M-41.84 -36.61 C-41.84 -36.61, -41.84 -36.61, -41.84 -36.61 M-41.84 -36.61 C-41.84 -36.61, -41.84 -36.61, -41.84 -36.61 M-41.84 -36.61 C-42.58 -36.46, -43.31 -36.31, -43.87 -36.2 M-41.84 -36.61 C-42.26 -36.53, -42.68 -36.44, -43.87 -36.2 M-43.87 -36.2 C-44.44 -35.81, -45.01 -35.43, -45.54 -35.08 M-43.87 -36.2 C-44.27 -35.93, -44.66 -35.67, -45.54 -35.08 M-45.54 -35.08 C-45.96 -34.45, -46.39 -33.82, -46.66 -33.41 M-45.54 -35.08 C-45.98 -34.42, -46.43 -33.76, -46.66 -33.41 M-46.66 -33.41 C-46.8 -32.71, -46.95 -32, -47.07 -31.38 M-46.66 -33.41 C-46.77 -32.89, -46.87 -32.37, -47.07 -31.38 M-47.07 -31.38 C-47.07 -24.61, -47.07 -17.85, -47.07 -5.23 M-47.07 -31.38 C-47.07 -21.69, -47.07 -12, -47.07 -5.23 M-47.07 -5.23 C-47.07 -5.23, -47.07 -5.23, -47.07 -5.23 M-47.07 -5.23 C-47.07 -5.23, -47.07 -5.23, -47.07 -5.23 M-47.07 -5.23 C-46.92 -4.49, -46.77 -3.75, -46.66 -3.2 M-47.07 -5.23 C-46.95 -4.62, -46.83 -4.02, -46.66 -3.2 M-46.66 -3.2 C-46.33 -2.71, -46 -2.22, -45.54 -1.54 M-46.66 -3.2 C-46.27 -2.62, -45.88 -2.05, -45.54 -1.54 M-45.54 -1.54 C-45.03 -1.19, -44.52 -0.85, -43.87 -0.41 M-45.54 -1.54 C-45.12 -1.26, -44.7 -0.97, -43.87 -0.41 M-43.87 -0.41 C-43.24 -0.28, -42.61 -0.16, -41.84 0 M-43.87 -0.41 C-43.26 -0.29, -42.64 -0.16, -41.84 0 M-41.84 0 C-45.48 0, -49.12 0, -52.3 0 M-41.84 0 C-45.91 0, -49.97 0, -52.3 0 M-52.3 0 C-52.3 2.07, -52.3 4.13, -52.3 5.23 M-52.3 0 C-52.3 1.33, -52.3 2.65, -52.3 5.23 M-52.3 5.23 C-39.02 5.23, -25.73 5.23, 10.46 5.23 M-52.3 5.23 C-28.69 5.23, -5.07 5.23, 10.46 5.23 M10.46 5.23 C10.46 3.32, 10.46 1.4, 10.46 0 M10.46 5.23 C10.46 4.01, 10.46 2.79, 10.46 0 M10.46 0 C7.66 0, 4.86 0, 0 0 M10.46 0 C6.57 0, 2.68 0, 0 0 M0 0 C0 0, 0 0, 0 0 M0 0 C0 0, 0 0, 0 0 M0 0 C0 0, 0 0, 0 0 M0 0 C0 0, 0 0, 0 0" stroke="#00000000" stroke-width="1" fill="none"></path></g></g><g stroke-linecap="round"><g transform="translate(195.54463549664905 348.97191271712194) rotate(0 40.512072777314074 0.4480131523426252)"><path d="M0.44 -0.75 C14 -0.69, 68.22 -0.44, 81.82 -0.22 M-0.79 1.47 C12.54 1.77, 67.05 1.69, 80.72 1.21" stroke="#e67700" stroke-width="1" fill="none"></path></g></g><g stroke-linecap="round"><g transform="translate(220.01754459581883 339.78947388498364) rotate(0 -6.646929289165286 -5.4649122137772395)" fill-rule="evenodd"><path d="M0 0 L-9.06 0 L-9.06 0 L-10.85 -5.63 L-13.29 -10.93 L-9.25 -9.12 L-5.63 -6.64 L-2.53 -3.57 L0 0 L0 0" stroke="none" stroke-width="0" fill="#DEDEDE" fill-rule="evenodd"></path><path d="M0 0 C-3.33 0, -6.66 0, -9.06 0 M0 0 C-3.12 0, -6.25 0, -9.06 0 M-9.06 0 C-9.06 0, -9.06 0, -9.06 0 M-9.06 0 C-9.06 0, -9.06 0, -9.06 0 M-9.06 0 C-9.62 -1.75, -10.18 -3.5, -10.85 -5.63 M-9.06 0 C-9.72 -2.06, -10.37 -4.12, -10.85 -5.63 M-10.85 -5.63 C-11.47 -6.97, -12.09 -8.31, -13.29 -10.93 M-10.85 -5.63 C-11.71 -7.5, -12.58 -9.37, -13.29 -10.93 M-13.29 -10.93 C-12.48 -10.56, -11.66 -10.2, -9.25 -9.12 M-13.29 -10.93 C-12.38 -10.52, -11.46 -10.11, -9.25 -9.12 M-9.25 -9.12 C-8.1 -8.33, -6.95 -7.54, -5.63 -6.64 M-9.25 -9.12 C-8.34 -8.49, -7.42 -7.87, -5.63 -6.64 M-5.63 -6.64 C-4.53 -5.55, -3.43 -4.47, -2.53 -3.57 M-5.63 -6.64 C-4.88 -5.9, -4.13 -5.16, -2.53 -3.57 M-2.53 -3.57 C-1.7 -2.41, -0.88 -1.24, 0 0 M-2.53 -3.57 C-1.55 -2.2, -0.58 -0.82, 0 0 M0 0 C0 0, 0 0, 0 0 M0 0 C0 0, 0 0, 0 0 M0 0 C0 0, 0 0, 0 0 M0 0 C0 0, 0 0, 0 0" stroke="#2b8a3e" stroke-width="1" fill="none"></path></g></g><g stroke-linecap="round"><g transform="translate(198.77192948993888 327.6315789473684) rotate(0 0.0000020077353894976113 6.078947468807826)" fill-rule="evenodd"><path d="M0 0 L0 0 L3.39 5.81 L5.86 12.16 L-5.86 12.16 L-5.86 12.16 L-3.39 5.81 L0 0 L0 0" stroke="none" stroke-width="0" fill="#DEDEDE" fill-rule="evenodd"></path><path d="M0 0 C0 0, 0 0, 0 0 M0 0 C0 0, 0 0, 0 0 M0 0 C0.78 1.34, 1.56 2.67, 3.39 5.81 M0 0 C1.17 2.01, 2.35 4.02, 3.39 5.81 M3.39 5.81 C4.3 8.15, 5.21 10.48, 5.86 12.16 M3.39 5.81 C4.26 8.04, 5.13 10.27, 5.86 12.16 M5.86 12.16 C2.2 12.16, -1.46 12.16, -5.86 12.16 M5.86 12.16 C3.27 12.16, 0.68 12.16, -5.86 12.16 M-5.86 12.16 C-5.86 12.16, -5.86 12.16, -5.86 12.16 M-5.86 12.16 C-5.86 12.16, -5.86 12.16, -5.86 12.16 M-5.86 12.16 C-5.14 10.31, -4.42 8.46, -3.39 5.81 M-5.86 12.16 C-4.96 9.83, -4.05 7.5, -3.39 5.81 M-3.39 5.81 C-2.68 4.6, -1.98 3.39, 0 0 M-3.39 5.81 C-2.63 4.51, -1.87 3.21, 0 0 M0 0 C0 0, 0 0, 0 0 M0 0 C0 0, 0 0, 0 0 M0 0 C0 0, 0 0, 0 0 M0 0 C0 0, 0 0, 0 0" stroke="#2b8a3e" stroke-width="1" fill="none"></path></g></g><g stroke-linecap="round"><g transform="translate(175.0087727998431 358.21052852429784) rotate(0 4.789472379182513 -6.140351546438119)" fill-rule="evenodd"><path d="M0 0 L0 0 L-0.8 -6.14 L0 -12.28 L10.38 -12.28 L10.38 -12.28 L9.95 -6.14 L10.38 0 L0 0 L0 0" stroke="none" stroke-width="0" fill="#DEDEDE" fill-rule="evenodd"></path><path d="M0 0 C0 0, 0 0, 0 0 M0 0 C0 0, 0 0, 0 0 M0 0 C-0.2 -1.51, -0.39 -3.03, -0.8 -6.14 M0 0 C-0.18 -1.38, -0.36 -2.76, -0.8 -6.14 M-0.8 -6.14 C-0.63 -7.44, -0.46 -8.75, 0 -12.28 M-0.8 -6.14 C-0.56 -7.96, -0.33 -9.78, 0 -12.28 M0 -12.28 C3.76 -12.28, 7.52 -12.28, 10.38 -12.28 M0 -12.28 C3.98 -12.28, 7.95 -12.28, 10.38 -12.28 M10.38 -12.28 C10.38 -12.28, 10.38 -12.28, 10.38 -12.28 M10.38 -12.28 C10.38 -12.28, 10.38 -12.28, 10.38 -12.28 M10.38 -12.28 C10.26 -10.55, 10.13 -8.81, 9.95 -6.14 M10.38 -12.28 C10.25 -10.45, 10.12 -8.61, 9.95 -6.14 M9.95 -6.14 C10.11 -3.79, 10.28 -1.44, 10.38 0 M9.95 -6.14 C10.09 -4.11, 10.23 -2.08, 10.38 0 M10.38 0 C7.63 0, 4.88 0, 0 0 M10.38 0 C7.83 0, 5.28 0, 0 0 M0 0 C0 0, 0 0, 0 0 M0 0 C0 0, 0 0, 0 0 M0 0 C0 0, 0 0, 0 0 M0 0 C0 0, 0 0, 0 0" stroke="#2b8a3e" stroke-width="1" fill="none"></path></g></g><g stroke-linecap="round"><g transform="translate(177.5263153879268 364.3508780630011) rotate(0 6.646929791099154 5.464911209909538)" fill-rule="evenodd"><path d="M0 0 L9.06 0 L9.06 0 L10.85 5.63 L13.29 10.93 L9.25 9.12 L5.63 6.65 L2.53 3.59 L0 0 L0 0" stroke="none" stroke-width="0" fill="#DEDEDE" fill-rule="evenodd"></path><path d="M0 0 C3.52 0, 7.05 0, 9.06 0 M0 0 C2.42 0, 4.84 0, 9.06 0 M9.06 0 C9.06 0, 9.06 0, 9.06 0 M9.06 0 C9.06 0, 9.06 0, 9.06 0 M9.06 0 C9.67 1.92, 10.29 3.85, 10.85 5.63 M9.06 0 C9.58 1.64, 10.1 3.28, 10.85 5.63 M10.85 5.63 C11.72 7.51, 12.59 9.4, 13.29 10.93 M10.85 5.63 C11.66 7.38, 12.47 9.13, 13.29 10.93 M13.29 10.93 C12 10.35, 10.71 9.78, 9.25 9.12 M13.29 10.93 C12.27 10.47, 11.25 10.02, 9.25 9.12 M9.25 9.12 C8.36 8.52, 7.48 7.91, 5.63 6.65 M9.25 9.12 C7.98 8.25, 6.7 7.38, 5.63 6.65 M5.63 6.65 C4.65 5.68, 3.66 4.71, 2.53 3.59 M5.63 6.65 C4.52 5.55, 3.41 4.46, 2.53 3.59 M2.53 3.59 C1.71 2.42, 0.89 1.26, 0 0 M2.53 3.59 C1.75 2.48, 0.97 1.38, 0 0 M0 0 C0 0, 0 0, 0 0 M0 0 C0 0, 0 0, 0 0 M0 0 C0 0, 0 0, 0 0 M0 0 C0 0, 0 0, 0 0" stroke="#2b8a3e" stroke-width="1" fill="none"></path></g></g><g stroke-linecap="round"><g transform="translate(186.58333326640889 339.78947388498364) rotate(0 -2.410088087383059 -5.4649122137772395)" fill-rule="evenodd"><path d="M0 0 L-9.06 0 L-9.06 0 L-6.53 -3.59 L-3.42 -6.65 L0.19 -9.12 L4.24 -10.93 L1.8 -5.63 L0 0 L0 0" stroke="none" stroke-width="0" fill="#DEDEDE" fill-rule="evenodd"></path><path d="M0 0 C-3.55 0, -7.1 0, -9.06 0 M0 0 C-3.56 0, -7.12 0, -9.06 0 M-9.06 0 C-9.06 0, -9.06 0, -9.06 0 M-9.06 0 C-9.06 0, -9.06 0, -9.06 0 M-9.06 0 C-8.19 -1.23, -7.32 -2.46, -6.53 -3.59 M-9.06 0 C-8.43 -0.88, -7.81 -1.77, -6.53 -3.59 M-6.53 -3.59 C-5.81 -4.29, -5.1 -5, -3.42 -6.65 M-6.53 -3.59 C-5.45 -4.66, -4.36 -5.73, -3.42 -6.65 M-3.42 -6.65 C-2.56 -7.24, -1.7 -7.83, 0.19 -9.12 M-3.42 -6.65 C-2.29 -7.42, -1.16 -8.2, 0.19 -9.12 M0.19 -9.12 C1.63 -9.77, 3.08 -10.41, 4.24 -10.93 M0.19 -9.12 C1.46 -9.69, 2.73 -10.26, 4.24 -10.93 M4.24 -10.93 C3.3 -8.9, 2.37 -6.88, 1.8 -5.63 M4.24 -10.93 C3.58 -9.51, 2.93 -8.09, 1.8 -5.63 M1.8 -5.63 C1.11 -3.47, 0.42 -1.31, 0 0 M1.8 -5.63 C1.34 -4.21, 0.89 -2.79, 0 0 M0 0 C0 0, 0 0, 0 0 M0 0 C0 0, 0 0, 0 0 M0 0 C0 0, 0 0, 0 0 M0 0 C0 0, 0 0, 0 0" stroke="#2b8a3e" stroke-width="1" fill="none"></path></g></g><g stroke-linecap="round"><g transform="translate(198.77192948993888 376.5087719967489) rotate(0 0.0000020077354179193208 -6.078946966873971)" fill-rule="evenodd"><path d="M0 0 L0 0 L-3.39 -5.81 L-5.86 -12.16 L5.86 -12.16 L5.86 -12.16 L3.39 -5.81 L0 0 L0 0" stroke="none" stroke-width="0" fill="#DEDEDE" fill-rule="evenodd"></path><path d="M0 0 C0 0, 0 0, 0 0 M0 0 C0 0, 0 0, 0 0 M0 0 C-1.04 -1.78, -2.08 -3.57, -3.39 -5.81 M0 0 C-0.98 -1.69, -1.97 -3.37, -3.39 -5.81 M-3.39 -5.81 C-4.06 -7.53, -4.73 -9.24, -5.86 -12.16 M-3.39 -5.81 C-4.13 -7.71, -4.87 -9.6, -5.86 -12.16 M-5.86 -12.16 C-2.86 -12.16, 0.14 -12.16, 5.86 -12.16 M-5.86 -12.16 C-1.5 -12.16, 2.86 -12.16, 5.86 -12.16 M5.86 -12.16 C5.86 -12.16, 5.86 -12.16, 5.86 -12.16 M5.86 -12.16 C5.86 -12.16, 5.86 -12.16, 5.86 -12.16 M5.86 -12.16 C5.34 -10.82, 4.82 -9.48, 3.39 -5.81 M5.86 -12.16 C5.1 -10.21, 4.34 -8.26, 3.39 -5.81 M3.39 -5.81 C2.54 -4.35, 1.68 -2.89, 0 0 M3.39 -5.81 C2.47 -4.23, 1.54 -2.64, 0 0 M0 0 C0 0, 0 0, 0 0 M0 0 C0 0, 0 0, 0 0 M0 0 C0 0, 0 0, 0 0 M0 0 C0 0, 0 0, 0 0" stroke="#2b8a3e" stroke-width="1" fill="none"></path></g></g><g stroke-linecap="round"><g transform="translate(205.95614081934878 358.21052852429784) rotate(0 -7.184210325542239 -6.140351546438119)" fill-rule="evenodd"><path d="M0 0 L-14.37 0 L-14.37 0 L-14.86 -6.14 L-14.37 -12.28 L0 -12.28 L0 -12.28 L0.49 -6.14 L0 0 L0 0" stroke="none" stroke-width="0" fill="#DEDEDE" fill-rule="evenodd"></path><path d="M0 0 C-2.96 0, -5.93 0, -14.37 0 M0 0 C-3.32 0, -6.63 0, -14.37 0 M-14.37 0 C-14.37 0, -14.37 0, -14.37 0 M-14.37 0 C-14.37 0, -14.37 0, -14.37 0 M-14.37 0 C-14.55 -2.33, -14.74 -4.65, -14.86 -6.14 M-14.37 0 C-14.52 -1.92, -14.68 -3.84, -14.86 -6.14 M-14.86 -6.14 C-14.7 -8.18, -14.53 -10.22, -14.37 -12.28 M-14.86 -6.14 C-14.69 -8.24, -14.52 -10.35, -14.37 -12.28 M-14.37 -12.28 C-9.24 -12.28, -4.11 -12.28, 0 -12.28 M-14.37 -12.28 C-9.72 -12.28, -5.07 -12.28, 0 -12.28 M0 -12.28 C0 -12.28, 0 -12.28, 0 -12.28 M0 -12.28 C0 -12.28, 0 -12.28, 0 -12.28 M0 -12.28 C0.18 -10.03, 0.36 -7.77, 0.49 -6.14 M0 -12.28 C0.19 -9.85, 0.39 -7.42, 0.49 -6.14 M0.49 -6.14 C0.33 -4.15, 0.17 -2.17, 0 0 M0.49 -6.14 C0.34 -4.2, 0.18 -2.25, 0 0 M0 0 C0 0, 0 0, 0 0 M0 0 C0 0, 0 0, 0 0 M0 0 C0 0, 0 0, 0 0 M0 0 C0 0, 0 0, 0 0" stroke="#2b8a3e" stroke-width="1" fill="none"></path></g></g><g stroke-linecap="round"><g transform="translate(206.7236860174885 375.2807004828203) rotate(0 6.646929289165286 -5.464911209909541)" fill-rule="evenodd"><path d="M0 0 L0 0 L2.44 -5.3 L4.24 -10.93 L13.29 -10.93 L13.29 -10.93 L10.77 -7.36 L7.66 -4.29 L4.05 -1.81 L0 0 L0 0" stroke="none" stroke-width="0" fill="#DEDEDE" fill-rule="evenodd"></path><path d="M0 0 C0 0, 0 0, 0 0 M0 0 C0 0, 0 0, 0 0 M0 0 C0.91 -1.97, 1.81 -3.94, 2.44 -5.3 M0 0 C0.87 -1.89, 1.74 -3.79, 2.44 -5.3 M2.44 -5.3 C2.96 -6.93, 3.48 -8.55, 4.24 -10.93 M2.44 -5.3 C2.99 -7.03, 3.54 -8.76, 4.24 -10.93 M4.24 -10.93 C6.89 -10.93, 9.54 -10.93, 13.29 -10.93 M4.24 -10.93 C6.9 -10.93, 9.57 -10.93, 13.29 -10.93 M13.29 -10.93 C13.29 -10.93, 13.29 -10.93, 13.29 -10.93 M13.29 -10.93 C13.29 -10.93, 13.29 -10.93, 13.29 -10.93 M13.29 -10.93 C12.59 -9.94, 11.89 -8.94, 10.77 -7.36 M13.29 -10.93 C12.34 -9.58, 11.38 -8.23, 10.77 -7.36 M10.77 -7.36 C9.61 -6.22, 8.46 -5.08, 7.66 -4.29 M10.77 -7.36 C9.85 -6.45, 8.93 -5.55, 7.66 -4.29 M7.66 -4.29 C6.8 -3.7, 5.95 -3.12, 4.05 -1.81 M7.66 -4.29 C6.83 -3.72, 6 -3.16, 4.05 -1.81 M4.05 -1.81 C2.74 -1.23, 1.43 -0.64, 0 0 M4.05 -1.81 C2.75 -1.23, 1.46 -0.65, 0 0 M0 0 C0 0, 0 0, 0 0 M0 0 C0 0, 0 0, 0 0 M0 0 C0 0, 0 0, 0 0 M0 0 C0 0, 0 0, 0 0" stroke="#2b8a3e" stroke-width="1" fill="none"></path></g></g><g stroke-linecap="round"><g transform="translate(212.15789895308643 358.21052852429784) rotate(0 5.5877183613024215 -6.140351546438119)" fill-rule="evenodd"><path d="M0 0 L0 0 L0.43 -6.14 L0 -12.28 L10.38 -12.28 L10.38 -12.28 L11.18 -6.14 L10.38 0 L0 0 L0 0" stroke="none" stroke-width="0" fill="#DEDEDE" fill-rule="evenodd"></path><path d="M0 0 C0 0, 0 0, 0 0 M0 0 C0 0, 0 0, 0 0 M0 0 C0.14 -2.05, 0.29 -4.09, 0.43 -6.14 M0 0 C0.16 -2.35, 0.33 -4.71, 0.43 -6.14 M0.43 -6.14 C0.27 -8.41, 0.11 -10.68, 0 -12.28 M0.43 -6.14 C0.34 -7.38, 0.26 -8.63, 0 -12.28 M0 -12.28 C2.99 -12.28, 5.98 -12.28, 10.38 -12.28 M0 -12.28 C4.13 -12.28, 8.27 -12.28, 10.38 -12.28 M10.38 -12.28 C10.38 -12.28, 10.38 -12.28, 10.38 -12.28 M10.38 -12.28 C10.38 -12.28, 10.38 -12.28, 10.38 -12.28 M10.38 -12.28 C10.62 -10.42, 10.86 -8.56, 11.18 -6.14 M10.38 -12.28 C10.63 -10.35, 10.88 -8.41, 11.18 -6.14 M11.18 -6.14 C11.01 -4.87, 10.84 -3.6, 10.38 0 M11.18 -6.14 C10.86 -3.73, 10.55 -1.32, 10.38 0 M10.38 0 C6.77 0, 3.16 0, 0 0 M10.38 0 C8.08 0, 5.79 0, 0 0 M0 0 C0 0, 0 0, 0 0 M0 0 C0 0, 0 0, 0 0 M0 0 C0 0, 0 0, 0 0 M0 0 C0 0, 0 0, 0 0" stroke="#2b8a3e" stroke-width="1" fill="none"></path></g></g><g stroke-linecap="round"><g transform="translate(245.20768624264883 451.46392210520736) rotate(0 -14.246741854391132 -20.620897809741777)"><path d="M-0.51 0.43 C-5.23 -6.15, -24.39 -33.16, -29.33 -39.71 M1.42 -0.39 C-3.3 -7.33, -24.52 -34.96, -29.91 -41.67" stroke="#e67700" stroke-width="1" fill="none"></path></g><g transform="translate(245.20768624264883 451.46392210520736) rotate(0 -14.246741854391132 -20.620897809741777)"><path d="M-7.98 -27.26 C-12.66 -31.49, -15.81 -34.11, -31.18 -43.66 M-9.46 -29.41 C-14.15 -32.98, -20.98 -36.84, -29.32 -41.21" stroke="#e67700" stroke-width="1" fill="none"></path></g><g transform="translate(245.20768624264883 451.46392210520736) rotate(0 -14.246741854391132 -20.620897809741777)"><path d="M-21.46 -16.72 C-23.26 -23.13, -23.55 -28, -31.18 -43.66 M-22.94 -18.87 C-23.56 -25.73, -26.32 -32.76, -29.32 -41.21" stroke="#e67700" stroke-width="1" fill="none"></path></g></g><g stroke-linecap="round" transform="translate(748.9473684210527 707.3684210526314) rotate(0 51.31578947368422 30.78947368421052)"><path d="M0 0 C0 0, 0 0, 0 0 M0 0 C0 0, 0 0, 0 0 M0.01 7.16 C1.39 4.6, 2.43 2.58, 4.54 -0.29 M-0.15 6.25 C1.79 4.3, 3.21 2.19, 4.71 0.29 M-0.19 13.54 C1.85 9.71, 7.66 5.28, 11.27 -0.93 M0.93 11.52 C3.53 7.98, 7.27 2.39, 10.35 0.18 M0.72 18.78 C4.26 12.01, 11.45 5.75, 17.5 0.84 M-0.34 17.66 C6.06 11.96, 12.59 5.36, 15.68 1.1 M1.57 22.5 C7.1 18.88, 13.18 10.51, 23.23 0.31 M0.86 24.42 C6.34 17.91, 11.53 12.46, 21.92 -0.76 M1.19 29.79 C11.31 19.32, 20.78 5.55, 26.88 -0.46 M-0.93 30.33 C6.48 22.29, 12.89 13.73, 26.32 0.34 M1.23 37.77 C9.5 25.54, 18.05 19.7, 30.46 -1.85 M0.66 36.52 C11.42 23.79, 22.56 11.22, 31.69 0.02 M1.44 42.89 C11.36 31.65, 21.4 19.27, 35.85 -0.32 M0.29 41.57 C13.39 27.22, 27.87 12.64, 37.36 0.54 M-0.89 47.8 C16.79 30.65, 30.25 11.76, 43.43 -1.77 M-0.63 48.43 C17.03 30.02, 34.64 10.19, 42.77 -0.56 M-0.98 52.7 C12.03 42.25, 23.39 31.17, 48.19 1.14 M0.86 53.87 C17.01 34.93, 34.88 15.2, 48.49 0.29 M1.57 62 C16.31 44.23, 32.5 25.76, 54.37 -0.5 M0.41 61.14 C19.21 40.52, 36.59 19.92, 53.85 -0.67 M4.04 63.89 C16.4 49.42, 25.12 39.07, 59.58 -1.1 M2.48 63.67 C14.39 49.72, 25.38 37.06, 57.93 0.18 M7.45 63.03 C23.8 48.49, 37.19 28.85, 65.45 -2.05 M8.23 63.79 C24.84 44.82, 42.21 23.48, 63.17 0.5 M14.53 63.92 C32.43 39.71, 55.43 17.7, 69.69 -1.02 M12.35 64.13 C31.71 43.12, 50.89 21.65, 68.42 0.74 M18.38 63.71 C32.86 48.06, 43.74 34.1, 72.79 -1.37 M18.72 64.58 C30.67 48.79, 44.18 35.75, 74.49 0.73 M23.27 66.15 C43.07 41.95, 63.65 18.87, 78.09 -1.52 M24.05 64.19 C41.93 44.51, 61.01 23.84, 79.24 0.48 M30.57 64.9 C46.53 40.42, 65.81 17.66, 86.43 -0.33 M28.89 64.65 C52.07 39.14, 73.32 13.92, 85.11 -1.24 M34.92 66.2 C48.8 46.68, 62.5 30.67, 88.29 1.55 M34.59 64.97 C56.52 39, 77.1 13.49, 90.21 -0.12 M38.8 63.49 C56.62 45.73, 74.09 25.94, 94.37 0.26 M38.94 64.13 C59.72 40.32, 81.09 16.44, 95.86 0.3 M44.71 64.02 C67.56 40.06, 90.16 10.7, 99.76 -0.59 M45.18 63.82 C62 44.25, 78.43 24.45, 99.67 -0.61 M49.76 63.46 C67.95 46.77, 84.53 27.17, 104.57 2.91 M49.59 63.07 C64.22 47.92, 76.65 34.19, 105.12 2.3 M53.82 64.59 C73.11 44.48, 90.51 21.49, 105.33 5.88 M54.54 65.03 C69.1 47.34, 83.26 31.27, 103.92 6.96 M62.11 63.84 C78.4 43.89, 96.01 23.72, 106.31 12.46 M62.08 63.53 C74.85 46.85, 89.59 30.27, 104.22 13.95 M65.36 65.98 C72.9 53.21, 82.38 46.57, 102.95 19.28 M66.95 63.88 C77.76 52.5, 87.93 38.93, 105.01 19.98 M70.41 62.7 C82.46 55.35, 89.64 42.88, 105.94 25.5 M72.19 63.5 C82.28 50.55, 93.89 37.58, 105.12 26.07 M76.37 63.3 C81.8 55.74, 89.71 46.8, 103.18 32.24 M76.19 64.62 C84.64 53.16, 94.72 43.77, 104.14 33 M81.2 65.22 C87.86 57.15, 94.32 52.11, 103.19 37.44 M82.24 62.96 C86.96 58.56, 91.71 52.66, 104.76 38.23 M85.86 64.75 C94.01 56.61, 101.94 46.88, 102.52 42.72 M87.6 64.45 C94.18 57.72, 98.9 50.44, 105.1 44.86 M92.94 63.61 C97.93 59.14, 101.22 52.55, 103.84 48.91 M93.06 63.85 C95.6 61.5, 97.16 58.3, 105.55 50.91 M98.39 63.8 C100.65 62.2, 100.67 60.07, 104.04 57.24 M98.03 63.8 C100.48 61.88, 103.06 58.85, 104.41 56.53" stroke="#40c057" stroke-width="0.5" fill="none"></path><path d="M1.64 1.83 C33.79 -0.26, 72 -0.09, 102.59 1.85 M-0.73 -0.84 C32.07 -0.48, 63.08 0.01, 103.32 -0.41 M102.73 1.68 C100.42 18.89, 101.31 37.77, 103.19 61.36 M102.9 0.33 C103.3 23.46, 102.97 46.18, 102.19 61.78 M101.64 61.09 C73.56 60.04, 48.09 61.06, 1.25 60.41 M103.17 60.67 C67.05 61.87, 31.1 62.24, -1 62.43 M-0.99 61.07 C-0.13 49.55, -0.86 32.1, -0.23 -0.97 M0.1 62.11 C-0.08 39.17, 0.05 17.87, -0.84 0.54" stroke="#e67700" stroke-width="1" fill="none"></path></g><g transform="translate(753.9473684210527 726.657894736842) rotate(0 46.31578947368422 11.5)"><text x="46.31578947368421" y="18" font-family="Helvetica, Segoe UI Emoji" font-size="20px" fill="#343a40" text-anchor="middle" style="white-space: pre;" direction="ltr">Local</text></g><g transform="translate(180.88157894736833 44.36842105263156) rotate(0 180.11842105263156 9.23684210526315)"><text x="0" y="14.473684210526319" font-family="Helvetica, Segoe UI Emoji" font-size="16.42105263157895px" fill="#e67700" text-anchor="start" style="white-space: pre;" direction="ltr">PGPCC | Project|Nov22|Sudhakar Balagurusamy</text></g><g transform="translate(1015.7894736842104 420.00000000000017) rotate(0 31.30263157894737 23.09210526315789)"><text x="0" y="12.39473684210526" font-family="Helvetica, Segoe UI Emoji" font-size="13.916146297948263px" fill="#f00" text-anchor="start" style="white-space: pre;" direction="ltr">private IP </text><text x="0" y="27.78947368421052" font-family="Helvetica, Segoe UI Emoji" font-size="13.916146297948263px" fill="#f00" text-anchor="start" style="white-space: pre;" direction="ltr">Address</text><text x="0" y="43.18421052631578" font-family="Helvetica, Segoe UI Emoji" font-size="13.916146297948263px" fill="#f00" text-anchor="start" style="white-space: pre;" direction="ltr">10.0.1.4</text></g><g transform="translate(666.8421052631578 284.7859356725148) rotate(0 21.947002923976587 15.801842105263148)"><text x="0" y="24.603684210526293" font-family="Helvetica, Segoe UI Emoji" font-size="28.09216374269004px" fill="#00ff00" text-anchor="start" style="white-space: pre;" direction="ltr">VM</text></g><g stroke-linecap="round"><g transform="translate(317.9160132803316 378.9833081674433) rotate(0 163.90615937112096 0.12056652666557355)"><path d="M0.84 -0.82 C55.34 -0.82, 273.8 0.54, 328 0.51 M-0.19 1.37 C54.14 0.99, 272.73 -0.91, 327.47 -1.12" stroke="#00f" stroke-width="1" fill="none"></path></g><g transform="translate(317.9160132803316 378.9833081674433) rotate(0 163.90615937112096 0.12056652666557355)"><path d="M327.46 0.13 L314.44 6.07 L314.24 -5.62 L328.34 -2.28" stroke="none" stroke-width="0" fill="#00f" fill-rule="evenodd"></path><path d="M326.45 -0.11 C323.49 -0.03, 316.47 4.99, 314.81 6.58 M327.28 -1.81 C325.11 0.68, 320.6 2.55, 314.36 4.84 M314.13 4.98 C312.74 3.68, 312.55 0.14, 313.47 -7.62 M313.51 5.4 C314.44 2.78, 314.11 -0.7, 314.16 -7.05 M313.43 -8.31 C317.6 -6.14, 320.25 -4.19, 328.83 -0.84 M313.52 -7.68 C317.77 -5.99, 321.03 -3.5, 327.13 -1.3 M327.47 -1.12 C327.47 -1.12, 327.47 -1.12, 327.47 -1.12 M327.47 -1.12 C327.47 -1.12, 327.47 -1.12, 327.47 -1.12" stroke="#00f" stroke-width="1" fill="none"></path></g></g><g transform="translate(605.2631578947367 440.52631578947376) rotate(0 41.05263157894737 20.4317244724715)"><text x="0" y="11.621149648314336" font-family="Helvetica, Segoe UI Emoji" font-size="11.774634625445385px" fill="#2b8a3e" text-anchor="start" style="white-space: pre;" direction="ltr">NIC </text><text x="0" y="25.242299296628673" font-family="Helvetica, Segoe UI Emoji" font-size="11.774634625445385px" fill="#2b8a3e" text-anchor="start" style="white-space: pre;" direction="ltr">Pub. IP</text><text x="0" y="38.86344894494301" font-family="Helvetica, Segoe UI Emoji" font-size="11.774634625445385px" fill="#2b8a3e" text-anchor="start" style="white-space: pre;" direction="ltr">74.235.174.181</text></g><g stroke-linecap="round" transform="translate(584.7368421052631 420.00000000000006) rotate(0 51.31578947368421 41.05263157894737)"><path d="M0 0 C39.08 0, 78.15 0, 102.63 0 M102.63 0 C102.63 32.36, 102.63 64.72, 102.63 82.11 M102.63 82.11 C79.41 82.11, 56.18 82.11, 0 82.11 M0 82.11 C0 49.48, 0 16.85, 0 0" stroke="#ff0f0f" stroke-width="4.5" fill="none" stroke-dasharray="8 12"></path></g><g transform="translate(748.9473684210525 461.0526315789477) rotate(0 31.30263157894737 23.09210526315789)"><text x="0" y="12.39473684210526" font-family="Helvetica, Segoe UI Emoji" font-size="13.916146297948263px" fill="#00f" text-anchor="start" style="white-space: pre;" direction="ltr">private IP </text><text x="0" y="27.78947368421052" font-family="Helvetica, Segoe UI Emoji" font-size="13.916146297948263px" fill="#00f" text-anchor="start" style="white-space: pre;" direction="ltr">Address</text><text x="0" y="43.18421052631578" font-family="Helvetica, Segoe UI Emoji" font-size="13.916146297948263px" fill="#00f" text-anchor="start" style="white-space: pre;" direction="ltr">10.0.0.4</text></g><g stroke-linecap="round"><g transform="translate(769.4736842105264 378.9473684210525) rotate(0 112.89473684210527 0)"><path d="M0 0 C37.63 0, 188.16 0, 225.79 0 M0 0 C37.63 0, 188.16 0, 225.79 0" stroke="#e67700" stroke-width="2" fill="none"></path></g><g transform="translate(769.4736842105264 378.9473684210525) rotate(0 112.89473684210527 0)"><path d="M225.79 0 L212.19 6.34 L212.19 -6.34 L225.79 0" stroke="none" stroke-width="0" fill="#e67700" fill-rule="evenodd"></path><path d="M225.79 0 C222.9 1.35, 220 2.7, 212.19 6.34 M225.79 0 C221.91 1.81, 218.03 3.62, 212.19 6.34 M212.19 6.34 C212.19 2.16, 212.19 -2.03, 212.19 -6.34 M212.19 6.34 C212.19 3.02, 212.19 -0.31, 212.19 -6.34 M212.19 -6.34 C216.21 -4.47, 220.23 -2.59, 225.79 0 M212.19 -6.34 C217.25 -3.98, 222.3 -1.63, 225.79 0 M225.79 0 C225.79 0, 225.79 0, 225.79 0 M225.79 0 C225.79 0, 225.79 0, 225.79 0" stroke="#e67700" stroke-width="2" fill="none"></path></g></g><g stroke-linecap="round"><g transform="translate(707.8947368421052 481.5789473684209) rotate(0 -41.05263157894737 102.63157894736845)"><path d="M0 0 C-13.68 34.21, -68.42 171.05, -82.11 205.26 M0 0 C-13.68 34.21, -68.42 171.05, -82.11 205.26" stroke="#e67700" stroke-width="2" fill="none"></path></g><g transform="translate(707.8947368421052 481.5789473684209) rotate(0 -41.05263157894737 102.63157894736845)"><path d="M-82.11 205.26 L-82.94 190.29 L-71.17 195 L-82.11 205.26" stroke="none" stroke-width="0" fill="#e67700" fill-rule="evenodd"></path><path d="M-82.11 205.26 C-82.31 201.59, -82.52 197.92, -82.94 190.29 M-82.11 205.26 C-82.32 201.47, -82.53 197.68, -82.94 190.29 M-82.94 190.29 C-79.36 191.72, -75.78 193.15, -71.17 195 M-82.94 190.29 C-79.8 191.55, -76.65 192.8, -71.17 195 M-71.17 195 C-75.18 198.76, -79.19 202.53, -82.11 205.26 M-71.17 195 C-73.91 197.56, -76.64 200.13, -82.11 205.26 M-82.11 205.26 C-82.11 205.26, -82.11 205.26, -82.11 205.26 M-82.11 205.26 C-82.11 205.26, -82.11 205.26, -82.11 205.26" stroke="#e67700" stroke-width="2" fill="none"></path></g></g><g stroke-linecap="round"><g transform="translate(728.4210526315787 481.57894736842104) rotate(0 41.05263157894737 112.89473684210527)"><path d="M0 0 C13.68 37.63, 68.42 188.16, 82.11 225.79 M0 0 C13.68 37.63, 68.42 188.16, 82.11 225.79" stroke="#e67700" stroke-width="2" fill="none"></path></g><g transform="translate(728.4210526315787 481.57894736842104) rotate(0 41.05263157894737 112.89473684210527)"><path d="M82.11 225.79 L71.5 215.18 L83.42 210.85 L82.11 225.79" stroke="none" stroke-width="0" fill="#e67700" fill-rule="evenodd"></path><path d="M82.11 225.79 C77.92 221.6, 73.73 217.41, 71.5 215.18 M82.11 225.79 C79.58 223.26, 77.06 220.74, 71.5 215.18 M71.5 215.18 C74.15 214.22, 76.81 213.25, 83.42 210.85 M71.5 215.18 C74.33 214.15, 77.16 213.12, 83.42 210.85 M83.42 210.85 C82.93 216.45, 82.43 222.05, 82.11 225.79 M83.42 210.85 C82.97 215.99, 82.51 221.13, 82.11 225.79 M82.11 225.79 C82.11 225.79, 82.11 225.79, 82.11 225.79 M82.11 225.79 C82.11 225.79, 82.11 225.79, 82.11 225.79" stroke="#e67700" stroke-width="2" fill="none"></path></g></g></svg>